<?xml version="1.0" encoding="UTF-8" standalone="no"?>
<!-- Created with Inkscape (http://www.inkscape.org/) -->

<svg
   version="1.1"
   id="svg2913"
   width="1469.1462"
   height="377.17599"
   viewBox="0 0 1469.1463 377.17599"
   xmlns="http://www.w3.org/2000/svg"
   xmlns:svg="http://www.w3.org/2000/svg">
  <defs
     id="defs2917">
    <clipPath
       clipPathUnits="userSpaceOnUse"
       id="clipPath2931">
      <path
         d="M 0,768 H 1366 V 0 H 0 Z"
         id="path2929" />
    </clipPath>
  </defs>
  <g
     id="g2921"
     transform="matrix(1.3333333,0,0,-1.3333333,-141.5204,699.99704)">
    <g
       id="g2925">
      <g
         id="g2927"
         clip-path="url(#clipPath2931)">
        <g
           id="g2933"
           transform="translate(206.9883,440.9868)">
          <path
             d="m 0,0 c -24.496,0 -42.476,-17.174 -42.476,-38.892 0,-23.235 16.939,-38.891 40.651,-38.891 8.34,0 12.507,1.513 12.507,6.569 0,4.29 -4.426,5.555 -12.765,5.555 h -9.382 v 40.657 h 52.899 c 11.206,-14.649 16.938,-27.779 16.938,-42.681 0,-33.583 -28.662,-63.387 -69.319,-63.387 -22.93,0 -45.342,9.599 -62.539,27.027 -17.722,18.179 -27.362,41.41 -27.362,66.417 0,25.755 9.64,48.231 28.144,66.412 18.504,17.933 40.911,27.279 65.671,27.279 9.899,0 20.063,-1.771 30.487,-4.802 V -6.062 C 15.373,-2.272 8.081,0 0,0"
             style="fill:#ffffff;fill-opacity:1;fill-rule:nonzero;stroke:none"
             id="path2935" />
        </g>
        <g
           id="g2937"
           transform="translate(288.0151,414.9741)">
          <path
             d="m 0,0 c 13.29,19.446 34.66,30.558 58.113,30.558 18.24,0 35.961,-7.069 49.509,-20.2 13.29,-12.883 20.587,-29.804 20.587,-47.731 0,-18.186 -7.297,-34.854 -20.587,-47.731 -13.289,-12.878 -31.011,-19.952 -49.509,-19.952 -18.763,0 -35.966,7.074 -49.256,19.952 -13.289,12.877 -20.581,29.545 -20.581,47.731 0,13.131 3.908,26.008 11.724,37.373 m 58.113,-54.8 c 9.9,0 18.24,7.828 18.24,17.427 0,9.593 -8.34,17.674 -18.24,17.674 -9.905,0 -17.986,-7.827 -17.986,-17.674 0,-9.599 8.081,-17.427 17.986,-17.427"
             style="fill:#ffffff;fill-opacity:1;fill-rule:nonzero;stroke:none"
             id="path2939" />
        </g>
        <g
           id="g2941"
           transform="translate(599.6094,402.0962)">
          <path
             d="m 0,0 v -11.365 c 0,-10.352 -0.259,-20.205 -3.39,-30.557 -9.376,-31.818 -34.654,-50.257 -66.447,-50.257 -18.504,0 -35.702,7.074 -48.991,20.205 -12.766,12.624 -19.805,29.545 -19.805,47.478 0,38.386 30.228,68.184 68.537,68.184 3.125,0 6.774,-0.253 10.682,-0.506 v -51.01 c -3.908,1.513 -7.033,2.525 -9.641,2.525 -11.206,0 -19.546,-8.081 -19.546,-19.193 0,-10.358 8.864,-18.939 19.288,-18.939 16.155,0 19.804,12.118 19.804,33.582 V 91.419 H 0 Z"
             style="fill:#ffffff;fill-opacity:1;fill-rule:nonzero;stroke:none"
             id="path2943" />
        </g>
        <path
           d="m 620.18,441.998 h 49.509 V 313.453 H 620.18 Z"
           style="fill:#ffffff;fill-opacity:1;fill-rule:nonzero;stroke:none"
           id="path2945" />
        <g
           id="g2947"
           transform="translate(764.7979,319.7686)">
          <path
             d="m 0,0 c -6.774,-2.02 -13.29,-3.031 -19.281,-3.031 -34.401,0 -60.198,24.748 -60.198,61.114 0,38.892 29.706,67.937 69.055,67.937 27.886,0 50.816,-13.896 61.763,-36.62 7.292,-15.408 8.075,-28.792 8.075,-41.922 V 38.385 0 c 0,-38.892 -31.269,-68.19 -76.87,-68.19 -7.822,0 -15.114,1.265 -22.672,4.296 v 45.46 c 6.516,-3.031 12.507,-4.549 19.023,-4.549 18.762,0 31.01,12.124 31.01,28.285 v 42.176 c 0,18.939 -3.649,29.798 -19.804,29.798 -10.948,0 -19.029,-7.828 -19.029,-16.921 0,-9.846 7.823,-16.92 19.287,-16.92 2.608,0 5.733,0.505 9.641,2.018 z"
             style="fill:#ffffff;fill-opacity:1;fill-rule:nonzero;stroke:none"
             id="path2949" />
        </g>
        <path
           d="M 843.481,441.998 H 892.99 V 313.453 h -49.509 z"
           style="fill:#ffffff;fill-opacity:1;fill-rule:nonzero;stroke:none"
           id="path2951" />
        <g
           id="g2953"
           transform="translate(964.3877,387.7012)">
          <path
             d="m 0,0 c -0.26,-1.519 -0.26,-3.284 -0.26,-4.549 0,-14.138 6.516,-21.212 19.023,-21.212 h 3.125 v -52.021 c -2.343,-0.254 -4.691,-0.254 -7.039,-0.254 -37.786,0 -65.664,27.02 -65.664,69.702 V 102.278 H 0 V 54.294 H 21.888 V 0 Z"
             style="fill:#ffffff;fill-opacity:1;fill-rule:nonzero;stroke:none"
             id="path2955" />
        </g>
        <g
           id="g2957"
           transform="translate(1088.4141,313.4541)">
          <path
             d="m 0,0 v 51.516 c 0,20.963 -3.649,32.835 -19.805,32.835 -10.682,0 -19.281,-8.587 -19.281,-18.693 0,-10.858 8.34,-18.686 19.281,-18.686 2.867,0 5.992,0.759 9.9,2.271 V -0.76 c -3.908,-0.253 -7.552,-0.5 -10.683,-0.5 -38.303,0 -68.531,29.292 -68.531,66.918 0,17.68 7.033,34.348 19.806,46.725 13.289,12.878 30.486,19.693 48.99,19.693 27.621,0 50.809,-14.142 61.757,-37.373 7.297,-15.909 8.075,-29.804 8.075,-43.44 V 41.922 0 Z"
             style="fill:#ffffff;fill-opacity:1;fill-rule:nonzero;stroke:none"
             id="path2959" />
        </g>
        <path
           d="M 1158.491,493.514 H 1208 V 313.453 h -49.509 z"
           style="fill:#ffffff;fill-opacity:1;fill-rule:nonzero;stroke:none"
           id="path2961" />
        <g
           id="g2963"
           transform="translate(895.1299,475.3042)">
          <path
             d="m 0,0 c -1.219,7.828 -9.182,12.648 -17.086,9.994 -0.424,0.953 -0.806,1.93 -1.277,2.866 -3.702,7.292 -11.671,11.471 -19.893,10.7 -8.487,-0.795 -15.808,-6.857 -17.644,-15.391 -0.148,-0.671 -0.266,-1.348 -0.307,-2.031 -0.029,-0.476 -0.23,-0.635 -0.683,-0.765 -5.808,-1.701 -9.499,-6.591 -9.487,-12.536 0.012,-5.402 3.879,-10.382 9.341,-11.977 3.03,-0.882 6.026,-0.735 8.957,0.442 0.212,0.082 0.424,0.164 0.63,0.247 0.023,0.006 0.047,0 0.141,0 2.119,-3.355 5.138,-5.539 9.258,-6.097 4.108,-0.554 7.663,0.635 10.712,3.395 0.436,-0.376 0.847,-0.765 1.288,-1.124 7.146,-5.827 17.934,-4.814 23.79,2.249 0.329,0.394 0.629,0.482 1.148,0.412 6.35,-0.895 12.159,4.714 11.276,10.864 -0.712,4.92 -4.42,8.304 -9.528,8.675 C 0.441,-0.065 0.241,-0.029 0,0"
             style="fill:#ffffff;fill-opacity:1;fill-rule:nonzero;stroke:none"
             id="path2965" />
        </g>
        <g
           id="g2967"
           transform="translate(644.9321,442.0088)">
          <path
             d="m 0,0 c -0.554,0.794 -1.101,1.542 -1.607,2.313 -2.219,3.361 -4.473,6.698 -6.621,10.094 -3.549,5.609 -6.892,11.323 -9.735,17.303 -1.324,2.778 -2.489,5.615 -3.367,8.563 -1.088,3.638 -0.947,7.263 0.277,10.812 2.725,7.898 8.323,12.889 16.739,14.608 6.668,1.36 12.801,-0.141 18.127,-4.273 4.979,-3.867 7.675,-8.975 8.21,-15.155 0.206,-2.39 -0.247,-4.679 -0.959,-6.939 C 19.869,33.542 18.174,29.963 16.361,26.432 14.001,21.853 11.429,17.386 8.64,13.042 5.909,8.799 3.078,4.608 0.294,0.394 0.217,0.277 0.124,0.165 0,0 M -14.614,42.799 C -14.62,35.254 -8.534,28.562 0.053,28.586 8.551,28.609 14.566,35.178 14.619,42.599 14.678,50.562 8.127,56.936 0,56.931 -8.052,56.918 -14.608,50.58 -14.614,42.799"
             style="fill:#ffffff;fill-opacity:1;fill-rule:nonzero;stroke:none"
             id="path2969" />
        </g>
        <g
           id="g2971"
           transform="translate(346.2563,509.0898)">
          <path
             d="M 0,0 C 37.62,0 71.326,-12.383 94.068,-31.935 71.326,-2.643 37.62,15.908 0,15.908 -37.62,15.908 -71.327,-2.643 -94.068,-31.935 -71.327,-12.383 -37.62,0 0,0"
             style="fill:#ffffff;fill-opacity:1;fill-rule:nonzero;stroke:none"
             id="path2973" />
        </g>
        <g
           id="g2975"
           transform="translate(346.2563,484.0029)">
          <path
             d="M 0,0 C 32.146,0 60.944,-10.582 80.378,-27.285 60.944,-2.26 32.146,13.59 0,13.59 -32.147,13.59 -60.944,-2.26 -80.378,-27.285 -60.944,-10.582 -32.147,0 0,0"
             style="fill:#ffffff;fill-opacity:1;fill-rule:nonzero;stroke:none"
             id="path2977" />
        </g>
        <g
           id="g2979"
           transform="translate(346.2563,458.8848)">
          <path
             d="M 0,0 C 22.3,0 42.281,-7.339 55.759,-18.928 42.281,-1.566 22.3,9.429 0,9.429 -22.3,9.429 -42.282,-1.566 -55.759,-18.928 -42.282,-7.339 -22.3,0 0,0"
             style="fill:#ffffff;fill-opacity:1;fill-rule:nonzero;stroke:none"
             id="path2981" />
        </g>
        <g
           id="g2983"
           transform="translate(996.8213,296.1592)">
          <path
             d="m 0,0 v -15.479 c 2.336,2.448 4.896,3.666 7.669,3.666 1.9,0 3.696,-0.565 5.379,-1.701 1.683,-1.13 3.002,-2.736 3.955,-4.82 0.947,-2.089 1.425,-4.49 1.425,-7.215 0,-3.067 -0.607,-5.85 -1.814,-8.358 -1.206,-2.501 -2.824,-4.414 -4.843,-5.726 C 9.746,-40.94 7.439,-41.6 4.844,-41.6 c -1.507,0 -2.843,0.242 -4.014,0.719 -1.166,0.483 -2.313,1.266 -3.443,2.348 l -4.609,-3.037 h -1.012 v 35.737 c 0,1.624 -0.071,2.625 -0.206,3.008 -0.2,0.558 -0.512,0.976 -0.936,1.248 -0.43,0.27 -1.147,0.423 -2.16,0.465 V 0 Z m 0,-18.151 v -12.507 c 0,-2.548 0.059,-4.167 0.177,-4.867 0.2,-1.183 0.677,-2.143 1.429,-2.872 0.753,-0.73 1.713,-1.101 2.884,-1.101 1.007,0 1.878,0.294 2.596,0.877 0.724,0.576 1.33,1.73 1.812,3.455 0.489,1.725 0.731,4.826 0.731,9.316 0,4.309 -0.536,7.263 -1.602,8.87 -0.776,1.16 -1.818,1.742 -3.125,1.742 -1.701,0 -3.337,-0.971 -4.902,-2.913"
             style="fill:#ffffff;fill-opacity:1;fill-rule:nonzero;stroke:none"
             id="path2985" />
        </g>
        <g
           id="g2987"
           transform="translate(1032.665,254.2588)">
          <path
             d="m 0,0 -8.976,20.828 c -1.348,3.15 -2.342,5.079 -2.99,5.804 -0.641,0.723 -1.418,1.223 -2.331,1.506 v 1.107 H 0.477 v -1.107 c -0.972,-0.041 -1.655,-0.236 -2.055,-0.576 -0.395,-0.342 -0.588,-0.749 -0.588,-1.231 0,-0.765 0.494,-2.266 1.482,-4.508 l 4.756,-11 3.238,8.505 c 1.17,3.025 1.753,5.132 1.753,6.309 0,0.742 -0.241,1.336 -0.724,1.777 -0.488,0.441 -1.342,0.683 -2.571,0.724 v 1.107 h 9.304 v -1.107 c -0.912,-0.106 -1.66,-0.459 -2.23,-1.071 -0.577,-0.612 -1.536,-2.69 -2.884,-6.239 L 2.024,0 c -2.001,-5.209 -3.49,-8.417 -4.462,-9.617 -1.365,-1.684 -3.078,-2.526 -5.137,-2.526 -1.648,0 -2.984,0.477 -4.002,1.425 -1.019,0.953 -1.53,2.101 -1.53,3.443 0,1.16 0.352,2.125 1.053,2.884 0.706,0.765 1.572,1.142 2.601,1.142 0.989,0 1.79,-0.318 2.395,-0.96 0.601,-0.642 0.918,-1.63 0.937,-2.978 0.017,-0.759 0.105,-1.248 0.265,-1.471 0.159,-0.218 0.388,-0.329 0.688,-0.329 0.471,0 0.977,0.288 1.513,0.871 0.794,0.841 1.724,2.765 2.795,5.773 z"
             style="fill:#ffffff;fill-opacity:1;fill-rule:nonzero;stroke:none"
             id="path2989" />
        </g>
        <g
           id="g2991"
           transform="translate(1085.8086,256.5146)">
          <path
             d="M 0,0 V -1.112 H -21.07 V 0 h 1.336 c 1.166,0 2.107,0.206 2.819,0.63 0.519,0.282 0.912,0.765 1.195,1.441 0.218,0.483 0.324,1.742 0.324,3.79 V 32.67 c 0,2.084 -0.106,3.39 -0.324,3.908 -0.218,0.524 -0.665,0.977 -1.324,1.371 -0.665,0.389 -1.56,0.583 -2.69,0.583 h -1.336 v 1.113 H 0 v -1.113 h -1.336 c -1.171,0 -2.113,-0.212 -2.825,-0.63 -0.512,-0.282 -0.918,-0.759 -1.218,-1.442 -0.218,-0.482 -0.33,-1.748 -0.33,-3.79 V 5.861 c 0,-2.089 0.118,-3.389 0.342,-3.908 C -5.138,1.43 -4.69,0.977 -4.025,0.588 -3.36,0.193 -2.466,0 -1.336,0 Z"
             style="fill:#ffffff;fill-opacity:1;fill-rule:nonzero;stroke:none"
             id="path2993" />
        </g>
        <g
           id="g2995"
           transform="translate(1102.3682,296.1592)">
          <path
             d="m 0,0 19.887,-25.278 v 17.52 c 0,2.448 -0.348,4.103 -1.042,4.962 -0.953,1.159 -2.548,1.725 -4.785,1.684 V 0 H 27.373 V -1.112 C 25.666,-1.33 24.524,-1.619 23.941,-1.966 23.354,-2.319 22.9,-2.891 22.57,-3.685 22.247,-4.474 22.082,-5.833 22.082,-7.758 v -33.93 h -1.013 l -27.256,33.93 v -25.907 c 0,-2.343 0.531,-3.926 1.59,-4.75 1.059,-0.824 2.278,-1.231 3.643,-1.231 H 0 v -1.112 h -14.296 v 1.112 c 2.219,0.018 3.761,0.478 4.638,1.384 0.871,0.901 1.306,2.431 1.306,4.597 v 28.768 l -0.865,1.083 c -0.847,1.077 -1.601,1.789 -2.255,2.13 -0.653,0.341 -1.594,0.53 -2.824,0.572 V 0 Z"
             style="fill:#ffffff;fill-opacity:1;fill-rule:nonzero;stroke:none"
             id="path2997" />
        </g>
        <g
           id="g2999"
           transform="translate(1147.6045,273.8555)">
          <path
             d="m 0,0 v -11.3 c 0,-2.207 0.135,-3.596 0.4,-4.161 0.265,-0.577 0.742,-1.03 1.43,-1.371 0.683,-0.342 1.937,-0.513 3.755,-0.513 v -1.112 h -20.476 v 1.112 c 1.86,0 3.125,0.177 3.79,0.531 0.665,0.346 1.13,0.805 1.396,1.365 0.27,0.559 0.399,1.942 0.399,4.149 v 26.449 c 0,2.202 -0.129,3.59 -0.399,4.162 -0.266,0.571 -0.736,1.03 -1.413,1.371 -0.671,0.341 -1.931,0.511 -3.773,0.511 V 22.3 H 2.672 c 5.791,0 9.94,-1.035 12.459,-3.124 2.514,-2.084 3.773,-4.686 3.773,-7.811 0,-2.648 -0.812,-4.915 -2.437,-6.798 C 14.843,2.685 12.601,1.401 9.746,0.725 7.827,0.241 4.579,0 0,0 M 0,19.958 V 2.349 C 0.653,2.308 1.147,2.283 1.489,2.283 c 2.412,0 4.279,0.731 5.585,2.179 1.307,1.453 1.96,3.701 1.96,6.75 0,3.025 -0.653,5.238 -1.96,6.645 -1.306,1.401 -3.261,2.101 -5.856,2.101 z"
             style="fill:#ffffff;fill-opacity:1;fill-rule:nonzero;stroke:none"
             id="path3001" />
        </g>
        <g
           id="g3003"
           transform="translate(1206.751,296.1592)">
          <path
             d="m 0,0 v -11.03 h -1.071 c -0.636,2.543 -1.336,4.373 -2.107,5.485 -0.777,1.112 -1.837,2.001 -3.184,2.66 -0.753,0.36 -2.072,0.542 -3.955,0.542 h -3.001 v -31.44 c 0,-2.09 0.117,-3.39 0.34,-3.908 0.23,-0.524 0.677,-0.977 1.342,-1.366 0.659,-0.394 1.572,-0.589 2.72,-0.589 h 1.336 v -1.112 h -21.106 v 1.112 h 1.342 c 1.165,0 2.107,0.207 2.82,0.63 0.517,0.283 0.923,0.766 1.217,1.443 0.218,0.482 0.33,1.742 0.33,3.79 v 31.44 h -2.914 c -2.713,0 -4.684,-0.583 -5.915,-1.742 -1.723,-1.624 -2.812,-3.943 -3.265,-6.945 h -1.13 V 0 Z"
             style="fill:#ffffff;fill-opacity:1;fill-rule:nonzero;stroke:none"
             id="path3005" />
        </g>
      </g>
    </g>
  </g>
</svg>
