<?xml version="1.0" encoding="UTF-8" standalone="no"?>
<!-- Created with Inkscape (http://www.inkscape.org/) -->

<svg
   version="1.1"
   id="svg2"
   width="710.81445"
   height="83.497223"
   viewBox="0 0 710.81446 83.497224"
   xml:space="preserve"
   sodipodi:docname="logo_entreprises_white_vectorized.svg"
   inkscape:version="1.4-rc1 (61ec3f243c, 2024-09-26)"
   xmlns:inkscape="http://www.inkscape.org/namespaces/inkscape"
   xmlns:sodipodi="http://sodipodi.sourceforge.net/DTD/sodipodi-0.dtd"
   xmlns="http://www.w3.org/2000/svg"
   xmlns:svg="http://www.w3.org/2000/svg"><sodipodi:namedview
     id="namedview1"
     pagecolor="#ffffff"
     bordercolor="#000000"
     borderopacity="0.25"
     inkscape:showpageshadow="2"
     inkscape:pageopacity="0.0"
     inkscape:pagecheckerboard="0"
     inkscape:deskcolor="#d1d1d1"
     inkscape:zoom="0.43893311"
     inkscape:cx="356.54635"
     inkscape:cy="42.147652"
     inkscape:window-width="1366"
     inkscape:window-height="731"
     inkscape:window-x="301"
     inkscape:window-y="0"
     inkscape:window-maximized="1"
     inkscape:current-layer="g10" /><defs
     id="defs6"><clipPath
       clipPathUnits="userSpaceOnUse"
       id="clipPath570"><path
         d="M 0,244.235 H 496.713 V 0 H 0 Z"
         id="path568" /></clipPath></defs><g
     id="g10"
     transform="matrix(1.3333333,0,0,-1.3333333,-8.3773334,324.79093)"><path
       d="M 6.283,243.59311 H 17.236302 V 180.97029 H 6.283 Z"
       style="fill:#ffffff;fill-opacity:1;fill-rule:nonzero;stroke:none;stroke-width:0.455306"
       id="path558" /><g
       id="g560"
       transform="matrix(0.45530624,0,0,0.45530624,22.074842,180.97038)"
       style="fill:#ffffff"><path
         d="M 0,0 V 137.54 H 23.334 L 72.93,44.896 V 137.54 H 95.205 V 0 H 71.117 L 22.265,90.736 V 0 Z"
         style="fill:#ffffff;fill-opacity:1;fill-rule:nonzero;stroke:none"
         id="path562" /></g><g
       id="g564"
       transform="matrix(0.45530624,0,0,0.45530624,3.4223109,132.68369)"
       style="fill:#ffffff"><g
         id="g566"
         clip-path="url(#clipPath570)"
         style="fill:#ffffff"><g
           id="g572"
           transform="translate(173.2038,220.401)"
           style="fill:#ffffff"><path
             d="m 0,0 v -39.311 h 13.263 c 9.552,0 15.95,0.713 19.157,2.17 3.228,1.446 5.732,3.699 7.577,6.801 1.834,3.092 2.746,6.687 2.746,10.774 0,5.04 -1.289,9.212 -3.847,12.492 -2.583,3.27 -5.816,5.313 -9.735,6.141 C 26.257,-0.304 20.441,0 11.701,0 Z m -24.041,-114.348 v 137.54 h 38.739 c 14.683,0 24.256,-0.692 28.715,-2.064 6.865,-2.065 12.602,-6.55 17.225,-13.467 4.605,-6.917 6.927,-15.857 6.927,-26.797 0,-8.447 -1.342,-15.553 -3.998,-21.317 -2.683,-5.754 -6.058,-10.281 -10.171,-13.561 -4.119,-3.281 -8.295,-5.46 -12.55,-6.519 -5.775,-1.32 -14.138,-1.98 -25.079,-1.98 H 0 v -51.835 z"
             style="fill:#ffffff;fill-opacity:1;fill-rule:nonzero;stroke:none"
             id="path574" /></g><g
           id="g576"
           transform="translate(274.9334,106.0532)"
           style="fill:#ffffff"><path
             d="m 0,0 v 114.348 h -33.268 c 0,0 -4.289,18.546 -19.737,23.192 H 61.651 L 88.042,114.348 H 24.057 V 0 Z"
             style="fill:#ffffff;fill-opacity:1;fill-rule:nonzero;stroke:none"
             id="path578" /></g></g></g><path
       style="font-weight:bold;font-size:63.5989px;font-family:'DejaVu Sans', 'Open Sans', 'Segoe UI', Helvetica;-inkscape-font-specification:'DejaVu Sans Bold';letter-spacing:-7.92519px;fill:#ffffff;stroke-width:2.38495"
       d="m 142.36826,-229.75641 h 32.26526 v 9.03676 H 154.3241 v 8.63305 h 19.09831 v 9.03676 H 154.3241 v 10.62052 h 20.99261 v 9.03676 h -32.94845 z m 35.51956,0 h 13.35329 l 16.8624,31.79945 v -31.79945 h 11.33476 v 46.36385 h -13.35328 l -16.8624,-31.79945 v 31.79945 h -11.33477 z m 39.77399,0 h 42.73051 v 9.03676 h -15.37181 v 37.32709 h -11.95584 v -37.32709 h -15.40286 z m 57.97171,20.55785 q 3.75756,0 5.37237,-1.39744 1.64587,-1.39744 1.64587,-4.59601 0,-3.16753 -1.64587,-4.53391 -1.61481,-1.36638 -5.37237,-1.36638 h -5.03077 v 11.89374 z m -5.03077,8.2604 v 17.5456 H 258.6469 v -46.36385 h 18.25984 q 9.16098,0 13.4154,3.07436 4.28547,3.07436 4.28547,9.71995 0,4.59601 -2.2359,7.54616 -2.20484,2.95014 -6.67664,4.34758 2.45328,0.55897 4.37863,2.54644 1.95642,1.95641 3.94388,5.9624 l 6.49032,13.16696 h -12.7322 l -5.65186,-11.52109 q -1.70798,-3.47807 -3.47806,-4.75129 -1.73904,-1.27322 -4.65813,-1.27322 z m 29.09136,-28.81825 h 32.26526 v 9.03676 h -20.30942 v 8.63305 h 19.09831 v 9.03676 h -19.09831 v 10.62052 h 20.99261 v 9.03676 h -32.94845 z m 35.51957,0 h 19.84361 q 8.85043,0 13.57066,3.94388 4.75128,3.91282 4.75128,11.17949 0,7.29773 -4.75128,11.2416 -4.72023,3.91283 -13.57066,3.91283 h -7.88776 v 16.08605 h -11.95585 z m 11.95585,8.66411 v 12.94958 h 6.61454 q 3.47806,0 5.37236,-1.67692 1.89431,-1.70798 1.89431,-4.8134 0,-3.10541 -1.89431,-4.78234 -1.8943,-1.67692 -5.37236,-1.67692 z m 43.71785,11.89374 q 3.75755,0 5.37236,-1.39744 1.64587,-1.39744 1.64587,-4.59601 0,-3.16753 -1.64587,-4.53391 -1.61481,-1.36638 -5.37236,-1.36638 h -5.03078 v 11.89374 z m -5.03078,8.2604 v 17.5456 h -11.95584 v -46.36385 h 18.25984 q 9.16097,0 13.41539,3.07436 4.28547,3.07436 4.28547,9.71995 0,4.59601 -2.2359,7.54616 -2.20484,2.95014 -6.67664,4.34758 2.45328,0.55897 4.37864,2.54644 1.95641,1.95641 3.94387,5.9624 l 6.49032,13.16696 h -12.7322 l -5.65186,-11.52109 q -1.70797,-3.47807 -3.47806,-4.75129 -1.73903,-1.27322 -4.65812,-1.27322 z m 29.09137,-28.81825 h 11.95585 v 46.36385 h -11.95585 z m 48.00333,1.45955 v 9.81311 q -3.81966,-1.70798 -7.453,-2.5775 -3.63333,-0.86951 -6.86297,-0.86951 -4.28547,0 -6.33504,1.18005 -2.04958,1.18006 -2.04958,3.66439 0,1.86325 1.36639,2.91909 1.39743,1.02479 5.03077,1.77009 l 5.09288,1.02479 q 7.73248,1.55271 10.99317,4.72023 3.26068,3.16752 3.26068,9.0057 0,7.67038 -4.56496,11.42793 -4.5339,3.7265 -13.8812,3.7265 -4.40969,0 -8.85043,-0.83846 -4.44075,-0.83847 -8.88149,-2.48434 v -10.0926 q 4.44074,2.36012 8.57094,3.57123 4.16126,1.18006 8.01197,1.18006 3.91283,0 5.99346,-1.30427 2.08062,-1.30428 2.08062,-3.7265 0,-2.17379 -1.42849,-3.35385 -1.39743,-1.18006 -5.6208,-2.11168 l -4.62707,-1.02479 q -6.95613,-1.4906 -10.18576,-4.75129 -3.19858,-3.26068 -3.19858,-8.78832 0,-6.92508 4.4718,-10.65157 4.4718,-3.7265 12.85642,-3.7265 3.81966,0 7.8567,0.59003 4.03704,0.55897 8.35357,1.70798 z m 5.61443,-1.45955 H 500.831 v 9.03676 h -20.30942 v 8.63305 h 19.0983 v 9.03676 h -19.0983 v 10.62052 h 20.99261 v 9.03676 h -32.94846 z m 67.78483,1.45955 v 9.81311 q -3.81966,-1.70798 -7.453,-2.5775 -3.63333,-0.86951 -6.86296,-0.86951 -4.28548,0 -6.33505,1.18005 -2.04958,1.18006 -2.04958,3.66439 0,1.86325 1.36639,2.91909 1.39743,1.02479 5.03077,1.77009 l 5.09288,1.02479 q 7.73248,1.55271 10.99317,4.72023 3.26069,3.16752 3.26069,9.0057 0,7.67038 -4.56496,11.42793 -4.53391,3.7265 -13.88121,3.7265 -4.40969,0 -8.85043,-0.83846 -4.44075,-0.83847 -8.88149,-2.48434 v -10.0926 q 4.44074,2.36012 8.57095,3.57123 4.16125,1.18006 8.01197,1.18006 3.91282,0 5.99345,-1.30427 2.08063,-1.30428 2.08063,-3.7265 0,-2.17379 -1.4285,-3.35385 -1.39743,-1.18006 -5.6208,-2.11168 l -4.62707,-1.02479 q -6.95612,-1.4906 -10.18576,-4.75129 -3.19857,-3.26068 -3.19857,-8.78832 0,-6.92508 4.47179,-10.65157 4.4718,-3.7265 12.85642,-3.7265 3.81966,0 7.8567,0.59003 4.03704,0.55897 8.35357,1.70798 z"
       id="text3193"
       transform="scale(1,-1)"
       aria-label="ENTREPRISES" /></g></svg>
