<?xml version="1.0" encoding="UTF-8" standalone="no"?>
<!-- Created with Inkscape (http://www.inkscape.org/) -->

<svg
   version="1.1"
   id="svg2"
   width="1718.7693"
   height="845.12396"
   viewBox="0 0 1718.7693 845.12396"
   sodipodi:docname="logo-white.svg"
   inkscape:version="1.2 (dc2aedaf03, 2022-05-15)"
   xmlns:inkscape="http://www.inkscape.org/namespaces/inkscape"
   xmlns:sodipodi="http://sodipodi.sourceforge.net/DTD/sodipodi-0.dtd"
   xmlns="http://www.w3.org/2000/svg"
   xmlns:svg="http://www.w3.org/2000/svg">
  <defs
     id="defs6">
    <clipPath
       clipPathUnits="userSpaceOnUse"
       id="clipPath110">
      <path
         d="M 39,60.578 H 1328.079 V 694.421 H 39 Z"
         id="path108" />
    </clipPath>
    <clipPath
       clipPathUnits="userSpaceOnUse"
       id="clipPath582">
      <path
         d="M 925.596,694.422 H 1326.31 V 337.288 H 925.596 Z"
         id="path580" />
    </clipPath>
    <clipPath
       clipPathUnits="userSpaceOnUse"
       id="clipPath586">
      <path
         d="m 925.597,337.288 h 400.715 V 694.421 H 925.597 Z"
         id="path584" />
    </clipPath>
    <clipPath
       clipPathUnits="userSpaceOnUse"
       id="clipPath606">
      <path
         d="M 924.833,605.554 H 1226.55 V 336.647 H 924.833 Z"
         id="path604" />
    </clipPath>
    <clipPath
       clipPathUnits="userSpaceOnUse"
       id="clipPath610">
      <path
         d="m 924.834,336.647 h 301.72 v 268.906 h -301.72 z"
         id="path608" />
    </clipPath>
    <clipPath
       clipPathUnits="userSpaceOnUse"
       id="clipPath630">
      <path
         d="M 924.869,516.07 H 1125.94 V 336.865 H 924.869 Z"
         id="path628" />
    </clipPath>
    <clipPath
       clipPathUnits="userSpaceOnUse"
       id="clipPath634">
      <path
         d="m 924.87,336.865 h 201.069 V 516.07 H 924.87 Z"
         id="path632" />
    </clipPath>
  </defs>
  <sodipodi:namedview
     id="namedview4"
     pagecolor="#ffffff"
     bordercolor="#000000"
     borderopacity="0.25"
     inkscape:showpageshadow="2"
     inkscape:pageopacity="0.0"
     inkscape:pagecheckerboard="0"
     inkscape:deskcolor="#d1d1d1"
     showgrid="false"
     inkscape:zoom="0.35616077"
     inkscape:cx="327.09947"
     inkscape:cy="356.58054"
     inkscape:window-width="1600"
     inkscape:window-height="831"
     inkscape:window-x="0"
     inkscape:window-y="0"
     inkscape:window-maximized="1"
     inkscape:current-layer="g98" />
  <g
     id="g98"
     inkscape:groupmode="layer"
     inkscape:label="Page 2"
     transform="matrix(1.3333333,0,0,-1.3333333,-51.999902,925.89465)">
    <path
       d="M 0,0 H 1366 V 768 H 0 Z"
       style="display:none;fill:#333333;fill-opacity:1;fill-rule:nonzero;stroke:none"
       id="path100" />
    <path
       d="m 44.427,61.043 h 6.836 v 33.361 h -6.836 z"
       style="fill:#0081c6;fill-opacity:1;fill-rule:nonzero;stroke:none"
       id="path102" />
    <g
       id="g104">
      <g
         id="g106"
         clip-path="url(#clipPath110)">
        <g
           id="g112"
           transform="translate(76.9404,61.0703)">
          <path
             d="m 0,0 v 14.027 c 0,2.108 -0.479,3.639 -1.354,4.568 -0.917,0.958 -2.448,1.451 -4.469,1.451 -0.987,0 -2.037,-0.249 -3.119,-0.714 -1.109,-0.49 -1.94,-1.038 -2.541,-1.775 V 0 h -6.605 v 24.31 h 4.798 l 1.15,-2.214 c 1.804,1.775 4.427,2.65 7.903,2.65 3.347,0 5.987,-0.875 7.943,-2.598 1.939,-1.72 2.897,-4.1 2.897,-7.246 L 6.603,0 Z"
             style="fill:#ffffff;fill-opacity:1;fill-rule:nonzero;stroke:none"
             id="path114" />
        </g>
        <g
           id="g116"
           transform="translate(88.8623,62.6016)">
          <path
             d="M 0,0 2.31,4.511 C 4.334,3.174 6.521,2.489 9.023,2.489 c 2.557,0 3.857,0.794 3.857,2.351 0,0.958 -0.41,1.723 -1.191,2.297 -0.752,0.576 -2.294,1.285 -4.51,2.079 -4.869,1.752 -7.262,4.183 -7.262,7.354 0,2.105 0.891,3.719 2.79,4.924 1.858,1.15 4.225,1.72 7.152,1.72 2.883,0 5.632,-0.57 8.243,-1.692 L 16.16,17.118 c -1.38,1.067 -3.418,1.586 -5.989,1.586 -2.323,0 -3.415,-0.794 -3.415,-2.351 0,-0.628 0.355,-1.15 1.092,-1.698 0.779,-0.462 2.378,-1.176 4.894,-2.021 2.406,-0.849 4.226,-1.832 5.292,-3.036 1.121,-1.202 1.682,-2.651 1.682,-4.373 0,-2.246 -1.026,-3.993 -2.925,-5.305 -1.97,-1.285 -4.567,-1.941 -7.943,-1.941 -1.89,0 -3.365,0.109 -4.486,0.381 C 3.213,-1.342 1.765,-0.846 0,0"
             style="fill:#ffffff;fill-opacity:1;fill-rule:nonzero;stroke:none"
             id="path118" />
        </g>
        <g
           id="g120"
           transform="translate(114.8545,80.8135)">
          <path
             d="M 0,0 H -3.31 V 4.567 H 0 v 4.978 l 6.576,2.102 v -7.08 h 7.697 V 0 H 6.576 v -10.664 c 0,-1.749 0.314,-2.982 0.932,-3.719 0.64,-0.684 1.749,-1.066 3.319,-1.066 1.601,0 3.024,0.382 4.43,1.147 v -5.251 c -1.531,-0.435 -3.691,-0.681 -6.548,-0.681 -2.803,0 -4.965,0.681 -6.482,2.049 C 0.752,-16.791 0,-14.85 0,-12.304 Z"
             style="fill:#ffffff;fill-opacity:1;fill-rule:nonzero;stroke:none"
             id="path122" />
        </g>
        <g
           id="g124"
           transform="translate(140.2979,94.8691)">
          <path
             d="M 0,0 C 1.067,0 1.968,-0.329 2.735,-0.957 3.446,-1.585 3.841,-2.38 3.841,-3.282 3.841,-4.24 3.446,-4.978 2.735,-5.605 1.968,-6.262 1.067,-6.592 0,-6.592 c -1.038,0 -1.928,0.33 -2.707,0.987 -0.739,0.627 -1.134,1.365 -1.134,2.323 0,0.902 0.395,1.697 1.134,2.325 C -1.928,-0.329 -1.038,0 0,0 m -3.418,-33.797 v 19.713 h -3.609 v 4.597 H 3.239 v -24.31 z"
             style="fill:#ffffff;fill-opacity:1;fill-rule:nonzero;stroke:none"
             id="path126" />
        </g>
        <g
           id="g128"
           transform="translate(152.2061,80.8135)">
          <path
             d="M 0,0 H -3.28 V 4.567 H 0 v 4.978 l 6.617,2.102 v -7.08 h 7.724 V 0 H 6.617 v -10.664 c 0,-1.749 0.288,-2.982 0.945,-3.719 0.602,-0.684 1.679,-1.066 3.281,-1.066 1.611,0 3.091,0.382 4.469,1.147 v -5.251 c -1.573,-0.435 -3.704,-0.681 -6.561,-0.681 -2.803,0 -4.949,0.681 -6.426,2.049 C 0.781,-16.791 0,-14.85 0,-12.304 Z"
             style="fill:#ffffff;fill-opacity:1;fill-rule:nonzero;stroke:none"
             id="path130" />
        </g>
        <g
           id="g132"
           transform="translate(197.1885,61.0703)">
          <path
             d="M 0,0 V 24.31 H -6.592 V 7.547 C -6.986,6.67 -7.848,5.904 -9.106,5.251 c -1.298,-0.683 -2.681,-1.013 -4.142,-1.013 -3.188,0 -4.856,1.558 -4.856,4.677 V 24.31 h -6.574 V 8.531 c 0,-6.042 3.252,-9.021 9.789,-9.021 1.339,0 2.886,0.27 4.485,0.737 1.586,0.49 2.912,1.118 3.812,1.804 V 0 Z"
             style="fill:#ffffff;fill-opacity:1;fill-rule:nonzero;stroke:none"
             id="path134" />
        </g>
        <g
           id="g136"
           transform="translate(205.3506,68.5088)">
          <path
             d="m 0,0 c 0,-2.543 0.753,-4.486 2.271,-5.881 1.474,-1.367 3.662,-2.05 6.439,-2.05 2.883,0 5.029,0.247 6.548,0.683 v 5.25 c -1.339,-0.763 -2.858,-1.148 -4.402,-1.148 -1.614,0 -2.668,0.385 -3.309,1.068 -0.628,0.736 -0.957,1.97 -0.957,3.719 v 10.664 h 7.684 v 4.567 H 6.59 v 7.079 L 0,21.85 V 16.872 H -3.309 V 12.305 H 0 Z"
             style="fill:#ffffff;fill-opacity:1;fill-rule:nonzero;stroke:none"
             id="path138" />
        </g>
        <g
           id="g140"
           transform="translate(267.4775,60.5791)">
          <path
             d="M 0,0 -18.637,21.138 V 0.49 h -6.601 v 33.333 h 3.308 L -3.731,13.674 V 33.823 H 2.815 V 0 Z"
             style="fill:#ffffff;fill-opacity:1;fill-rule:nonzero;stroke:none"
             id="path142" />
        </g>
        <g
           id="g144"
           transform="translate(292.7988,72.501)">
          <path
             d="m 0,0 c -1.134,0.189 -1.97,0.327 -2.557,0.327 -5.14,0 -7.725,-1.503 -7.725,-4.428 0,-2.187 1.448,-3.308 4.376,-3.308 3.936,0 5.906,1.694 5.906,5.112 z m 0.644,-9.05 c -0.589,-0.822 -1.643,-1.533 -3.104,-2.078 -1.547,-0.522 -3.053,-0.795 -4.664,-0.795 -3.049,0 -5.427,0.683 -7.163,1.942 -1.735,1.313 -2.6,3.2 -2.6,5.631 0,2.79 1.233,5.006 3.638,6.592 2.447,1.586 5.948,2.405 10.418,2.405 0.778,0 1.655,-0.108 2.681,-0.326 0,2.844 -2.038,4.292 -6.221,4.292 -2.463,0 -4.526,-0.329 -6.221,-1.038 l -1.381,4.373 c 2.24,0.904 4.937,1.368 8.067,1.368 4.279,0 7.437,-0.846 9.446,-2.515 1.97,-1.666 2.966,-4.92 2.966,-9.625 v -5.167 c 0,-3.229 0.765,-5.334 2.271,-6.099 -0.519,-0.792 -1.175,-1.34 -1.803,-1.531 -0.658,-0.219 -1.464,-0.302 -2.285,-0.302 -0.944,0 -1.791,0.302 -2.527,0.903 -0.726,0.628 -1.274,1.314 -1.518,1.97"
             style="fill:#ffffff;fill-opacity:1;fill-rule:nonzero;stroke:none"
             id="path146" />
        </g>
        <g
           id="g148"
           transform="translate(307.4678,80.8135)">
          <path
             d="M 0,0 H -3.307 V 4.567 H 0 v 4.978 l 6.604,2.102 v -7.08 h 7.724 V 0 H 6.604 v -10.664 c 0,-1.749 0.287,-2.982 0.958,-3.719 0.603,-0.684 1.721,-1.066 3.281,-1.066 1.614,0 3.05,0.382 4.388,1.147 v -5.251 c -1.489,-0.435 -3.677,-0.681 -6.48,-0.681 -2.829,0 -4.965,0.681 -6.467,2.049 C 0.766,-16.791 0,-14.85 0,-12.304 Z"
             style="fill:#ffffff;fill-opacity:1;fill-rule:nonzero;stroke:none"
             id="path150" />
        </g>
        <g
           id="g152"
           transform="translate(332.9268,94.8691)">
          <path
             d="M 0,0 C 1.052,0 1.968,-0.329 2.707,-0.957 3.46,-1.585 3.842,-2.38 3.842,-3.282 3.842,-4.24 3.46,-4.978 2.707,-5.605 1.968,-6.262 1.052,-6.592 0,-6.592 c -1.024,0 -1.943,0.33 -2.693,0.987 -0.711,0.627 -1.109,1.365 -1.109,2.323 0,0.902 0.398,1.697 1.109,2.325 C -1.943,-0.329 -1.024,0 0,0 m -3.35,-33.797 v 19.713 h -3.626 v 4.597 H 3.268 v -24.31 z"
             style="fill:#ffffff;fill-opacity:1;fill-rule:nonzero;stroke:none"
             id="path154" />
        </g>
        <g
           id="g156"
           transform="translate(348.7725,73.2666)">
          <path
             d="m 0,0 c 0,-5.359 2.271,-8.012 6.727,-8.012 2.037,0 3.638,0.711 4.839,2.108 1.202,1.307 1.804,3.335 1.804,5.904 0,5.275 -2.239,7.902 -6.643,7.902 C 4.66,7.902 3.033,7.22 1.845,5.852 0.63,4.43 0,2.488 0,0 m -6.811,0 c 0,3.721 1.247,6.7 3.722,9.049 2.46,2.328 5.728,3.501 9.816,3.501 4.211,0 7.587,-1.121 9.926,-3.363 2.393,-2.24 3.581,-5.305 3.581,-9.187 0,-3.911 -1.258,-6.945 -3.635,-9.244 -2.393,-2.323 -5.703,-3.444 -9.872,-3.444 -4.306,0 -7.602,1.149 -9.966,3.5 -2.38,2.269 -3.572,5.334 -3.572,9.188"
             style="fill:#ffffff;fill-opacity:1;fill-rule:nonzero;stroke:none"
             id="path158" />
        </g>
        <g
           id="g160"
           transform="translate(392.3457,61.0703)">
          <path
             d="m 0,0 v 14.027 c 0,2.108 -0.451,3.639 -1.352,4.568 -0.958,0.958 -2.434,1.451 -4.459,1.451 -1.025,0 -2.024,-0.249 -3.129,-0.714 -1.095,-0.49 -1.928,-1.038 -2.531,-1.775 V 0 h -6.618 v 24.31 h 4.705 l 1.257,-2.214 c 1.777,1.775 4.404,2.65 7.874,2.65 3.337,0 6.044,-0.875 7.943,-2.598 1.945,-1.72 2.9,-4.1 2.9,-7.246 V 0 Z"
             style="fill:#ffffff;fill-opacity:1;fill-rule:nonzero;stroke:none"
             id="path162" />
        </g>
        <g
           id="g164"
           transform="translate(421.0439,72.501)">
          <path
             d="m 0,0 c -1.121,0.189 -1.941,0.327 -2.515,0.327 -5.128,0 -7.764,-1.503 -7.764,-4.428 0,-2.187 1.448,-3.308 4.385,-3.308 3.953,0 5.894,1.694 5.894,5.112 z m 0.686,-9.05 c -0.631,-0.822 -1.685,-1.533 -3.118,-2.078 -1.479,-0.522 -3.023,-0.795 -4.692,-0.795 -3.047,0 -5.426,0.683 -7.137,1.942 -1.761,1.313 -2.585,3.2 -2.585,5.631 0,2.79 1.22,5.006 3.639,6.592 2.435,1.586 5.907,2.405 10.417,2.405 0.781,0 1.628,-0.108 2.723,-0.326 0,2.844 -2.121,4.292 -6.276,4.292 -2.488,0 -4.539,-0.329 -6.22,-1.038 l -1.41,4.373 c 2.285,0.904 4.923,1.368 8.079,1.368 4.254,0 7.425,-0.846 9.421,-2.515 1.995,-1.666 3.008,-4.92 3.008,-9.625 v -5.167 c 0,-3.229 0.724,-5.334 2.271,-6.099 -0.561,-0.792 -1.134,-1.34 -1.807,-1.531 -0.653,-0.219 -1.435,-0.302 -2.322,-0.302 -0.932,0 -1.765,0.302 -2.489,0.903 -0.781,0.628 -1.258,1.314 -1.502,1.97"
             style="fill:#ffffff;fill-opacity:1;fill-rule:nonzero;stroke:none"
             id="path166" />
        </g>
        <g
           id="g168"
           transform="translate(435.7002,94.459)">
          <path
             d="m 0,0 6.631,1.394 v -27.401 c 0,-2.951 1.027,-4.757 3.078,-5.331 -1.041,-1.749 -2.79,-2.543 -5.225,-2.543 -2.978,0 -4.484,1.807 -4.484,5.388 z"
             style="fill:#ffffff;fill-opacity:1;fill-rule:nonzero;stroke:none"
             id="path170" />
        </g>
        <g
           id="g172"
           transform="translate(484.8398,79.582)">
          <path
             d="m 0,0 c -1.383,0.957 -2.815,1.45 -4.362,1.45 -2.653,0 -4.607,-0.684 -6.083,-2.078 -1.342,-1.423 -2.025,-3.363 -2.025,-5.987 0,-5.061 2.748,-7.605 8.382,-7.605 0.615,0 1.381,0.166 2.339,0.523 0.9,0.329 1.503,0.679 1.749,0.983 z m 0,-18.512 v 1.45 c -0.548,-0.495 -1.437,-0.902 -2.79,-1.34 -1.231,-0.41 -2.559,-0.6 -3.966,-0.6 -3.882,0 -7.027,1.066 -9.296,3.197 -2.187,2.188 -3.308,5.169 -3.308,9.026 0,3.826 1.326,6.971 3.869,9.405 2.569,2.406 5.769,3.607 9.68,3.607 2.118,0 4.087,-0.352 5.811,-1.118 v 9.761 l 6.615,1.395 v -34.783 z"
             style="fill:#ffffff;fill-opacity:1;fill-rule:nonzero;stroke:none"
             id="path174" />
        </g>
        <g
           id="g176"
           transform="translate(503.2158,75.6719)">
          <path
             d="M 0,0 H 13.837 C 13.37,3.638 11.115,5.444 7.015,5.444 3.267,5.444 0.929,3.638 0,0 M 19.892,-4.267 H -0.247 c 0.148,-1.884 0.93,-3.444 2.351,-4.51 1.422,-1.038 3.351,-1.586 5.785,-1.586 2.951,0 5.235,0.656 6.766,2.052 l 2.559,-4.377 c -2.313,-1.612 -5.756,-2.404 -10.337,-2.404 -4.308,0 -7.697,1.067 -10.187,3.252 -2.514,2.162 -3.759,5.195 -3.759,9.105 0,3.858 1.409,6.921 4.087,9.327 2.774,2.38 6.07,3.553 9.914,3.553 4.087,0 7.326,-1.039 9.817,-3.169 2.474,-2.108 3.703,-4.787 3.703,-8.069 0,-0.685 -0.163,-1.752 -0.56,-3.174"
             style="fill:#ffffff;fill-opacity:1;fill-rule:nonzero;stroke:none"
             id="path178" />
        </g>
        <g
           id="g180"
           transform="translate(531.5439,60.9619)">
          <path
             d="m 0,0 c 1.092,-0.272 2.585,-0.382 4.484,-0.382 3.335,0 5.961,0.654 7.903,1.942 1.941,1.31 2.937,3.059 2.937,5.304 0,1.723 -0.557,3.171 -1.624,4.373 -1.108,1.204 -2.899,2.188 -5.346,3.036 -2.531,0.846 -4.087,1.56 -4.853,2.022 -0.766,0.548 -1.096,1.067 -1.096,1.697 0,1.558 1.134,2.352 3.418,2.352 2.543,0 4.581,-0.52 6.016,-1.586 l 1.861,4.404 c -2.585,1.118 -5.334,1.692 -8.287,1.692 -2.857,0 -5.222,-0.574 -7.095,-1.72 -1.833,-1.204 -2.774,-2.819 -2.774,-4.923 0,-3.172 2.419,-5.607 7.287,-7.356 C 5.032,10.062 6.589,9.353 7.3,8.776 8.12,8.203 8.533,7.437 8.533,6.48 8.533,4.92 7.204,4.129 4.647,4.129 2.161,4.129 -0.026,4.812 -2.037,6.15 L -4.376,1.64 C -2.572,0.794 -1.108,0.298 0,0"
             style="fill:#ffffff;fill-opacity:1;fill-rule:nonzero;stroke:none"
             id="path182" />
        </g>
        <g
           id="g184"
           transform="translate(575.5273,89.2637)">
          <path
             d="m 0,0 v -10.721 c 1.204,-0.137 2.091,-0.161 2.748,-0.161 3.132,0 5.413,0.462 6.822,1.394 1.477,0.874 2.23,2.351 2.23,4.349 0,3.553 -3.268,5.277 -9.709,5.277 C 1.354,0.138 0.711,0.055 0,0 M 0,-15.917 V -28.192 H -6.836 V 5.115 c 4.552,0.16 7.274,0.218 8.04,0.218 6.057,0 10.541,-0.794 13.303,-2.435 2.845,-1.614 4.254,-4.102 4.254,-7.546 0,-7.627 -5.186,-11.458 -15.657,-11.458 -0.779,0 -1.779,0.081 -3.104,0.189"
             style="fill:#ffffff;fill-opacity:1;fill-rule:nonzero;stroke:none"
             id="path186" />
        </g>
        <g
           id="g188"
           transform="translate(602.3525,73.2666)">
          <path
             d="m 0,0 c 0,-5.359 2.229,-8.012 6.687,-8.012 2.009,0 3.678,0.711 4.867,2.108 1.175,1.307 1.79,3.335 1.79,5.904 0,5.275 -2.229,7.902 -6.657,7.902 C 4.635,7.902 3.008,7.22 1.803,5.852 0.573,4.43 0,2.488 0,0 m -6.85,0 c 0,3.721 1.257,6.7 3.72,9.049 2.515,2.328 5.743,3.501 9.817,3.501 4.291,0 7.586,-1.121 9.937,-3.363 2.367,-2.24 3.53,-5.305 3.53,-9.187 0,-3.911 -1.163,-6.945 -3.555,-9.244 -2.422,-2.323 -5.744,-3.444 -9.912,-3.444 -4.294,0 -7.59,1.149 -9.983,3.5 C -5.647,-6.919 -6.85,-3.854 -6.85,0"
             style="fill:#ffffff;fill-opacity:1;fill-rule:nonzero;stroke:none"
             id="path190" />
        </g>
        <g
           id="g192"
           transform="translate(630.3672,60.9619)">
          <path
             d="m 0,0 c 1.176,-0.272 2.665,-0.382 4.552,-0.382 3.322,0 5.99,0.654 7.889,1.942 1.887,1.31 2.925,3.059 2.925,5.304 0,1.723 -0.56,3.171 -1.611,4.373 -1.121,1.204 -2.9,2.188 -5.362,3.036 -2.499,0.846 -4.114,1.56 -4.837,2.022 -0.769,0.548 -1.176,1.067 -1.176,1.697 0,1.558 1.188,2.352 3.459,2.352 2.583,0 4.581,-0.52 6.001,-1.586 l 1.915,4.404 c -2.572,1.118 -5.333,1.692 -8.258,1.692 -2.899,0 -5.266,-0.574 -7.124,-1.72 -1.832,-1.204 -2.774,-2.819 -2.774,-4.923 0,-3.172 2.377,-5.607 7.299,-7.356 C 5.087,10.062 6.603,9.353 7.326,8.776 8.175,8.203 8.572,7.437 8.572,6.48 8.572,4.92 7.218,4.129 4.731,4.129 2.188,4.129 0,4.812 -2.024,6.15 L -4.347,1.64 C -2.585,0.794 -1.121,0.298 0,0"
             style="fill:#ffffff;fill-opacity:1;fill-rule:nonzero;stroke:none"
             id="path194" />
        </g>
        <g
           id="g196"
           transform="translate(652.0234,80.8135)">
          <path
             d="M 0,0 H -3.322 V 4.567 H 0 v 4.978 l 6.604,2.102 v -7.08 h 7.669 V 0 H 6.604 v -10.664 c 0,-1.749 0.287,-2.982 0.943,-3.719 0.602,-0.684 1.682,-1.066 3.267,-1.066 1.602,0 3.049,0.382 4.444,1.147 v -5.251 c -1.529,-0.435 -3.72,-0.681 -6.577,-0.681 -2.774,0 -4.933,0.681 -6.452,2.049 C 0.725,-16.791 0,-14.85 0,-12.304 Z"
             style="fill:#ffffff;fill-opacity:1;fill-rule:nonzero;stroke:none"
             id="path198" />
        </g>
        <g
           id="g200"
           transform="translate(677.5371,75.6719)">
          <path
             d="M 0,0 H 13.794 C 13.345,3.638 11.046,5.444 6.958,5.444 3.227,5.444 0.916,3.638 0,0 M 19.825,-4.267 H -0.262 c 0.124,-1.884 0.89,-3.444 2.299,-4.51 1.448,-1.038 3.377,-1.586 5.77,-1.586 2.966,0 5.276,0.656 6.836,2.052 l 2.502,-4.377 c -2.326,-1.612 -5.742,-2.404 -10.334,-2.404 -4.283,0 -7.66,1.067 -10.203,3.252 -2.46,2.162 -3.732,5.195 -3.732,9.105 0,3.858 1.407,6.921 4.145,9.327 2.758,2.38 6,3.553 9.812,3.553 4.132,0 7.387,-1.039 9.847,-3.169 2.473,-2.108 3.703,-4.787 3.703,-8.069 0,-0.685 -0.205,-1.752 -0.558,-3.174"
             style="fill:#ffffff;fill-opacity:1;fill-rule:nonzero;stroke:none"
             id="path202" />
        </g>
        <g
           id="g204"
           transform="translate(705.8105,60.9619)">
          <path
             d="m 0,0 c 1.108,-0.272 2.585,-0.382 4.485,-0.382 3.35,0 6.002,0.654 7.928,1.942 1.902,1.31 2.912,3.059 2.912,5.304 0,1.723 -0.56,3.171 -1.666,4.373 -1.066,1.204 -2.831,2.188 -5.346,3.036 -2.448,0.846 -4.046,1.56 -4.789,2.022 -0.765,0.548 -1.172,1.067 -1.172,1.697 0,1.558 1.172,2.352 3.485,2.352 2.53,0 4.555,-0.52 6.003,-1.586 l 1.858,4.404 c -2.583,1.118 -5.331,1.692 -8.229,1.692 -2.912,0 -5.305,-0.574 -7.163,-1.72 -1.861,-1.204 -2.748,-2.819 -2.748,-4.923 0,-3.172 2.46,-5.607 7.271,-7.356 C 5.03,10.062 6.538,9.353 7.355,8.776 8.079,8.203 8.518,7.437 8.518,6.48 c 0,-1.56 -1.3,-2.351 -3.912,-2.351 -2.447,0 -4.689,0.683 -6.588,2.021 L -4.401,1.64 C -2.569,0.794 -1.175,0.298 0,0"
             style="fill:#ffffff;fill-opacity:1;fill-rule:nonzero;stroke:none"
             id="path206" />
        </g>
        <g
           id="g208"
           transform="translate(747.7979,75.6719)">
          <path
             d="M 0,0 H 13.822 C 13.371,3.638 11.103,5.444 7,5.444 3.242,5.444 0.917,3.638 0,0 m 19.867,-4.267 h -20.1 c 0.096,-1.884 0.903,-3.444 2.312,-4.51 1.406,-1.038 3.335,-1.586 5.756,-1.586 3.021,0 5.251,0.656 6.836,2.052 l 2.515,-4.377 c -2.296,-1.612 -5.744,-2.404 -10.322,-2.404 -4.307,0 -7.725,1.067 -10.243,3.252 -2.46,2.162 -3.69,5.195 -3.69,9.105 0,3.858 1.368,6.921 4.129,9.327 2.707,2.38 5.99,3.553 9.804,3.553 4.127,0 7.368,-1.039 9.899,-3.169 2.431,-2.108 3.635,-4.787 3.635,-8.069 0,-0.685 -0.095,-1.752 -0.531,-3.174"
             style="fill:#ffffff;fill-opacity:1;fill-rule:nonzero;stroke:none"
             id="path210" />
        </g>
        <g
           id="g212"
           transform="translate(774.5283,68.5088)">
          <path
             d="m 0,0 c 0,-2.543 0.766,-4.486 2.284,-5.881 1.502,-1.367 3.661,-2.05 6.493,-2.05 2.816,0 4.991,0.247 6.561,0.683 v 5.25 c -1.422,-0.763 -2.912,-1.148 -4.495,-1.148 -1.547,0 -2.655,0.385 -3.299,1.068 -0.653,0.736 -0.954,1.97 -0.954,3.719 v 10.664 h 7.738 v 4.567 H 6.59 v 7.079 L 0,21.85 V 16.872 H -3.283 V 12.305 H 0 Z"
             style="fill:#ffffff;fill-opacity:1;fill-rule:nonzero;stroke:none"
             id="path214" />
        </g>
        <g
           id="g216"
           transform="translate(838.9248,89.127)">
          <path
             d="M 0,0 V 5.275 H -31.872 V 0 h 12.266 v -28.058 h 6.861 V 0 Z"
             style="fill:#ffffff;fill-opacity:1;fill-rule:nonzero;stroke:none"
             id="path218" />
        </g>
        <g
           id="g220"
           transform="translate(856.5869,95.3613)">
          <path
             d="M 0,0 -4.456,-6.673 H 0.548 L 6.512,0 Z m -1.339,-14.245 c 4.062,0 6.346,-1.807 6.797,-5.445 H -8.338 c 0.874,3.638 3.21,5.445 6.999,5.445 m 13.373,-6.538 c 0,3.283 -1.232,5.962 -3.678,8.069 -2.501,2.13 -5.729,3.168 -9.83,3.168 -3.872,0 -7.136,-1.173 -9.872,-3.553 -2.707,-2.405 -4.132,-5.467 -4.132,-9.327 0,-3.905 1.259,-6.942 3.777,-9.101 2.514,-2.188 5.932,-3.254 10.199,-3.254 4.567,0 8.04,0.791 10.35,2.403 L 6.263,-28 c -1.571,-1.396 -3.828,-2.053 -6.824,-2.053 -2.418,0 -4.292,0.548 -5.711,1.586 -1.41,1.067 -2.175,2.626 -2.338,4.513 h 20.135 c 0.343,1.42 0.509,2.489 0.509,3.171"
             style="fill:#ffffff;fill-opacity:1;fill-rule:nonzero;stroke:none"
             id="path222" />
        </g>
        <g
           id="g224"
           transform="translate(874.9766,94.459)">
          <path
             d="m 0,0 6.576,1.394 v -27.401 c 0,-2.951 1.028,-4.757 3.066,-5.331 -1.015,-1.749 -2.751,-2.543 -5.197,-2.543 -3.008,0 -4.445,1.807 -4.445,5.388 z"
             style="fill:#ffffff;fill-opacity:1;fill-rule:nonzero;stroke:none"
             id="path226" />
        </g>
        <g
           id="g228"
           transform="translate(909.8828,95.3613)">
          <path
             d="m 0,0 -5.948,-6.673 h -5.03 L -6.493,0 Z m -14.873,-19.69 h 13.861 c -0.477,3.638 -2.746,5.445 -6.836,5.445 -3.787,0 -6.112,-1.807 -7.025,-5.445 m 19.851,-4.264 h -20.059 c 0.097,-1.887 0.862,-3.446 2.31,-4.513 1.38,-1.038 3.283,-1.586 5.714,-1.586 2.983,0 5.308,0.657 6.852,2.053 l 2.541,-4.378 c -2.323,-1.612 -5.754,-2.403 -10.401,-2.403 -4.21,0 -7.631,1.066 -10.148,3.254 -2.489,2.159 -3.773,5.196 -3.773,9.101 0,3.86 1.395,6.922 4.131,9.327 2.803,2.38 6.002,3.553 9.885,3.553 4.087,0 7.355,-1.038 9.816,-3.168 2.504,-2.107 3.664,-4.786 3.664,-8.069 0,-0.682 -0.125,-1.751 -0.532,-3.171"
             style="fill:#ffffff;fill-opacity:1;fill-rule:nonzero;stroke:none"
             id="path230" />
        </g>
        <g
           id="g232"
           transform="translate(934.1924,85.8164)">
          <path
             d="m 0,0 c -4.702,0 -8.463,-1.173 -11.224,-3.501 -2.751,-2.403 -4.1,-5.494 -4.1,-9.348 0,-3.856 1.227,-6.89 3.758,-9.134 2.517,-2.134 5.904,-3.255 10.307,-3.255 1.887,0 3.623,0.109 5.046,0.384 1.394,0.298 3.077,0.929 4.978,1.993 l -2.352,4.43 c -1.874,-1.393 -4.049,-2.076 -6.496,-2.076 -5.618,0 -8.408,2.515 -8.408,7.658 0,2.57 0.726,4.536 2.148,5.985 1.49,1.422 3.364,2.162 5.879,2.162 2.543,0 4.677,-0.628 6.192,-1.915 l 2.832,4.24 C 6.125,-0.794 3.296,0 0,0"
             style="fill:#ffffff;fill-opacity:1;fill-rule:nonzero;stroke:none"
             id="path234" />
        </g>
        <g
           id="g236"
           transform="translate(953.2109,73.2666)">
          <path
             d="m 0,0 c 0,-5.359 2.283,-8.012 6.67,-8.012 2.081,0 3.706,0.711 4.881,2.108 1.233,1.307 1.819,3.335 1.819,5.904 0,5.275 -2.255,7.902 -6.7,7.902 C 4.677,7.902 3.021,7.22 1.829,5.852 0.628,4.43 0,2.488 0,0 m -6.823,0 c 0,3.721 1.233,6.7 3.69,9.049 2.489,2.328 5.759,3.501 9.803,3.501 4.295,0 7.603,-1.121 9.968,-3.363 2.38,-2.24 3.568,-5.305 3.568,-9.187 0,-3.911 -1.217,-6.945 -3.607,-9.244 -2.393,-2.323 -5.733,-3.444 -9.929,-3.444 -4.249,0 -7.586,1.149 -9.953,3.5 -2.364,2.269 -3.54,5.334 -3.54,9.188"
             style="fill:#ffffff;fill-opacity:1;fill-rule:nonzero;stroke:none"
             id="path238" />
        </g>
        <g
           id="g240"
           transform="translate(1011.3047,61.0703)">
          <path
             d="m 0,0 v 15.231 c 0,3.201 -1.6,4.815 -4.921,4.815 -0.986,0 -1.985,-0.275 -2.832,-0.769 -0.983,-0.49 -1.572,-1.038 -1.94,-1.72 V 0 h -6.551 v 16.135 c 0,1.176 -0.465,2.104 -1.339,2.87 -0.849,0.711 -2.079,1.041 -3.61,1.041 -0.833,0 -1.737,-0.304 -2.72,-0.794 -0.971,-0.548 -1.669,-1.149 -2.12,-1.78 V 0 h -6.615 v 24.31 h 4.565 l 1.367,-2.079 c 1.779,1.668 4.142,2.515 7.054,2.515 3.748,0 6.563,-0.875 8.424,-2.65 0.875,0.82 2.022,1.477 3.485,1.941 1.478,0.462 2.928,0.709 4.431,0.709 3.145,0 5.59,-0.764 7.326,-2.323 1.724,-1.56 2.613,-3.664 2.613,-6.368 L 6.617,0 Z"
             style="fill:#ffffff;fill-opacity:1;fill-rule:nonzero;stroke:none"
             id="path242" />
        </g>
        <g
           id="g244"
           transform="translate(1057.5566,61.0703)">
          <path
             d="m 0,0 v 15.231 c 0,3.201 -1.611,4.815 -4.978,4.815 -0.941,0 -1.925,-0.275 -2.815,-0.769 -0.914,-0.49 -1.516,-1.038 -1.926,-1.72 V 0 h -6.563 v 16.135 c 0,1.176 -0.412,2.104 -1.287,2.87 -0.888,0.711 -2.077,1.041 -3.636,1.041 -0.833,0 -1.708,-0.304 -2.707,-0.794 -1.025,-0.548 -1.694,-1.149 -2.147,-1.78 V 0 h -6.588 v 24.31 h 4.551 l 1.314,-2.079 c 1.816,1.668 4.224,2.515 7.095,2.515 3.787,0 6.55,-0.875 8.492,-2.65 0.804,0.82 1.927,1.477 3.415,1.941 1.453,0.462 2.956,0.709 4.445,0.709 3.159,0 5.577,-0.764 7.314,-2.323 1.764,-1.56 2.652,-3.664 2.652,-6.368 L 6.631,0 Z"
             style="fill:#ffffff;fill-opacity:1;fill-rule:nonzero;stroke:none"
             id="path246" />
        </g>
        <g
           id="g248"
           transform="translate(1089.2363,61.0703)">
          <path
             d="M 0,0 V 2.051 C -0.918,1.365 -2.175,0.737 -3.841,0.247 -5.429,-0.22 -6.918,-0.49 -8.273,-0.49 c -6.519,0 -9.802,2.979 -9.802,9.021 V 24.31 h 6.604 V 8.915 c 0,-3.119 1.599,-4.677 4.825,-4.677 1.505,0 2.844,0.33 4.142,1.013 C -1.232,5.904 -0.409,6.67 0,7.547 V 24.31 H 6.657 V 0 Z"
             style="fill:#ffffff;fill-opacity:1;fill-rule:nonzero;stroke:none"
             id="path250" />
        </g>
        <g
           id="g252"
           transform="translate(1127.6963,61.0703)">
          <path
             d="m 0,0 v 14.902 c 0,3.146 -0.983,5.526 -2.967,7.246 -1.928,1.723 -4.541,2.598 -7.902,2.598 -3.473,0 -6.127,-0.875 -7.902,-2.65 l -1.247,2.214 h -4.769 V 0 h 6.656 v 17.557 c 0.587,0.737 1.436,1.285 2.516,1.775 1.094,0.465 2.136,0.714 3.119,0.714 2.092,0 3.595,-0.493 4.497,-1.451 0.875,-0.929 1.365,-2.46 1.365,-4.568 V 0 Z"
             style="fill:#ffffff;fill-opacity:1;fill-rule:nonzero;stroke:none"
             id="path254" />
        </g>
        <g
           id="g256"
           transform="translate(1139.8789,94.8691)">
          <path
             d="M 0,0 C 1.066,0 1.968,-0.329 2.749,-0.957 3.501,-1.585 3.854,-2.38 3.854,-3.282 3.854,-4.24 3.501,-4.978 2.749,-5.605 1.968,-6.262 1.066,-6.592 0,-6.592 c -1.038,0 -1.943,0.33 -2.652,0.987 -0.794,0.627 -1.137,1.365 -1.137,2.323 0,0.902 0.343,1.697 1.137,2.325 C -1.943,-0.329 -1.038,0 0,0 m -3.351,-33.797 v 19.713 h -3.664 v 4.597 H 3.283 v -24.31 z"
             style="fill:#ffffff;fill-opacity:1;fill-rule:nonzero;stroke:none"
             id="path258" />
        </g>
        <g
           id="g260"
           transform="translate(1172.7881,83.4395)">
          <path
             d="m 0,0 -2.803,-4.24 c -1.503,1.287 -3.596,1.915 -6.153,1.915 -2.53,0 -4.484,-0.74 -5.907,-2.162 -1.435,-1.449 -2.133,-3.415 -2.133,-5.985 0,-5.143 2.777,-7.658 8.408,-7.658 2.447,0 4.581,0.683 6.442,2.076 l 2.431,-4.43 c -1.941,-1.064 -3.584,-1.695 -5.029,-1.994 -1.409,-0.274 -3.104,-0.383 -5.045,-0.383 -4.334,0 -7.822,1.121 -10.311,3.255 -2.502,2.244 -3.758,5.278 -3.758,9.134 0,3.854 1.42,6.945 4.127,9.348 2.763,2.328 6.508,3.501 11.213,3.501 C -5.237,2.377 -2.393,1.583 0,0"
             style="fill:#ffffff;fill-opacity:1;fill-rule:nonzero;stroke:none"
             id="path262" />
        </g>
        <g
           id="g264"
           transform="translate(1193.3096,72.501)">
          <path
             d="m 0,0 c -1.067,0.189 -1.957,0.327 -2.502,0.327 -5.142,0 -7.739,-1.503 -7.739,-4.428 0,-2.187 1.461,-3.308 4.334,-3.308 3.95,0 5.907,1.694 5.907,5.112 z m 0.685,-9.05 c -0.577,-0.822 -1.643,-1.533 -3.117,-2.078 -1.507,-0.522 -3.037,-0.795 -4.637,-0.795 -3.089,0 -5.469,0.683 -7.151,1.942 -1.777,1.313 -2.61,3.2 -2.61,5.631 0,2.79 1.229,5.006 3.664,6.592 2.406,1.586 5.92,2.405 10.379,2.405 0.788,0 1.72,-0.108 2.72,-0.326 0,2.844 -2.04,4.292 -6.263,4.292 -2.463,0 -4.526,-0.329 -6.221,-1.038 l -1.381,4.373 c 2.241,0.904 4.895,1.368 8.025,1.368 4.347,0 7.451,-0.846 9.462,-2.515 1.996,-1.666 2.966,-4.92 2.966,-9.625 v -5.167 c 0,-3.229 0.805,-5.334 2.323,-6.099 -0.586,-0.792 -1.189,-1.34 -1.817,-1.531 -0.684,-0.219 -1.45,-0.302 -2.312,-0.302 -0.888,0 -1.788,0.302 -2.527,0.903 -0.766,0.628 -1.231,1.314 -1.503,1.97"
             style="fill:#ffffff;fill-opacity:1;fill-rule:nonzero;stroke:none"
             id="path266" />
        </g>
        <g
           id="g268"
           transform="translate(1208.0215,80.8135)">
          <path
             d="M 0,0 H -3.255 V 4.567 H 0 v 4.978 l 6.604,2.102 v -7.08 h 7.711 V 0 H 6.604 v -10.664 c 0,-1.749 0.27,-2.982 0.914,-3.719 0.685,-0.684 1.791,-1.066 3.309,-1.066 1.586,0 3.088,0.382 4.417,1.147 v -5.251 c -1.461,-0.435 -3.62,-0.681 -6.524,-0.681 -2.759,0 -4.947,0.681 -6.465,2.049 C 0.724,-16.791 0,-14.85 0,-12.304 Z"
             style="fill:#ffffff;fill-opacity:1;fill-rule:nonzero;stroke:none"
             id="path270" />
        </g>
        <g
           id="g272"
           transform="translate(1233.5195,94.8691)">
          <path
             d="M 0,0 C 1.052,0 1.929,-0.329 2.691,-0.957 3.418,-1.585 3.787,-2.38 3.787,-3.282 3.787,-4.24 3.418,-4.978 2.691,-5.605 1.929,-6.262 1.052,-6.592 0,-6.592 c -1.051,0 -1.982,0.33 -2.707,0.987 -0.736,0.627 -1.162,1.365 -1.162,2.323 0,0.902 0.426,1.697 1.162,2.325 C -1.982,-0.329 -1.051,0 0,0 m -3.431,-33.797 v 19.713 h -3.638 v 4.597 H 3.239 v -24.31 z"
             style="fill:#ffffff;fill-opacity:1;fill-rule:nonzero;stroke:none"
             id="path274" />
        </g>
        <g
           id="g276"
           transform="translate(1249.3652,73.2666)">
          <path
             d="m 0,0 c 0,-5.359 2.255,-8.012 6.672,-8.012 2.092,0 3.651,0.711 4.882,2.108 1.188,1.307 1.791,3.335 1.791,5.904 0,5.275 -2.186,7.902 -6.673,7.902 C 4.596,7.902 2.969,7.22 1.765,5.852 0.602,4.43 0,2.488 0,0 m -6.823,0 c 0,3.721 1.163,6.7 3.721,9.049 2.404,2.328 5.728,3.501 9.774,3.501 4.266,0 7.575,-1.121 9.9,-3.363 C 19.005,6.947 20.18,3.882 20.18,0 c 0,-3.911 -1.204,-6.945 -3.608,-9.244 -2.392,-2.323 -5.714,-3.444 -9.9,-3.444 -4.264,0 -7.589,1.149 -9.955,3.5 -2.404,2.269 -3.54,5.334 -3.54,9.188"
             style="fill:#ffffff;fill-opacity:1;fill-rule:nonzero;stroke:none"
             id="path278" />
        </g>
        <g
           id="g280"
           transform="translate(1292.8857,61.0703)">
          <path
             d="m 0,0 v 14.027 c 0,2.108 -0.452,3.639 -1.368,4.568 -0.932,0.958 -2.405,1.451 -4.485,1.451 -0.944,0 -1.957,-0.249 -3.065,-0.714 -1.105,-0.49 -1.964,-1.038 -2.554,-1.775 V 0 h -6.591 v 24.31 h 4.718 l 1.201,-2.214 c 1.82,1.775 4.459,2.65 7.874,2.65 3.392,0 6.035,-0.875 7.999,-2.598 1.902,-1.72 2.873,-4.1 2.873,-7.246 L 6.602,0 Z"
             style="fill:#ffffff;fill-opacity:1;fill-rule:nonzero;stroke:none"
             id="path282" />
        </g>
        <g
           id="g284"
           transform="translate(1304.8066,62.6016)">
          <path
             d="M 0,0 2.326,4.511 C 4.277,3.174 6.522,2.489 9.037,2.489 c 2.543,0 3.815,0.794 3.815,2.351 0,0.958 -0.342,1.723 -1.119,2.297 -0.809,0.576 -2.34,1.285 -4.5,2.079 -4.907,1.752 -7.329,4.183 -7.329,7.354 0,2.105 0.958,3.719 2.787,4.924 1.862,1.15 4.27,1.72 7.14,1.72 2.953,0 5.687,-0.57 8.272,-1.692 l -1.874,-4.404 c -1.475,1.067 -3.445,1.586 -6.042,1.586 -2.284,0 -3.392,-0.794 -3.392,-2.351 0,-0.628 0.355,-1.15 1.108,-1.698 0.766,-0.462 2.365,-1.176 4.825,-2.021 2.488,-0.849 4.266,-1.832 5.375,-3.036 1.091,-1.202 1.584,-2.651 1.584,-4.373 0,-2.246 -0.97,-3.993 -2.882,-5.305 -1.998,-1.285 -4.597,-1.941 -7.903,-1.941 -1.916,0 -3.446,0.109 -4.554,0.381 C 3.239,-1.342 1.778,-0.846 0,0"
             style="fill:#ffffff;fill-opacity:1;fill-rule:nonzero;stroke:none"
             id="path286" />
        </g>
        <path
           d="M 51.263,94.402 H 44.427 V 61.043 h 6.836 z"
           style="fill:#ffffff;fill-opacity:1;fill-rule:nonzero;stroke:none"
           id="path288" />
        <g
           id="g290"
           transform="translate(76.9404,61.0703)">
          <path
             d="m 0,0 v 14.027 c 0,2.108 -0.479,3.639 -1.354,4.568 -0.917,0.958 -2.448,1.451 -4.469,1.451 -0.987,0 -2.037,-0.249 -3.119,-0.714 -1.109,-0.49 -1.94,-1.038 -2.541,-1.775 V 0 h -6.605 v 24.31 h 4.798 l 1.15,-2.214 c 1.804,1.775 4.427,2.65 7.903,2.65 3.347,0 5.987,-0.875 7.943,-2.598 1.939,-1.72 2.897,-4.1 2.897,-7.246 L 6.603,0 Z"
             style="fill:#ffffff;fill-opacity:1;fill-rule:nonzero;stroke:none"
             id="path292" />
        </g>
        <g
           id="g294"
           transform="translate(88.8623,62.6016)">
          <path
             d="M 0,0 2.31,4.511 C 4.334,3.174 6.521,2.489 9.023,2.489 c 2.557,0 3.857,0.794 3.857,2.351 0,0.958 -0.41,1.723 -1.191,2.297 -0.752,0.576 -2.294,1.285 -4.51,2.079 -4.869,1.752 -7.262,4.183 -7.262,7.354 0,2.105 0.891,3.719 2.79,4.924 1.858,1.15 4.225,1.72 7.152,1.72 2.883,0 5.632,-0.57 8.243,-1.692 L 16.16,17.118 c -1.38,1.067 -3.418,1.586 -5.989,1.586 -2.323,0 -3.415,-0.794 -3.415,-2.351 0,-0.628 0.355,-1.15 1.092,-1.698 0.779,-0.462 2.378,-1.176 4.894,-2.021 2.406,-0.849 4.226,-1.832 5.292,-3.036 1.121,-1.202 1.682,-2.651 1.682,-4.373 0,-2.246 -1.026,-3.993 -2.925,-5.305 -1.97,-1.285 -4.567,-1.941 -7.943,-1.941 -1.89,0 -3.365,0.109 -4.486,0.381 C 3.213,-1.342 1.765,-0.846 0,0"
             style="fill:#ffffff;fill-opacity:1;fill-rule:nonzero;stroke:none"
             id="path296" />
        </g>
        <g
           id="g298"
           transform="translate(114.8545,80.8135)">
          <path
             d="M 0,0 H -3.31 V 4.567 H 0 v 4.978 l 6.576,2.102 v -7.08 h 7.697 V 0 H 6.576 v -10.664 c 0,-1.749 0.314,-2.982 0.932,-3.719 0.64,-0.684 1.749,-1.066 3.319,-1.066 1.601,0 3.024,0.382 4.43,1.147 v -5.251 c -1.531,-0.435 -3.691,-0.681 -6.548,-0.681 -2.803,0 -4.965,0.681 -6.482,2.049 C 0.752,-16.791 0,-14.85 0,-12.304 Z"
             style="fill:#ffffff;fill-opacity:1;fill-rule:nonzero;stroke:none"
             id="path300" />
        </g>
        <g
           id="g302"
           transform="translate(140.2979,94.8691)">
          <path
             d="M 0,0 C 1.067,0 1.968,-0.329 2.735,-0.957 3.446,-1.585 3.841,-2.38 3.841,-3.282 3.841,-4.24 3.446,-4.978 2.735,-5.605 1.968,-6.262 1.067,-6.592 0,-6.592 c -1.038,0 -1.928,0.33 -2.707,0.987 -0.739,0.627 -1.134,1.365 -1.134,2.323 0,0.902 0.395,1.697 1.134,2.325 C -1.928,-0.329 -1.038,0 0,0 m -3.418,-33.797 v 19.713 h -3.609 v 4.597 H 3.239 v -24.31 z"
             style="fill:#ffffff;fill-opacity:1;fill-rule:nonzero;stroke:none"
             id="path304" />
        </g>
        <g
           id="g306"
           transform="translate(152.2061,80.8135)">
          <path
             d="M 0,0 H -3.28 V 4.567 H 0 v 4.978 l 6.617,2.102 v -7.08 h 7.724 V 0 H 6.617 v -10.664 c 0,-1.749 0.288,-2.982 0.945,-3.719 0.602,-0.684 1.679,-1.066 3.281,-1.066 1.611,0 3.091,0.382 4.469,1.147 v -5.251 c -1.573,-0.435 -3.704,-0.681 -6.561,-0.681 -2.803,0 -4.949,0.681 -6.426,2.049 C 0.781,-16.791 0,-14.85 0,-12.304 Z"
             style="fill:#ffffff;fill-opacity:1;fill-rule:nonzero;stroke:none"
             id="path308" />
        </g>
        <g
           id="g310"
           transform="translate(197.1885,61.0703)">
          <path
             d="M 0,0 V 24.31 H -6.592 V 7.547 C -6.986,6.67 -7.848,5.904 -9.106,5.251 c -1.298,-0.683 -2.681,-1.013 -4.142,-1.013 -3.188,0 -4.856,1.558 -4.856,4.677 V 24.31 h -6.574 V 8.531 c 0,-6.042 3.252,-9.021 9.789,-9.021 1.339,0 2.886,0.27 4.485,0.737 1.586,0.49 2.912,1.118 3.812,1.804 V 0 Z"
             style="fill:#ffffff;fill-opacity:1;fill-rule:nonzero;stroke:none"
             id="path312" />
        </g>
        <g
           id="g314"
           transform="translate(205.3506,68.5088)">
          <path
             d="m 0,0 c 0,-2.543 0.753,-4.486 2.271,-5.881 1.474,-1.367 3.662,-2.05 6.439,-2.05 2.883,0 5.029,0.247 6.548,0.683 v 5.25 c -1.339,-0.763 -2.858,-1.148 -4.402,-1.148 -1.614,0 -2.668,0.385 -3.309,1.068 -0.628,0.736 -0.957,1.97 -0.957,3.719 v 10.664 h 7.684 v 4.567 H 6.59 v 7.079 L 0,21.85 V 16.872 H -3.309 V 12.305 H 0 Z"
             style="fill:#ffffff;fill-opacity:1;fill-rule:nonzero;stroke:none"
             id="path316" />
        </g>
        <g
           id="g318"
           transform="translate(267.4775,60.5791)">
          <path
             d="M 0,0 -18.637,21.138 V 0.49 h -6.601 v 33.333 h 3.308 L -3.731,13.674 V 33.823 H 2.815 V 0 Z"
             style="fill:#ffffff;fill-opacity:1;fill-rule:nonzero;stroke:none"
             id="path320" />
        </g>
        <g
           id="g322"
           transform="translate(292.7988,72.501)">
          <path
             d="m 0,0 c -1.134,0.189 -1.97,0.327 -2.557,0.327 -5.14,0 -7.725,-1.503 -7.725,-4.428 0,-2.187 1.448,-3.308 4.376,-3.308 3.936,0 5.906,1.694 5.906,5.112 z m 0.644,-9.05 c -0.589,-0.822 -1.643,-1.533 -3.104,-2.078 -1.547,-0.522 -3.053,-0.795 -4.664,-0.795 -3.049,0 -5.427,0.683 -7.163,1.942 -1.735,1.313 -2.6,3.2 -2.6,5.631 0,2.79 1.233,5.006 3.638,6.592 2.447,1.586 5.948,2.405 10.418,2.405 0.778,0 1.655,-0.108 2.681,-0.326 0,2.844 -2.038,4.292 -6.221,4.292 -2.463,0 -4.526,-0.329 -6.221,-1.038 l -1.381,4.373 c 2.24,0.904 4.937,1.368 8.067,1.368 4.279,0 7.437,-0.846 9.446,-2.515 1.97,-1.666 2.966,-4.92 2.966,-9.625 v -5.167 c 0,-3.229 0.765,-5.334 2.271,-6.099 -0.519,-0.792 -1.175,-1.34 -1.803,-1.531 -0.658,-0.219 -1.464,-0.302 -2.285,-0.302 -0.944,0 -1.791,0.302 -2.527,0.903 -0.726,0.628 -1.274,1.314 -1.518,1.97"
             style="fill:#ffffff;fill-opacity:1;fill-rule:nonzero;stroke:none"
             id="path324" />
        </g>
        <g
           id="g326"
           transform="translate(307.4678,80.8135)">
          <path
             d="M 0,0 H -3.307 V 4.567 H 0 v 4.978 l 6.604,2.102 v -7.08 h 7.724 V 0 H 6.604 v -10.664 c 0,-1.749 0.287,-2.982 0.958,-3.719 0.603,-0.684 1.721,-1.066 3.281,-1.066 1.614,0 3.05,0.382 4.388,1.147 v -5.251 c -1.489,-0.435 -3.677,-0.681 -6.48,-0.681 -2.829,0 -4.965,0.681 -6.467,2.049 C 0.766,-16.791 0,-14.85 0,-12.304 Z"
             style="fill:#ffffff;fill-opacity:1;fill-rule:nonzero;stroke:none"
             id="path328" />
        </g>
        <g
           id="g330"
           transform="translate(332.9268,94.8691)">
          <path
             d="M 0,0 C 1.052,0 1.968,-0.329 2.707,-0.957 3.46,-1.585 3.842,-2.38 3.842,-3.282 3.842,-4.24 3.46,-4.978 2.707,-5.605 1.968,-6.262 1.052,-6.592 0,-6.592 c -1.024,0 -1.943,0.33 -2.693,0.987 -0.711,0.627 -1.109,1.365 -1.109,2.323 0,0.902 0.398,1.697 1.109,2.325 C -1.943,-0.329 -1.024,0 0,0 m -3.35,-33.797 v 19.713 h -3.626 v 4.597 H 3.268 v -24.31 z"
             style="fill:#ffffff;fill-opacity:1;fill-rule:nonzero;stroke:none"
             id="path332" />
        </g>
        <g
           id="g334"
           transform="translate(348.7725,73.2666)">
          <path
             d="m 0,0 c 0,-5.359 2.271,-8.012 6.727,-8.012 2.037,0 3.638,0.711 4.839,2.108 1.202,1.307 1.804,3.335 1.804,5.904 0,5.275 -2.239,7.902 -6.643,7.902 C 4.66,7.902 3.033,7.22 1.845,5.852 0.63,4.43 0,2.488 0,0 m -6.811,0 c 0,3.721 1.247,6.7 3.722,9.049 2.46,2.328 5.728,3.501 9.816,3.501 4.211,0 7.587,-1.121 9.926,-3.363 2.393,-2.24 3.581,-5.305 3.581,-9.187 0,-3.911 -1.258,-6.945 -3.635,-9.244 -2.393,-2.323 -5.703,-3.444 -9.872,-3.444 -4.306,0 -7.602,1.149 -9.966,3.5 -2.38,2.269 -3.572,5.334 -3.572,9.188"
             style="fill:#ffffff;fill-opacity:1;fill-rule:nonzero;stroke:none"
             id="path336" />
        </g>
        <g
           id="g338"
           transform="translate(392.3457,61.0703)">
          <path
             d="m 0,0 v 14.027 c 0,2.108 -0.451,3.639 -1.352,4.568 -0.958,0.958 -2.434,1.451 -4.459,1.451 -1.025,0 -2.024,-0.249 -3.129,-0.714 -1.095,-0.49 -1.928,-1.038 -2.531,-1.775 V 0 h -6.618 v 24.31 h 4.705 l 1.257,-2.214 c 1.777,1.775 4.404,2.65 7.874,2.65 3.337,0 6.044,-0.875 7.943,-2.598 1.945,-1.72 2.9,-4.1 2.9,-7.246 V 0 Z"
             style="fill:#ffffff;fill-opacity:1;fill-rule:nonzero;stroke:none"
             id="path340" />
        </g>
        <g
           id="g342"
           transform="translate(421.0439,72.501)">
          <path
             d="m 0,0 c -1.121,0.189 -1.941,0.327 -2.515,0.327 -5.128,0 -7.764,-1.503 -7.764,-4.428 0,-2.187 1.448,-3.308 4.385,-3.308 3.953,0 5.894,1.694 5.894,5.112 z m 0.686,-9.05 c -0.631,-0.822 -1.685,-1.533 -3.118,-2.078 -1.479,-0.522 -3.023,-0.795 -4.692,-0.795 -3.047,0 -5.426,0.683 -7.137,1.942 -1.761,1.313 -2.585,3.2 -2.585,5.631 0,2.79 1.22,5.006 3.639,6.592 2.435,1.586 5.907,2.405 10.417,2.405 0.781,0 1.628,-0.108 2.723,-0.326 0,2.844 -2.121,4.292 -6.276,4.292 -2.488,0 -4.539,-0.329 -6.22,-1.038 l -1.41,4.373 c 2.285,0.904 4.923,1.368 8.079,1.368 4.254,0 7.425,-0.846 9.421,-2.515 1.995,-1.666 3.008,-4.92 3.008,-9.625 v -5.167 c 0,-3.229 0.724,-5.334 2.271,-6.099 -0.561,-0.792 -1.134,-1.34 -1.807,-1.531 -0.653,-0.219 -1.435,-0.302 -2.322,-0.302 -0.932,0 -1.765,0.302 -2.489,0.903 -0.781,0.628 -1.258,1.314 -1.502,1.97"
             style="fill:#ffffff;fill-opacity:1;fill-rule:nonzero;stroke:none"
             id="path344" />
        </g>
        <g
           id="g346"
           transform="translate(435.7002,94.459)">
          <path
             d="m 0,0 6.631,1.394 v -27.401 c 0,-2.951 1.027,-4.757 3.078,-5.331 -1.041,-1.749 -2.79,-2.543 -5.225,-2.543 -2.978,0 -4.484,1.807 -4.484,5.388 z"
             style="fill:#ffffff;fill-opacity:1;fill-rule:nonzero;stroke:none"
             id="path348" />
        </g>
        <g
           id="g350"
           transform="translate(484.8398,79.582)">
          <path
             d="m 0,0 c -1.383,0.957 -2.815,1.45 -4.362,1.45 -2.653,0 -4.607,-0.684 -6.083,-2.078 -1.342,-1.423 -2.025,-3.363 -2.025,-5.987 0,-5.061 2.748,-7.605 8.382,-7.605 0.615,0 1.381,0.166 2.339,0.523 0.9,0.329 1.503,0.679 1.749,0.983 z m 0,-18.512 v 1.45 c -0.548,-0.495 -1.437,-0.902 -2.79,-1.34 -1.231,-0.41 -2.559,-0.6 -3.966,-0.6 -3.882,0 -7.027,1.066 -9.296,3.197 -2.187,2.188 -3.308,5.169 -3.308,9.026 0,3.826 1.326,6.971 3.869,9.405 2.569,2.406 5.769,3.607 9.68,3.607 2.118,0 4.087,-0.352 5.811,-1.118 v 9.761 l 6.615,1.395 v -34.783 z"
             style="fill:#ffffff;fill-opacity:1;fill-rule:nonzero;stroke:none"
             id="path352" />
        </g>
        <g
           id="g354"
           transform="translate(503.2158,75.6719)">
          <path
             d="M 0,0 H 13.837 C 13.37,3.638 11.115,5.444 7.015,5.444 3.267,5.444 0.929,3.638 0,0 M 19.892,-4.267 H -0.247 c 0.148,-1.884 0.93,-3.444 2.351,-4.51 1.422,-1.038 3.351,-1.586 5.785,-1.586 2.951,0 5.235,0.656 6.766,2.052 l 2.559,-4.377 c -2.313,-1.612 -5.756,-2.404 -10.337,-2.404 -4.308,0 -7.697,1.067 -10.187,3.252 -2.514,2.162 -3.759,5.195 -3.759,9.105 0,3.858 1.409,6.921 4.087,9.327 2.774,2.38 6.07,3.553 9.914,3.553 4.087,0 7.326,-1.039 9.817,-3.169 2.474,-2.108 3.703,-4.787 3.703,-8.069 0,-0.685 -0.163,-1.752 -0.56,-3.174"
             style="fill:#ffffff;fill-opacity:1;fill-rule:nonzero;stroke:none"
             id="path356" />
        </g>
        <g
           id="g358"
           transform="translate(531.5439,60.9619)">
          <path
             d="m 0,0 c 1.092,-0.272 2.585,-0.382 4.484,-0.382 3.335,0 5.961,0.654 7.903,1.942 1.941,1.31 2.937,3.059 2.937,5.304 0,1.723 -0.557,3.171 -1.624,4.373 -1.108,1.204 -2.899,2.188 -5.346,3.036 -2.531,0.846 -4.087,1.56 -4.853,2.022 -0.766,0.548 -1.096,1.067 -1.096,1.697 0,1.558 1.134,2.352 3.418,2.352 2.543,0 4.581,-0.52 6.016,-1.586 l 1.861,4.404 c -2.585,1.118 -5.334,1.692 -8.287,1.692 -2.857,0 -5.222,-0.574 -7.095,-1.72 -1.833,-1.204 -2.774,-2.819 -2.774,-4.923 0,-3.172 2.419,-5.607 7.287,-7.356 C 5.032,10.062 6.589,9.353 7.3,8.776 8.12,8.203 8.533,7.437 8.533,6.48 8.533,4.92 7.204,4.129 4.647,4.129 2.161,4.129 -0.026,4.812 -2.037,6.15 L -4.376,1.64 C -2.572,0.794 -1.108,0.298 0,0"
             style="fill:#ffffff;fill-opacity:1;fill-rule:nonzero;stroke:none"
             id="path360" />
        </g>
        <g
           id="g362"
           transform="translate(575.5273,89.2637)">
          <path
             d="m 0,0 v -10.721 c 1.204,-0.137 2.091,-0.161 2.748,-0.161 3.132,0 5.413,0.462 6.822,1.394 1.477,0.874 2.23,2.351 2.23,4.349 0,3.553 -3.268,5.277 -9.709,5.277 C 1.354,0.138 0.711,0.055 0,0 M 0,-15.917 V -28.192 H -6.836 V 5.115 c 4.552,0.16 7.274,0.218 8.04,0.218 6.057,0 10.541,-0.794 13.303,-2.435 2.845,-1.614 4.254,-4.102 4.254,-7.546 0,-7.627 -5.186,-11.458 -15.657,-11.458 -0.779,0 -1.779,0.081 -3.104,0.189"
             style="fill:#ffffff;fill-opacity:1;fill-rule:nonzero;stroke:none"
             id="path364" />
        </g>
        <g
           id="g366"
           transform="translate(602.3525,73.2666)">
          <path
             d="m 0,0 c 0,-5.359 2.229,-8.012 6.687,-8.012 2.009,0 3.678,0.711 4.867,2.108 1.175,1.307 1.79,3.335 1.79,5.904 0,5.275 -2.229,7.902 -6.657,7.902 C 4.635,7.902 3.008,7.22 1.803,5.852 0.573,4.43 0,2.488 0,0 m -6.85,0 c 0,3.721 1.257,6.7 3.72,9.049 2.515,2.328 5.743,3.501 9.817,3.501 4.291,0 7.586,-1.121 9.937,-3.363 2.367,-2.24 3.53,-5.305 3.53,-9.187 0,-3.911 -1.163,-6.945 -3.555,-9.244 -2.422,-2.323 -5.744,-3.444 -9.912,-3.444 -4.294,0 -7.59,1.149 -9.983,3.5 C -5.647,-6.919 -6.85,-3.854 -6.85,0"
             style="fill:#ffffff;fill-opacity:1;fill-rule:nonzero;stroke:none"
             id="path368" />
        </g>
        <g
           id="g370"
           transform="translate(630.3672,60.9619)">
          <path
             d="m 0,0 c 1.176,-0.272 2.665,-0.382 4.552,-0.382 3.322,0 5.99,0.654 7.889,1.942 1.887,1.31 2.925,3.059 2.925,5.304 0,1.723 -0.56,3.171 -1.611,4.373 -1.121,1.204 -2.9,2.188 -5.362,3.036 -2.499,0.846 -4.114,1.56 -4.837,2.022 -0.769,0.548 -1.176,1.067 -1.176,1.697 0,1.558 1.188,2.352 3.459,2.352 2.583,0 4.581,-0.52 6.001,-1.586 l 1.915,4.404 c -2.572,1.118 -5.333,1.692 -8.258,1.692 -2.899,0 -5.266,-0.574 -7.124,-1.72 -1.832,-1.204 -2.774,-2.819 -2.774,-4.923 0,-3.172 2.377,-5.607 7.299,-7.356 C 5.087,10.062 6.603,9.353 7.326,8.776 8.175,8.203 8.572,7.437 8.572,6.48 8.572,4.92 7.218,4.129 4.731,4.129 2.188,4.129 0,4.812 -2.024,6.15 L -4.347,1.64 C -2.585,0.794 -1.121,0.298 0,0"
             style="fill:#ffffff;fill-opacity:1;fill-rule:nonzero;stroke:none"
             id="path372" />
        </g>
        <g
           id="g374"
           transform="translate(652.0234,80.8135)">
          <path
             d="M 0,0 H -3.322 V 4.567 H 0 v 4.978 l 6.604,2.102 v -7.08 h 7.669 V 0 H 6.604 v -10.664 c 0,-1.749 0.287,-2.982 0.943,-3.719 0.602,-0.684 1.682,-1.066 3.267,-1.066 1.602,0 3.049,0.382 4.444,1.147 v -5.251 c -1.529,-0.435 -3.72,-0.681 -6.577,-0.681 -2.774,0 -4.933,0.681 -6.452,2.049 C 0.725,-16.791 0,-14.85 0,-12.304 Z"
             style="fill:#ffffff;fill-opacity:1;fill-rule:nonzero;stroke:none"
             id="path376" />
        </g>
        <g
           id="g378"
           transform="translate(677.5371,75.6719)">
          <path
             d="M 0,0 H 13.794 C 13.345,3.638 11.046,5.444 6.958,5.444 3.227,5.444 0.916,3.638 0,0 M 19.825,-4.267 H -0.262 c 0.124,-1.884 0.89,-3.444 2.299,-4.51 1.448,-1.038 3.377,-1.586 5.77,-1.586 2.966,0 5.276,0.656 6.836,2.052 l 2.502,-4.377 c -2.326,-1.612 -5.742,-2.404 -10.334,-2.404 -4.283,0 -7.66,1.067 -10.203,3.252 -2.46,2.162 -3.732,5.195 -3.732,9.105 0,3.858 1.407,6.921 4.145,9.327 2.758,2.38 6,3.553 9.812,3.553 4.132,0 7.387,-1.039 9.847,-3.169 2.473,-2.108 3.703,-4.787 3.703,-8.069 0,-0.685 -0.205,-1.752 -0.558,-3.174"
             style="fill:#ffffff;fill-opacity:1;fill-rule:nonzero;stroke:none"
             id="path380" />
        </g>
        <g
           id="g382"
           transform="translate(705.8105,60.9619)">
          <path
             d="m 0,0 c 1.108,-0.272 2.585,-0.382 4.485,-0.382 3.35,0 6.002,0.654 7.928,1.942 1.902,1.31 2.912,3.059 2.912,5.304 0,1.723 -0.56,3.171 -1.666,4.373 -1.066,1.204 -2.831,2.188 -5.346,3.036 -2.448,0.846 -4.046,1.56 -4.789,2.022 -0.765,0.548 -1.172,1.067 -1.172,1.697 0,1.558 1.172,2.352 3.485,2.352 2.53,0 4.555,-0.52 6.003,-1.586 l 1.858,4.404 c -2.583,1.118 -5.331,1.692 -8.229,1.692 -2.912,0 -5.305,-0.574 -7.163,-1.72 -1.861,-1.204 -2.748,-2.819 -2.748,-4.923 0,-3.172 2.46,-5.607 7.271,-7.356 C 5.03,10.062 6.538,9.353 7.355,8.776 8.079,8.203 8.518,7.437 8.518,6.48 c 0,-1.56 -1.3,-2.351 -3.912,-2.351 -2.447,0 -4.689,0.683 -6.588,2.021 L -4.401,1.64 C -2.569,0.794 -1.175,0.298 0,0"
             style="fill:#ffffff;fill-opacity:1;fill-rule:nonzero;stroke:none"
             id="path384" />
        </g>
        <g
           id="g386"
           transform="translate(747.7979,75.6719)">
          <path
             d="M 0,0 H 13.822 C 13.371,3.638 11.103,5.444 7,5.444 3.242,5.444 0.917,3.638 0,0 m 19.867,-4.267 h -20.1 c 0.096,-1.884 0.903,-3.444 2.312,-4.51 1.406,-1.038 3.335,-1.586 5.756,-1.586 3.021,0 5.251,0.656 6.836,2.052 l 2.515,-4.377 c -2.296,-1.612 -5.744,-2.404 -10.322,-2.404 -4.307,0 -7.725,1.067 -10.243,3.252 -2.46,2.162 -3.69,5.195 -3.69,9.105 0,3.858 1.368,6.921 4.129,9.327 2.707,2.38 5.99,3.553 9.804,3.553 4.127,0 7.368,-1.039 9.899,-3.169 2.431,-2.108 3.635,-4.787 3.635,-8.069 0,-0.685 -0.095,-1.752 -0.531,-3.174"
             style="fill:#ffffff;fill-opacity:1;fill-rule:nonzero;stroke:none"
             id="path388" />
        </g>
        <g
           id="g390"
           transform="translate(774.5283,68.5088)">
          <path
             d="m 0,0 c 0,-2.543 0.766,-4.486 2.284,-5.881 1.502,-1.367 3.661,-2.05 6.493,-2.05 2.816,0 4.991,0.247 6.561,0.683 v 5.25 c -1.422,-0.763 -2.912,-1.148 -4.495,-1.148 -1.547,0 -2.655,0.385 -3.299,1.068 -0.653,0.736 -0.954,1.97 -0.954,3.719 v 10.664 h 7.738 v 4.567 H 6.59 v 7.079 L 0,21.85 V 16.872 H -3.283 V 12.305 H 0 Z"
             style="fill:#ffffff;fill-opacity:1;fill-rule:nonzero;stroke:none"
             id="path392" />
        </g>
        <g
           id="g394"
           transform="translate(838.9248,89.127)">
          <path
             d="M 0,0 V 5.275 H -31.872 V 0 h 12.266 v -28.058 h 6.861 V 0 Z"
             style="fill:#ffffff;fill-opacity:1;fill-rule:nonzero;stroke:none"
             id="path396" />
        </g>
        <g
           id="g398"
           transform="translate(856.5869,95.3613)">
          <path
             d="M 0,0 -4.456,-6.673 H 0.548 L 6.512,0 Z m -1.339,-14.245 c 4.062,0 6.346,-1.807 6.797,-5.445 H -8.338 c 0.874,3.638 3.21,5.445 6.999,5.445 m 13.373,-6.538 c 0,3.283 -1.232,5.962 -3.678,8.069 -2.501,2.13 -5.729,3.168 -9.83,3.168 -3.872,0 -7.136,-1.173 -9.872,-3.553 -2.707,-2.405 -4.132,-5.467 -4.132,-9.327 0,-3.905 1.259,-6.942 3.777,-9.101 2.514,-2.188 5.932,-3.254 10.199,-3.254 4.567,0 8.04,0.791 10.35,2.403 L 6.263,-28 c -1.571,-1.396 -3.828,-2.053 -6.824,-2.053 -2.418,0 -4.292,0.548 -5.711,1.586 -1.41,1.067 -2.175,2.626 -2.338,4.513 h 20.135 c 0.343,1.42 0.509,2.489 0.509,3.171"
             style="fill:#ffffff;fill-opacity:1;fill-rule:nonzero;stroke:none"
             id="path400" />
        </g>
        <g
           id="g402"
           transform="translate(874.9766,94.459)">
          <path
             d="m 0,0 6.576,1.394 v -27.401 c 0,-2.951 1.028,-4.757 3.066,-5.331 -1.015,-1.749 -2.751,-2.543 -5.197,-2.543 -3.008,0 -4.445,1.807 -4.445,5.388 z"
             style="fill:#ffffff;fill-opacity:1;fill-rule:nonzero;stroke:none"
             id="path404" />
        </g>
        <g
           id="g406"
           transform="translate(909.8828,95.3613)">
          <path
             d="m 0,0 -5.948,-6.673 h -5.03 L -6.493,0 Z m -14.873,-19.69 h 13.861 c -0.477,3.638 -2.746,5.445 -6.836,5.445 -3.787,0 -6.112,-1.807 -7.025,-5.445 m 19.851,-4.264 h -20.059 c 0.097,-1.887 0.862,-3.446 2.31,-4.513 1.38,-1.038 3.283,-1.586 5.714,-1.586 2.983,0 5.308,0.657 6.852,2.053 l 2.541,-4.378 c -2.323,-1.612 -5.754,-2.403 -10.401,-2.403 -4.21,0 -7.631,1.066 -10.148,3.254 -2.489,2.159 -3.773,5.196 -3.773,9.101 0,3.86 1.395,6.922 4.131,9.327 2.803,2.38 6.002,3.553 9.885,3.553 4.087,0 7.355,-1.038 9.816,-3.168 2.504,-2.107 3.664,-4.786 3.664,-8.069 0,-0.682 -0.125,-1.751 -0.532,-3.171"
             style="fill:#ffffff;fill-opacity:1;fill-rule:nonzero;stroke:none"
             id="path408" />
        </g>
        <g
           id="g410"
           transform="translate(934.1924,85.8164)">
          <path
             d="m 0,0 c -4.702,0 -8.463,-1.173 -11.224,-3.501 -2.751,-2.403 -4.1,-5.494 -4.1,-9.348 0,-3.856 1.227,-6.89 3.758,-9.134 2.517,-2.134 5.904,-3.255 10.307,-3.255 1.887,0 3.623,0.109 5.046,0.384 1.394,0.298 3.077,0.929 4.978,1.993 l -2.352,4.43 c -1.874,-1.393 -4.049,-2.076 -6.496,-2.076 -5.618,0 -8.408,2.515 -8.408,7.658 0,2.57 0.726,4.536 2.148,5.985 1.49,1.422 3.364,2.162 5.879,2.162 2.543,0 4.677,-0.628 6.192,-1.915 l 2.832,4.24 C 6.125,-0.794 3.296,0 0,0"
             style="fill:#ffffff;fill-opacity:1;fill-rule:nonzero;stroke:none"
             id="path412" />
        </g>
        <g
           id="g414"
           transform="translate(953.2109,73.2666)">
          <path
             d="m 0,0 c 0,-5.359 2.283,-8.012 6.67,-8.012 2.081,0 3.706,0.711 4.881,2.108 1.233,1.307 1.819,3.335 1.819,5.904 0,5.275 -2.255,7.902 -6.7,7.902 C 4.677,7.902 3.021,7.22 1.829,5.852 0.628,4.43 0,2.488 0,0 m -6.823,0 c 0,3.721 1.233,6.7 3.69,9.049 2.489,2.328 5.759,3.501 9.803,3.501 4.295,0 7.603,-1.121 9.968,-3.363 2.38,-2.24 3.568,-5.305 3.568,-9.187 0,-3.911 -1.217,-6.945 -3.607,-9.244 -2.393,-2.323 -5.733,-3.444 -9.929,-3.444 -4.249,0 -7.586,1.149 -9.953,3.5 -2.364,2.269 -3.54,5.334 -3.54,9.188"
             style="fill:#ffffff;fill-opacity:1;fill-rule:nonzero;stroke:none"
             id="path416" />
        </g>
        <g
           id="g418"
           transform="translate(1011.3047,61.0703)">
          <path
             d="m 0,0 v 15.231 c 0,3.201 -1.6,4.815 -4.921,4.815 -0.986,0 -1.985,-0.275 -2.832,-0.769 -0.983,-0.49 -1.572,-1.038 -1.94,-1.72 V 0 h -6.551 v 16.135 c 0,1.176 -0.465,2.104 -1.339,2.87 -0.849,0.711 -2.079,1.041 -3.61,1.041 -0.833,0 -1.737,-0.304 -2.72,-0.794 -0.971,-0.548 -1.669,-1.149 -2.12,-1.78 V 0 h -6.615 v 24.31 h 4.565 l 1.367,-2.079 c 1.779,1.668 4.142,2.515 7.054,2.515 3.748,0 6.563,-0.875 8.424,-2.65 0.875,0.82 2.022,1.477 3.485,1.941 1.478,0.462 2.928,0.709 4.431,0.709 3.145,0 5.59,-0.764 7.326,-2.323 1.724,-1.56 2.613,-3.664 2.613,-6.368 L 6.617,0 Z"
             style="fill:#ffffff;fill-opacity:1;fill-rule:nonzero;stroke:none"
             id="path420" />
        </g>
        <g
           id="g422"
           transform="translate(1057.5566,61.0703)">
          <path
             d="m 0,0 v 15.231 c 0,3.201 -1.611,4.815 -4.978,4.815 -0.941,0 -1.925,-0.275 -2.815,-0.769 -0.914,-0.49 -1.516,-1.038 -1.926,-1.72 V 0 h -6.563 v 16.135 c 0,1.176 -0.412,2.104 -1.287,2.87 -0.888,0.711 -2.077,1.041 -3.636,1.041 -0.833,0 -1.708,-0.304 -2.707,-0.794 -1.025,-0.548 -1.694,-1.149 -2.147,-1.78 V 0 h -6.588 v 24.31 h 4.551 l 1.314,-2.079 c 1.816,1.668 4.224,2.515 7.095,2.515 3.787,0 6.55,-0.875 8.492,-2.65 0.804,0.82 1.927,1.477 3.415,1.941 1.453,0.462 2.956,0.709 4.445,0.709 3.159,0 5.577,-0.764 7.314,-2.323 1.764,-1.56 2.652,-3.664 2.652,-6.368 L 6.631,0 Z"
             style="fill:#ffffff;fill-opacity:1;fill-rule:nonzero;stroke:none"
             id="path424" />
        </g>
        <g
           id="g426"
           transform="translate(1089.2363,61.0703)">
          <path
             d="M 0,0 V 2.051 C -0.918,1.365 -2.175,0.737 -3.841,0.247 -5.429,-0.22 -6.918,-0.49 -8.273,-0.49 c -6.519,0 -9.802,2.979 -9.802,9.021 V 24.31 h 6.604 V 8.915 c 0,-3.119 1.599,-4.677 4.825,-4.677 1.505,0 2.844,0.33 4.142,1.013 C -1.232,5.904 -0.409,6.67 0,7.547 V 24.31 H 6.657 V 0 Z"
             style="fill:#ffffff;fill-opacity:1;fill-rule:nonzero;stroke:none"
             id="path428" />
        </g>
        <g
           id="g430"
           transform="translate(1127.6963,61.0703)">
          <path
             d="m 0,0 v 14.902 c 0,3.146 -0.983,5.526 -2.967,7.246 -1.928,1.723 -4.541,2.598 -7.902,2.598 -3.473,0 -6.127,-0.875 -7.902,-2.65 l -1.247,2.214 h -4.769 V 0 h 6.656 v 17.557 c 0.587,0.737 1.436,1.285 2.516,1.775 1.094,0.465 2.136,0.714 3.119,0.714 2.092,0 3.595,-0.493 4.497,-1.451 0.875,-0.929 1.365,-2.46 1.365,-4.568 V 0 Z"
             style="fill:#ffffff;fill-opacity:1;fill-rule:nonzero;stroke:none"
             id="path432" />
        </g>
        <g
           id="g434"
           transform="translate(1139.8789,94.8691)">
          <path
             d="M 0,0 C 1.066,0 1.968,-0.329 2.749,-0.957 3.501,-1.585 3.854,-2.38 3.854,-3.282 3.854,-4.24 3.501,-4.978 2.749,-5.605 1.968,-6.262 1.066,-6.592 0,-6.592 c -1.038,0 -1.943,0.33 -2.652,0.987 -0.794,0.627 -1.137,1.365 -1.137,2.323 0,0.902 0.343,1.697 1.137,2.325 C -1.943,-0.329 -1.038,0 0,0 m -3.351,-33.797 v 19.713 h -3.664 v 4.597 H 3.283 v -24.31 z"
             style="fill:#ffffff;fill-opacity:1;fill-rule:nonzero;stroke:none"
             id="path436" />
        </g>
        <g
           id="g438"
           transform="translate(1172.7881,83.4395)">
          <path
             d="m 0,0 -2.803,-4.24 c -1.503,1.287 -3.596,1.915 -6.153,1.915 -2.53,0 -4.484,-0.74 -5.907,-2.162 -1.435,-1.449 -2.133,-3.415 -2.133,-5.985 0,-5.143 2.777,-7.658 8.408,-7.658 2.447,0 4.581,0.683 6.442,2.076 l 2.431,-4.43 c -1.941,-1.064 -3.584,-1.695 -5.029,-1.994 -1.409,-0.274 -3.104,-0.383 -5.045,-0.383 -4.334,0 -7.822,1.121 -10.311,3.255 -2.502,2.244 -3.758,5.278 -3.758,9.134 0,3.854 1.42,6.945 4.127,9.348 2.763,2.328 6.508,3.501 11.213,3.501 C -5.237,2.377 -2.393,1.583 0,0"
             style="fill:#ffffff;fill-opacity:1;fill-rule:nonzero;stroke:none"
             id="path440" />
        </g>
        <g
           id="g442"
           transform="translate(1193.3096,72.501)">
          <path
             d="m 0,0 c -1.067,0.189 -1.957,0.327 -2.502,0.327 -5.142,0 -7.739,-1.503 -7.739,-4.428 0,-2.187 1.461,-3.308 4.334,-3.308 3.95,0 5.907,1.694 5.907,5.112 z m 0.685,-9.05 c -0.577,-0.822 -1.643,-1.533 -3.117,-2.078 -1.507,-0.522 -3.037,-0.795 -4.637,-0.795 -3.089,0 -5.469,0.683 -7.151,1.942 -1.777,1.313 -2.61,3.2 -2.61,5.631 0,2.79 1.229,5.006 3.664,6.592 2.406,1.586 5.92,2.405 10.379,2.405 0.788,0 1.72,-0.108 2.72,-0.326 0,2.844 -2.04,4.292 -6.263,4.292 -2.463,0 -4.526,-0.329 -6.221,-1.038 l -1.381,4.373 c 2.241,0.904 4.895,1.368 8.025,1.368 4.347,0 7.451,-0.846 9.462,-2.515 1.996,-1.666 2.966,-4.92 2.966,-9.625 v -5.167 c 0,-3.229 0.805,-5.334 2.323,-6.099 -0.586,-0.792 -1.189,-1.34 -1.817,-1.531 -0.684,-0.219 -1.45,-0.302 -2.312,-0.302 -0.888,0 -1.788,0.302 -2.527,0.903 -0.766,0.628 -1.231,1.314 -1.503,1.97"
             style="fill:#ffffff;fill-opacity:1;fill-rule:nonzero;stroke:none"
             id="path444" />
        </g>
        <g
           id="g446"
           transform="translate(1208.0215,80.8135)">
          <path
             d="M 0,0 H -3.255 V 4.567 H 0 v 4.978 l 6.604,2.102 v -7.08 h 7.711 V 0 H 6.604 v -10.664 c 0,-1.749 0.27,-2.982 0.914,-3.719 0.685,-0.684 1.791,-1.066 3.309,-1.066 1.586,0 3.088,0.382 4.417,1.147 v -5.251 c -1.461,-0.435 -3.62,-0.681 -6.524,-0.681 -2.759,0 -4.947,0.681 -6.465,2.049 C 0.724,-16.791 0,-14.85 0,-12.304 Z"
             style="fill:#ffffff;fill-opacity:1;fill-rule:nonzero;stroke:none"
             id="path448" />
        </g>
        <g
           id="g450"
           transform="translate(1233.5195,94.8691)">
          <path
             d="M 0,0 C 1.052,0 1.929,-0.329 2.691,-0.957 3.418,-1.585 3.787,-2.38 3.787,-3.282 3.787,-4.24 3.418,-4.978 2.691,-5.605 1.929,-6.262 1.052,-6.592 0,-6.592 c -1.051,0 -1.982,0.33 -2.707,0.987 -0.736,0.627 -1.162,1.365 -1.162,2.323 0,0.902 0.426,1.697 1.162,2.325 C -1.982,-0.329 -1.051,0 0,0 m -3.431,-33.797 v 19.713 h -3.638 v 4.597 H 3.239 v -24.31 z"
             style="fill:#ffffff;fill-opacity:1;fill-rule:nonzero;stroke:none"
             id="path452" />
        </g>
        <g
           id="g454"
           transform="translate(1249.3652,73.2666)">
          <path
             d="m 0,0 c 0,-5.359 2.255,-8.012 6.672,-8.012 2.092,0 3.651,0.711 4.882,2.108 1.188,1.307 1.791,3.335 1.791,5.904 0,5.275 -2.186,7.902 -6.673,7.902 C 4.596,7.902 2.969,7.22 1.765,5.852 0.602,4.43 0,2.488 0,0 m -6.823,0 c 0,3.721 1.163,6.7 3.721,9.049 2.404,2.328 5.728,3.501 9.774,3.501 4.266,0 7.575,-1.121 9.9,-3.363 C 19.005,6.947 20.18,3.882 20.18,0 c 0,-3.911 -1.204,-6.945 -3.608,-9.244 -2.392,-2.323 -5.714,-3.444 -9.9,-3.444 -4.264,0 -7.589,1.149 -9.955,3.5 -2.404,2.269 -3.54,5.334 -3.54,9.188"
             style="fill:#ffffff;fill-opacity:1;fill-rule:nonzero;stroke:none"
             id="path456" />
        </g>
        <g
           id="g458"
           transform="translate(1292.8857,61.0703)">
          <path
             d="m 0,0 v 14.027 c 0,2.108 -0.452,3.639 -1.368,4.568 -0.932,0.958 -2.405,1.451 -4.485,1.451 -0.944,0 -1.957,-0.249 -3.065,-0.714 -1.105,-0.49 -1.964,-1.038 -2.554,-1.775 V 0 h -6.591 v 24.31 h 4.718 l 1.201,-2.214 c 1.82,1.775 4.459,2.65 7.874,2.65 3.392,0 6.035,-0.875 7.999,-2.598 1.902,-1.72 2.873,-4.1 2.873,-7.246 L 6.602,0 Z"
             style="fill:#ffffff;fill-opacity:1;fill-rule:nonzero;stroke:none"
             id="path460" />
        </g>
        <g
           id="g462"
           transform="translate(1304.8066,62.6016)">
          <path
             d="M 0,0 2.326,4.511 C 4.277,3.174 6.522,2.489 9.037,2.489 c 2.543,0 3.815,0.794 3.815,2.351 0,0.958 -0.342,1.723 -1.119,2.297 -0.809,0.576 -2.34,1.285 -4.5,2.079 -4.907,1.752 -7.329,4.183 -7.329,7.354 0,2.105 0.958,3.719 2.787,4.924 1.862,1.15 4.27,1.72 7.14,1.72 2.953,0 5.687,-0.57 8.272,-1.692 l -1.874,-4.404 c -1.475,1.067 -3.445,1.586 -6.042,1.586 -2.284,0 -3.392,-0.794 -3.392,-2.351 0,-0.628 0.355,-1.15 1.108,-1.698 0.766,-0.462 2.365,-1.176 4.825,-2.021 2.488,-0.849 4.266,-1.832 5.375,-3.036 1.091,-1.202 1.584,-2.651 1.584,-4.373 0,-2.246 -0.97,-3.993 -2.882,-5.305 -1.998,-1.285 -4.597,-1.941 -7.903,-1.941 -1.916,0 -3.446,0.109 -4.554,0.381 C 3.239,-1.342 1.778,-0.846 0,0"
             style="fill:#ffffff;fill-opacity:1;fill-rule:nonzero;stroke:none"
             id="path464" />
        </g>
        <g
           id="g466"
           transform="translate(1328.0049,146.4697)">
          <path
             d="M 0,0 V -6.392 H -37.556 V 41.923 H 0.072 V 35.531 H -31.166 V 20.925 h 21.88 v -6.392 h -21.88 V 0 Z m -48.186,4.869 c 0,1.782 -0.582,3.259 -1.747,4.422 -1.162,1.165 -2.587,1.749 -4.271,1.749 -1.609,0 -2.995,-0.584 -4.16,-1.749 -1.163,-1.163 -1.744,-2.64 -1.744,-4.422 0,-1.734 0.581,-3.195 1.744,-4.384 1.165,-1.188 2.551,-1.785 4.16,-1.785 1.684,0 3.109,0.597 4.271,1.785 1.165,1.189 1.747,2.65 1.747,4.384 m -6.018,11.112 c 3.145,0 5.782,-1.077 7.913,-3.233 2.128,-2.154 3.194,-4.807 3.194,-7.952 0,-3.148 -1.066,-5.8 -3.194,-7.954 -2.131,-2.157 -4.768,-3.234 -7.913,-3.234 -3.097,0 -5.707,1.077 -7.835,3.234 -2.134,2.154 -3.197,4.806 -3.197,7.954 0,3.145 1.063,5.798 3.197,7.952 2.128,2.156 4.738,3.233 7.835,3.233 M -79.16,0 v 41.998 h 6.387 V -6.319 h -39.188 v 48.317 h 6.501 V 0 Z m -43.319,4.869 c 0,1.782 -0.584,3.259 -1.747,4.422 -1.163,1.165 -2.587,1.749 -4.271,1.749 -1.609,0 -2.995,-0.584 -4.16,-1.749 -1.163,-1.163 -1.744,-2.64 -1.744,-4.422 0,-1.734 0.581,-3.195 1.744,-4.384 1.165,-1.188 2.551,-1.785 4.16,-1.785 1.684,0 3.108,0.597 4.271,1.785 1.163,1.189 1.747,2.65 1.747,4.384 m -6.018,11.112 c 3.144,0 5.781,-1.077 7.912,-3.233 2.128,-2.154 3.195,-4.807 3.195,-7.952 0,-3.148 -1.067,-5.8 -3.195,-7.954 -2.131,-2.157 -4.768,-3.234 -7.912,-3.234 -3.097,0 -5.707,1.077 -7.838,3.234 -2.131,2.154 -3.195,4.806 -3.195,7.954 0,3.145 1.064,5.798 3.195,7.952 2.131,2.156 4.741,3.233 7.838,3.233 m -54.915,-22.3 20.837,22.3 -13.854,13.864 32.093,12.341 v -6.58 l -19.835,-7.656 11.327,-11.372 -21.394,-22.897 z m -7.633,0 h -35.769 v 48.242 h 35.769 v -6.392 h -29.347 V 0.075 h 29.347 z m -47.14,37.838 c 0,1.783 -0.607,3.267 -1.819,4.459 -1.215,1.188 -2.712,1.783 -4.495,1.783 -1.707,0 -3.171,-0.595 -4.383,-1.783 -1.212,-1.192 -1.822,-2.676 -1.822,-4.459 0,-1.736 0.61,-3.198 1.822,-4.388 1.212,-1.19 2.676,-1.783 4.383,-1.783 1.783,0 3.28,0.593 4.495,1.783 1.212,1.19 1.819,2.652 1.819,4.388 m -0.222,-27.32 c 0,1.76 -0.608,3.238 -1.82,4.444 -1.214,1.201 -2.711,1.8 -4.495,1.8 -1.708,0 -3.176,-0.599 -4.401,-1.8 -1.228,-1.206 -1.838,-2.684 -1.838,-4.444 0,-1.733 0.61,-3.195 1.838,-4.384 1.225,-1.188 2.693,-1.785 4.401,-1.785 1.784,0 3.281,0.597 4.495,1.785 1.212,1.189 1.82,2.651 1.82,4.384 m -6.092,37.724 c 3.144,0 5.782,-1.009 7.91,-3.028 2.131,-2.019 3.195,-4.503 3.195,-7.454 0,-2.896 -1.064,-5.348 -3.195,-7.357 -2.128,-2.007 -4.766,-3.011 -7.91,-3.011 -3.072,0 -5.676,1.004 -7.819,3.011 -2.144,2.009 -3.213,4.461 -3.213,7.357 0,2.951 1.069,5.435 3.213,7.454 2.143,2.019 4.747,3.028 7.819,3.028 m -0.223,-27.318 c 3.146,0 5.783,-1.016 7.913,-3.045 2.128,-2.033 3.192,-4.511 3.192,-7.434 0,-2.898 -1.064,-5.354 -3.192,-7.359 -2.13,-2.006 -4.767,-3.008 -7.913,-3.008 -3.096,0 -5.707,1.002 -7.838,3.008 -2.13,2.005 -3.194,4.461 -3.194,7.359 0,2.923 1.064,5.401 3.194,7.434 2.131,2.029 4.742,3.045 7.838,3.045 m -94.367,27.393 20.357,-48.317 h -6.912 l -16.974,40.103 -17.01,-40.103 h -6.947 l 20.466,48.317 z m -91.699,-27.316 h -11.404 V -6.319 h -6.389 v 21.001 h -11.477 v 6.319 h 11.477 v 20.997 h 6.389 V 21.001 h 11.404 z m -73.489,-21.001 20.84,22.3 -13.857,13.864 32.093,12.341 v -6.58 l -19.835,-7.656 11.33,-11.372 -21.395,-22.897 z m -9.257,11.188 c 0,1.782 -0.584,3.259 -1.747,4.422 -1.162,1.165 -2.587,1.749 -4.269,1.749 -1.612,0 -3.001,-0.584 -4.163,-1.749 -1.163,-1.163 -1.747,-2.64 -1.747,-4.422 0,-1.734 0.584,-3.195 1.747,-4.384 1.162,-1.188 2.551,-1.785 4.163,-1.785 1.682,0 3.107,0.597 4.269,1.785 1.163,1.189 1.747,2.65 1.747,4.384 m -6.016,11.112 c 3.143,0 5.779,-1.077 7.91,-3.233 2.13,-2.154 3.195,-4.807 3.195,-7.952 0,-3.148 -1.065,-5.8 -3.195,-7.954 -2.131,-2.157 -4.767,-3.234 -7.91,-3.234 -3.098,0 -5.71,1.077 -7.841,3.234 -2.128,2.154 -3.191,4.806 -3.191,7.954 0,3.145 1.063,5.798 3.191,7.952 2.131,2.156 4.743,3.233 7.841,3.233 M -544.509,0 v 41.998 h 6.387 V -6.319 h -39.185 v 48.317 h 6.501 V 0 Z m -43.319,4.869 c 0,1.782 -0.584,3.259 -1.746,4.422 -1.163,1.165 -2.588,1.749 -4.27,1.749 -1.608,0 -2.997,-0.584 -4.162,-1.749 -1.163,-1.163 -1.744,-2.64 -1.744,-4.422 0,-1.734 0.581,-3.195 1.744,-4.384 1.165,-1.188 2.554,-1.785 4.162,-1.785 1.682,0 3.107,0.597 4.27,1.785 1.162,1.189 1.746,2.65 1.746,4.384 m -6.016,11.112 c 3.146,0 5.781,-1.077 7.913,-3.233 2.128,-2.154 3.193,-4.807 3.193,-7.952 0,-3.148 -1.065,-5.8 -3.193,-7.954 -2.132,-2.157 -4.767,-3.234 -7.913,-3.234 -3.098,0 -5.707,1.077 -7.84,3.234 -2.128,2.154 -3.192,4.806 -3.192,7.954 0,3.145 1.064,5.798 3.192,7.952 2.133,2.156 4.742,3.233 7.84,3.233 m -48.967,1.599 c -0.1,1.733 0.432,3.27 1.597,4.609 1.162,1.336 2.712,1.98 4.643,1.934 1.759,-0.053 3.225,-0.72 4.401,-2.009 1.176,-1.29 1.7,-2.824 1.581,-4.609 -0.101,-1.56 -0.709,-2.904 -1.822,-4.033 -1.113,-1.126 -2.499,-1.69 -4.16,-1.69 -1.832,-0.049 -3.307,0.501 -4.42,1.654 -1.113,1.152 -1.721,2.533 -1.82,4.144 m 23.583,-0.075 c 0.052,4.98 -1.637,9.231 -5.068,12.748 -3.428,3.518 -7.547,5.255 -12.348,5.203 -4.83,-0.047 -8.891,-1.832 -12.184,-5.349 -3.294,-3.521 -4.942,-7.695 -4.942,-12.527 0.049,-4.708 1.721,-8.777 5.017,-12.211 3.29,-3.431 7.329,-5.172 12.109,-5.219 4.754,-0.051 8.832,1.651 12.237,5.108 3.404,3.457 5.133,7.542 5.179,12.247 m 6.691,0 c -0.052,-6.59 -2.424,-12.195 -7.116,-16.815 -4.692,-4.625 -10.358,-6.931 -16.991,-6.931 -6.613,0 -12.22,2.32 -16.828,6.965 -4.606,4.645 -6.957,10.241 -7.058,16.781 -0.049,6.69 2.255,12.433 6.911,17.226 4.653,4.794 10.313,7.192 16.975,7.192 6.685,0 12.387,-2.398 17.103,-7.192 4.718,-4.793 7.051,-10.536 7.004,-17.226 m -56.171,-2.823 h -11.403 V -6.319 h -6.39 v 21.001 h -11.478 v 6.319 h 11.478 v 20.997 h 6.39 V 21.001 h 11.403 z m -93.783,-21.001 h -6.314 v 48.242 h 6.314 z m -77.738,23.974 c 0,4.981 -1.697,9.247 -5.088,12.803 -3.393,3.555 -7.392,5.273 -11.998,5.148 -4.879,-0.051 -8.977,-1.835 -12.293,-5.353 -3.32,-3.517 -4.978,-7.768 -4.978,-12.748 0.148,-4.658 1.857,-8.702 5.125,-12.136 3.27,-3.431 7.267,-5.172 11.998,-5.219 4.555,0.047 8.53,1.801 11.922,5.258 3.393,3.457 5.165,7.537 5.312,12.247 m 6.575,-0.15 c -0.122,-6.59 -2.49,-12.195 -7.093,-16.815 -4.607,-4.625 -10.215,-6.931 -16.828,-6.931 -6.487,0 -12.033,2.32 -16.64,6.965 -4.604,4.645 -6.932,10.241 -6.981,16.781 -0.075,6.789 2.195,12.556 6.814,17.302 4.617,4.744 10.221,7.116 16.807,7.116 6.662,0 12.328,-2.385 16.994,-7.154 4.669,-4.768 6.976,-10.525 6.927,-17.264 m -59.024,14.014 c 0,1.783 -0.607,3.267 -1.819,4.459 -1.215,1.188 -2.712,1.783 -4.495,1.783 -1.71,0 -3.171,-0.595 -4.383,-1.783 -1.215,-1.192 -1.819,-2.676 -1.819,-4.459 0,-1.736 0.604,-3.198 1.819,-4.388 1.212,-1.19 2.673,-1.783 4.383,-1.783 1.783,0 3.28,0.593 4.495,1.783 1.212,1.19 1.819,2.652 1.819,4.388 m -0.223,-27.32 c 0,1.76 -0.607,3.238 -1.819,4.444 -1.215,1.201 -2.713,1.8 -4.495,1.8 -1.708,0 -3.177,-0.599 -4.401,-1.8 -1.226,-1.206 -1.841,-2.684 -1.841,-4.444 0,-1.733 0.615,-3.195 1.841,-4.384 1.224,-1.188 2.693,-1.785 4.401,-1.785 1.782,0 3.28,0.597 4.495,1.785 1.212,1.189 1.819,2.651 1.819,4.384 m -6.091,37.724 c 3.145,0 5.782,-1.009 7.913,-3.028 2.128,-2.019 3.192,-4.503 3.192,-7.454 0,-2.896 -1.064,-5.348 -3.192,-7.357 -2.131,-2.007 -4.768,-3.011 -7.913,-3.011 -3.07,0 -5.678,1.004 -7.82,3.011 -2.143,2.009 -3.212,4.461 -3.212,7.357 0,2.951 1.069,5.435 3.212,7.454 2.142,2.019 4.75,3.028 7.82,3.028 m -0.223,-27.318 c 3.146,0 5.782,-1.016 7.912,-3.045 2.129,-2.033 3.196,-4.511 3.196,-7.434 0,-2.898 -1.067,-5.354 -3.196,-7.359 -2.13,-2.006 -4.766,-3.008 -7.912,-3.008 -3.097,0 -5.707,1.002 -7.838,3.008 -2.131,2.005 -3.194,4.461 -3.194,7.359 0,2.923 1.063,5.401 3.194,7.434 2.131,2.029 4.741,3.045 7.838,3.045 m -19.252,-20.924 h -35.766 v 48.242 h 35.766 v -6.392 h -29.341 V 0.075 h 29.341 z m -46.29,11.188 c 0,1.782 -0.582,3.259 -1.744,4.422 -1.166,1.165 -2.588,1.749 -4.272,1.749 -1.612,0 -2.998,-0.584 -4.161,-1.749 -1.165,-1.163 -1.746,-2.64 -1.746,-4.422 0,-1.734 0.581,-3.195 1.746,-4.384 1.163,-1.188 2.549,-1.785 4.161,-1.785 1.684,0 3.106,0.597 4.272,1.785 1.162,1.189 1.744,2.65 1.744,4.384 m -6.016,11.112 c 3.143,0 5.782,-1.077 7.91,-3.233 2.131,-2.154 3.195,-4.807 3.195,-7.952 0,-3.148 -1.064,-5.8 -3.195,-7.954 -2.128,-2.157 -4.767,-3.234 -7.91,-3.234 -3.096,0 -5.709,1.077 -7.837,3.234 -2.131,2.154 -3.196,4.806 -3.196,7.954 0,3.145 1.065,5.798 3.196,7.952 2.128,2.156 4.741,3.233 7.837,3.233 m -18.699,-22.3 h -6.314 v 48.242 h 6.314 z m -16.762,11.188 c 0,1.782 -0.581,3.259 -1.745,4.422 -1.165,1.165 -2.589,1.749 -4.271,1.749 -1.611,0 -2.997,-0.584 -4.16,-1.749 -1.165,-1.163 -1.746,-2.64 -1.746,-4.422 0,-1.734 0.581,-3.195 1.746,-4.384 1.163,-1.188 2.549,-1.785 4.16,-1.785 1.682,0 3.106,0.597 4.271,1.785 1.164,1.189 1.745,2.65 1.745,4.384 m -6.016,11.112 c 3.143,0 5.782,-1.077 7.91,-3.233 2.131,-2.154 3.195,-4.807 3.195,-7.952 0,-3.148 -1.064,-5.8 -3.195,-7.954 -2.128,-2.157 -4.767,-3.234 -7.91,-3.234 -3.096,0 -5.709,1.077 -7.837,3.234 -2.131,2.154 -3.195,4.806 -3.195,7.954 0,3.145 1.064,5.798 3.195,7.952 2.128,2.156 4.741,3.233 7.837,3.233 m -102.766,20.85 8.879,-13.677 8.842,13.677 z m 27.897,5.02 -15.564,-23.972 15.675,-24.198 h -6.944 l -12.26,18.882 -12.219,-18.882 h -6.872 l 15.675,24.123 -15.675,24.047 z m -48.557,-36.982 c 0,1.782 -0.581,3.259 -1.744,4.422 -1.165,1.165 -2.59,1.749 -4.271,1.749 -1.612,0 -2.997,-0.584 -4.161,-1.749 -1.165,-1.163 -1.747,-2.64 -1.747,-4.422 0,-1.734 0.582,-3.195 1.747,-4.384 1.164,-1.188 2.549,-1.785 4.161,-1.785 1.681,0 3.106,0.597 4.271,1.785 1.163,1.189 1.744,2.65 1.744,4.384 m -6.015,11.112 c 3.142,0 5.779,-1.077 7.91,-3.233 2.131,-2.154 3.194,-4.807 3.194,-7.952 0,-3.148 -1.063,-5.8 -3.194,-7.954 -2.131,-2.157 -4.768,-3.234 -7.91,-3.234 -3.097,0 -5.71,1.077 -7.838,3.234 -2.131,2.154 -3.195,4.806 -3.195,7.954 0,3.145 1.064,5.798 3.195,7.952 2.128,2.156 4.741,3.233 7.838,3.233 m -18.699,-22.3 h -6.314 v 48.242 h 6.314 z m -33.878,14.237 21.174,-8.66 v -6.431 l -32.725,13.194 15.153,12.859 -14.598,12.712 32.17,12.262 v -6.389 l -20.097,-7.693 11.738,-10.297 z m -49.265,9.662 c -0.099,1.733 0.433,3.27 1.598,4.609 1.164,1.336 2.712,1.98 4.643,1.934 1.758,-0.053 3.227,-0.72 4.402,-2.009 1.175,-1.29 1.702,-2.824 1.577,-4.609 -0.098,-1.56 -0.706,-2.904 -1.819,-4.033 -1.113,-1.126 -2.501,-1.69 -4.16,-1.69 -1.832,-0.049 -3.306,0.501 -4.419,1.654 -1.116,1.152 -1.724,2.533 -1.822,4.144 m 23.588,-0.075 c 0.049,4.98 -1.64,9.231 -5.072,12.748 -3.427,3.518 -7.546,5.255 -12.35,5.203 -4.827,-0.047 -8.889,-1.832 -12.182,-5.349 -3.293,-3.521 -4.941,-7.695 -4.941,-12.527 0.05,-4.708 1.72,-8.777 5.013,-12.211 3.294,-3.431 7.332,-5.172 12.11,-5.219 4.755,-0.051 8.835,1.651 12.239,5.108 3.405,3.457 5.134,7.542 5.183,12.247 m 6.685,0 c -0.05,-6.59 -2.422,-12.195 -7.113,-16.815 -4.692,-4.625 -10.356,-6.931 -16.994,-6.931 -6.61,0 -12.221,2.32 -16.824,6.965 -4.607,4.645 -6.961,10.241 -7.057,16.781 -0.052,6.69 2.25,12.433 6.908,17.226 4.653,4.794 10.312,7.192 16.973,7.192 6.688,0 12.389,-2.398 17.105,-7.192 4.718,-4.793 7.051,-10.536 7.002,-17.226 m -58.696,-12.636 c 0,1.782 -0.581,3.259 -1.746,4.422 -1.163,1.165 -2.588,1.749 -4.273,1.749 -1.608,0 -2.994,-0.584 -4.16,-1.749 -1.162,-1.163 -1.743,-2.64 -1.743,-4.422 0,-1.734 0.581,-3.195 1.743,-4.384 1.166,-1.188 2.552,-1.785 4.16,-1.785 1.685,0 3.11,0.597 4.273,1.785 1.165,1.189 1.746,2.65 1.746,4.384 m -6.019,11.112 c 3.146,0 5.783,-1.077 7.913,-3.233 2.131,-2.154 3.196,-4.807 3.196,-7.952 0,-3.148 -1.065,-5.8 -3.196,-7.954 -2.13,-2.157 -4.767,-3.234 -7.913,-3.234 -3.092,0 -5.706,1.077 -7.837,3.234 -2.127,2.154 -3.195,4.806 -3.195,7.954 0,3.145 1.068,5.798 3.195,7.952 2.131,2.156 4.745,3.233 7.837,3.233"
             style="fill:#ffffff;fill-opacity:1;fill-rule:nonzero;stroke:none"
             id="path468" />
        </g>
        <g
           id="g470"
           transform="translate(74.958,276.2734)">
          <path
             d="m 0,0 c 0,-2.408 -1.298,-3.636 -3.842,-3.636 -1.079,0 -2.037,0.382 -2.844,1.067 -0.793,0.709 -1.204,1.554 -1.204,2.486 0,2.3 1.368,3.476 4.048,3.476 C -1.298,3.393 0,2.269 0,0 m -13.249,0 c 0,-2.408 -1.272,-3.636 -3.841,-3.636 -1.121,0 -2.066,0.382 -2.845,1.067 -0.806,0.709 -1.204,1.554 -1.204,2.486 0,2.3 1.329,3.476 4.049,3.476 2.569,0 3.841,-1.124 3.841,-3.393 M 9.395,-25.267 c 0,-0.82 -0.414,-1.697 -1.234,-2.514 -0.874,-0.877 -1.765,-1.314 -2.72,-1.314 h -33.333 c -2.638,0 -3.952,1.996 -3.952,6.042 0,3.202 0.506,5.253 1.643,6.21 l 6.192,3.935 V -20.92 H 1.354 c 0,3.639 0.436,6.208 1.422,7.685 0.888,1.479 3.13,3.007 6.619,4.567 z"
             style="fill:#ffffff;fill-opacity:1;fill-rule:nonzero;stroke:none"
             id="path472" />
        </g>
        <g
           id="g474"
           transform="translate(98.4336,259.3467)">
          <path
             d="m 0,0 h -7.902 v 33.252 l 4.456,-3.418 C -1.163,28.002 0,26.77 0,26.142 Z m 26.386,-12.275 h -9.05 c -0.82,-4.35 -1.887,-7.441 -3.185,-9.328 -2.039,-2.954 -5.211,-4.43 -9.557,-4.43 -2.925,0 -5.757,1.176 -8.435,3.418 -2.722,2.297 -4.061,4.705 -4.061,7.249 V -4.212 H 0 C 0,-4.84 -0.028,-5.66 -0.177,-6.836 -0.231,-7.983 -0.285,-8.86 -0.285,-9.408 c 0,-5.715 1.65,-8.559 4.879,-8.559 1.108,0 2.175,0.467 3.158,1.425 1.01,0.955 1.489,1.938 1.489,2.896 v 38.884 c 0,1.97 0.904,3.556 2.695,4.76 1.175,0.737 2.885,1.804 5.237,3.254 V -4.212 h 9.213 z"
             style="fill:#ffffff;fill-opacity:1;fill-rule:nonzero;stroke:none"
             id="path476" />
        </g>
        <path
           d="m 172.905,247.071 h -49.903 v 8.063 h 49.903 z"
           style="fill:#ffffff;fill-opacity:1;fill-rule:nonzero;stroke:none"
           id="path478" />
        <g
           id="g480"
           transform="translate(209.6562,255.1348)">
          <path
             d="M 0,0 V 2.956 C 0,3.747 -0.519,4.43 -1.569,4.978 -2.61,5.496 -3.664,5.771 -4.622,5.771 H -29.325 V 0 Z m 7.932,-5.056 c 0,-1.066 -1.041,-2.052 -3.037,-3.007 h -42.11 V 9.571 l 7.89,4.785 V 9.49 c 0.573,0.821 1.627,1.56 3.091,2.269 1.473,0.656 2.787,1.012 3.853,1.012 H 1.846 c 1.342,0 2.707,-0.411 4.061,-1.147 C 7.288,10.858 7.932,9.9 7.932,8.751 Z"
             style="fill:#ffffff;fill-opacity:1;fill-rule:nonzero;stroke:none"
             id="path482" />
        </g>
        <g
           id="g484"
           transform="translate(231.3281,247.0693)">
          <path
             d="m 0,0 h -8.012 v 37.488 c 0,1.887 0.888,3.501 2.679,4.866 0.451,0.359 2.255,1.397 5.333,3.174 z"
             style="fill:#ffffff;fill-opacity:1;fill-rule:nonzero;stroke:none"
             id="path486" />
        </g>
        <g
           id="g488"
           transform="translate(252.958,262)">
          <path
             d="m 0,0 c -0.672,-0.109 -1.64,-0.329 -2.981,-0.576 -0.86,-0.299 -1.654,-0.955 -2.477,-2.076 -0.846,-1.07 -1.243,-1.998 -1.243,-2.79 V -6.646 H 0 Z m 17.993,-6.867 v -8.064 H 7.89 c 0.064,-4.675 -0.426,-7.956 -1.452,-9.845 -1.572,-2.759 -4.714,-4.153 -9.542,-4.153 -3.075,0 -5.769,0.708 -8.107,2.214 -2.666,1.611 -3.773,3.742 -3.363,6.368 H 0 v 5.416 h -14.574 v 8.064 c 0,4.596 1.092,7.96 3.471,10.093 1.574,1.559 4.402,2.816 8.463,3.856 5.046,1.285 8.588,2.406 10.486,3.335 L 7.89,-6.867 Z"
             style="fill:#ffffff;fill-opacity:1;fill-rule:nonzero;stroke:none"
             id="path490" />
        </g>
        <g
           id="g492"
           transform="translate(336.8506,255.2178)">
          <path
             d="M 0,0 V 5.99 C -0.849,6.234 -1.506,6.343 -1.954,6.343 -3.158,6.343 -4.565,5.824 -6.07,4.866 -7.602,3.854 -8.326,2.845 -8.326,1.804 V 0 Z m 22.915,-9.244 c 0,-2.432 -1.149,-4.563 -3.568,-6.315 -2.367,-1.78 -4.964,-2.654 -7.806,-2.654 -3.476,0 -6.099,0.96 -7.905,2.901 -1.475,1.474 -2.612,3.854 -3.376,7.164 H -68.361 V 0 h 52.255 c 0.233,0.93 0.272,1.669 0.272,2.217 0,3.607 1.534,6.262 4.514,7.957 1.556,0.846 4.785,1.774 9.679,2.895 4.539,0.958 7.698,2.079 9.379,3.393 V -7.982 c 0,-0.932 0.356,-1.724 1.093,-2.38 0.753,-0.631 1.627,-0.958 2.652,-0.958 0.769,0 1.56,0.244 2.339,0.792 0.794,0.547 1.189,1.149 1.189,1.805 v 38.721 c 0,1.695 0.972,3.2 2.901,4.431 l 5.003,3.088 z"
             style="fill:#ffffff;fill-opacity:1;fill-rule:nonzero;stroke:none"
             id="path494" />
        </g>
        <g
           id="g496"
           transform="translate(373.3828,247.0693)">
          <path
             d="m 0,0 h -8.012 v 37.488 c 0,1.887 0.904,3.501 2.653,4.866 0.493,0.359 2.296,1.397 5.359,3.174 z"
             style="fill:#ffffff;fill-opacity:1;fill-rule:nonzero;stroke:none"
             id="path498" />
        </g>
        <g
           id="g500"
           transform="translate(394.1641,255.2178)">
          <path
             d="m 0,0 v 6.537 h -1.477 c -1.258,0 -2.555,-0.905 -3.869,-2.683 -0.848,-1.067 -1.23,-2.133 -1.23,-3.143 0,-0.356 0.083,-0.602 0.288,-0.711 z m 7.877,-14.984 c 0,-2.051 -1.231,-3.777 -3.789,-5.114 -2.242,-1.174 -4.578,-1.805 -7.041,-1.805 -3.008,0 -5.606,0.711 -7.793,2.132 -2.406,1.506 -3.595,3.583 -3.595,6.206 H 0 v 5.281 h -14.341 v 9.896 c 0,3.802 1.298,6.701 3.869,8.642 1.613,1.176 4.566,2.377 8.749,3.501 4.677,1.176 7.876,2.242 9.6,3.171 z"
             style="fill:#ffffff;fill-opacity:1;fill-rule:nonzero;stroke:none"
             id="path502" />
        </g>
        <g
           id="g504"
           transform="translate(459.5996,247.0693)">
          <path
             d="m 0,0 h -36.04 v 8.063 h 22.778 v 4.597 c -1.038,1.313 -2.078,1.97 -3.174,1.97 H -31.76 v 10.445 c 2.639,-2.299 4.524,-3.446 5.66,-3.446 -1.08,0 -0.339,0.055 2.201,0.192 2.517,0.138 4.17,0.19 4.949,0.19 9.052,0 13.562,-1.776 13.562,-5.36 V 8.063 H 0 Z"
             style="fill:#ffffff;fill-opacity:1;fill-rule:nonzero;stroke:none"
             id="path506" />
        </g>
        <g
           id="g508"
           transform="translate(521.7949,237.2793)">
          <path
             d="m 0,0 c 0,-2.271 -1.339,-3.446 -3.965,-3.446 -2.639,0 -3.95,1.175 -3.95,3.446 0,1.038 0.355,1.861 1.093,2.544 0.794,0.683 1.694,1.009 2.857,1.009 C -1.339,3.553 0,2.38 0,0 m -13.126,0 c 0,-2.271 -1.324,-3.446 -3.963,-3.446 -2.585,0 -3.911,1.175 -3.911,3.446 0,1.038 0.343,1.861 1.105,2.544 0.688,0.683 1.698,1.009 2.806,1.009 2.639,0 3.963,-1.173 3.963,-3.553 M 0.999,12.935 c 0,-0.574 -0.355,-1.259 -1.175,-2.025 -0.807,-0.736 -1.547,-1.121 -2.149,-1.121 h -61.769 v 8.066 h 57.245 c 0,4.594 0.382,7.33 1.148,8.287 2.216,1.476 4.472,2.924 6.7,4.376 z"
             style="fill:#ffffff;fill-opacity:1;fill-rule:nonzero;stroke:none"
             id="path510" />
        </g>
        <g
           id="g512"
           transform="translate(592.8789,236.9521)">
          <path
             d="m 0,0 c 0,-2.432 -1.288,-3.638 -3.831,-3.638 -1.189,0 -2.159,0.384 -2.925,1.04 -0.765,0.709 -1.121,1.583 -1.121,2.598 0,2.243 1.298,3.364 3.898,3.364 C -1.313,3.364 0,2.243 0,0 m 22.694,18.183 v -8.067 h -35.136 -37.954 c 0,-3.609 -0.494,-6.262 -1.464,-8.04 -1.381,-2.485 -3.91,-3.744 -7.602,-3.744 -2.611,0 -4.991,0.819 -6.986,2.351 -2.108,1.56 -3.075,3.447 -3.034,5.714 h 9.843 c 0,1.205 -0.095,3.008 -0.233,5.498 -0.138,2.433 -0.218,4.266 -0.218,5.467 0,2.108 0.586,3.611 1.736,4.622 0.862,0.657 3.514,2.079 7.958,4.156 v -7.957 h 38.364 8.912 v 2.846 c 0,2.57 0.602,4.431 1.778,5.629 0.163,0.058 2.161,1.37 6.127,3.886 V 18.183 Z"
             style="fill:#ffffff;fill-opacity:1;fill-rule:nonzero;stroke:none"
             id="path514" />
        </g>
        <g
           id="g516"
           transform="translate(666.0518,247.0693)">
          <path
             d="m 0,0 h -52.175 v 8.063 h 38.788 v 31.34 c 0,1.068 1.026,2.214 3.078,3.473 1.038,0.573 2.598,1.451 4.662,2.652 V 8.063 H 0 Z"
             style="fill:#ffffff;fill-opacity:1;fill-rule:nonzero;stroke:none"
             id="path518" />
        </g>
        <g
           id="g520"
           transform="translate(683.5391,250.377)">
          <path
             d="m 0,0 c 0,-0.628 -0.371,-1.339 -1.013,-2.133 -0.723,-0.792 -1.476,-1.173 -2.145,-1.173 h -16.353 v 8.063 h 11.634 v 31.421 c 0,1.038 1.054,2.214 3.133,3.472 L 0,42.222 Z"
             style="fill:#ffffff;fill-opacity:1;fill-rule:nonzero;stroke:none"
             id="path522" />
        </g>
        <g
           id="g524"
           transform="translate(758.8301,255.1348)">
          <path
             d="M 0,0 V -8.063 H -13.331 V 6.29 l -1.968,0.491 c -4.894,0 -7.248,-3.607 -7.248,-10.882 0,-0.82 0.016,-2.13 0.111,-3.854 0.123,-1.749 0.166,-3.036 0.166,-3.91 0,-2.245 -1.985,-4.514 -5.976,-6.728 -3.692,-2.053 -6.905,-3.088 -9.678,-3.088 -3.939,0 -7.398,1.09 -10.354,3.278 -3.21,2.271 -4.825,5.115 -4.825,8.588 0,4.131 2.38,7.656 7.108,10.611 h 0.81 c 0,-0.713 -0.067,-1.723 -0.151,-3.093 -0.111,-1.423 -0.191,-2.461 -0.191,-3.117 0,-2.678 0.589,-4.677 1.722,-5.987 1.121,-1.287 3.172,-1.995 6.167,-1.995 3.198,0 5.385,0.902 6.605,2.569 0.997,1.393 1.487,3.526 1.487,6.509 v 2.049 2.108 c 0,2.512 0.249,4.511 0.864,6.015 1.173,3.118 3.213,5.222 6.135,6.398 0.999,0.438 3.872,1.066 8.521,1.941 3.664,0.711 6.521,1.803 8.585,3.309 L -5.441,0 Z"
             style="fill:#ffffff;fill-opacity:1;fill-rule:nonzero;stroke:none"
             id="path526" />
        </g>
        <g
           id="g528"
           transform="translate(796.8818,277.3125)">
          <path
             d="m 0,0 c 0,-1.038 -0.382,-1.889 -1.16,-2.517 -0.755,-0.629 -1.724,-0.955 -2.819,-0.955 -2.639,0 -3.939,1.201 -3.939,3.472 0,2.352 1.342,3.527 4.007,3.527 1.013,0 1.902,-0.355 2.694,-1.066 C -0.423,1.724 0,0.903 0,0 m 33.593,-22.179 v -8.062 h -73.912 v 8.062 h 32.84 v 1.259 c -0.029,2.189 0.737,3.828 2.408,4.924 1.967,0.983 3.854,1.97 5.795,2.978 v -9.161 z"
             style="fill:#ffffff;fill-opacity:1;fill-rule:nonzero;stroke:none"
             id="path530" />
        </g>
        <g
           id="g532"
           transform="translate(892.1221,255.1348)">
          <path
             d="M 0,0 V 3.282 C 0,3.91 -0.561,4.486 -1.788,5.006 -3.006,5.496 -4.021,5.771 -4.895,5.771 H -33.18 V 0 Z M 7.946,-5.632 5.128,-8.063 H -63.809 V 0 h 22.547 v 30.136 c 0,1.915 0.901,3.443 2.665,4.593 1.804,0.875 3.598,1.833 5.417,2.735 V 10.063 c 2.87,2.051 4.947,3.118 6.163,3.118 H 1.284 c 0.932,0 2.3,-0.6 4.062,-1.752 1.723,-1.201 2.6,-2.159 2.6,-2.98 z"
             style="fill:#ffffff;fill-opacity:1;fill-rule:nonzero;stroke:none"
             id="path534" />
        </g>
        <g
           id="g536"
           transform="translate(920.2178,262)">
          <path
             d="m 0,0 c -0.628,-0.109 -1.627,-0.329 -2.953,-0.576 -0.82,-0.299 -1.666,-0.955 -2.515,-2.076 -0.807,-1.07 -1.201,-1.998 -1.201,-2.79 V -6.646 H 0 Z m 31.667,-6.867 v -8.064 H 7.918 c 0.067,-4.675 -0.399,-7.956 -1.463,-9.845 -1.531,-2.759 -4.703,-4.153 -9.556,-4.153 -3.049,0 -5.756,0.708 -8.053,2.214 -2.653,1.611 -3.802,3.742 -3.459,6.368 H 0 v 5.416 h -14.613 v 8.064 c 0,4.596 1.188,7.96 3.472,10.093 1.624,1.559 4.472,2.816 8.531,3.856 5.045,1.285 8.572,2.406 10.5,3.335 L 7.918,-6.867 Z"
             style="fill:#ffffff;fill-opacity:1;fill-rule:nonzero;stroke:none"
             id="path538" />
        </g>
        <g
           id="g540"
           transform="translate(982.5918,250.377)">
          <path
             d="m 0,0 c 0,-0.628 -0.343,-1.339 -1.051,-2.133 -0.714,-0.792 -1.381,-1.173 -2.12,-1.173 H -33.153 V 4.757 H -7.89 v 31.421 c 0,1.038 1.054,2.214 3.175,3.472 L 0,42.222 Z"
             style="fill:#ffffff;fill-opacity:1;fill-rule:nonzero;stroke:none"
             id="path542" />
        </g>
        <g
           id="g544"
           transform="translate(996.25,247.0693)">
          <path
             d="m 0,0 h -8.053 v 37.488 c 0,1.887 0.916,3.501 2.668,4.866 0.478,0.359 2.213,1.397 5.385,3.174 z"
             style="fill:#ffffff;fill-opacity:1;fill-rule:nonzero;stroke:none"
             id="path546" />
        </g>
        <g
           id="g548"
           transform="translate(1100.9658,247.0693)">
          <path
             d="m 0,0 h -82.676 v 8.063 h 22.82 v 4.597 c -1.012,1.313 -2.05,1.97 -3.171,1.97 h -15.315 v 10.445 c 2.64,-2.299 4.513,-3.446 5.676,-3.446 -1.082,0 -0.346,0.055 2.201,0.192 2.515,0.138 4.154,0.19 4.933,0.19 9.026,0 13.553,-1.776 13.553,-5.36 V 8.063 H 0 Z"
             style="fill:#ffffff;fill-opacity:1;fill-rule:nonzero;stroke:none"
             id="path550" />
        </g>
        <g
           id="g552"
           transform="translate(1135.1191,256.1484)">
          <path
             d="m 0,0 c 0,3.773 -1.45,5.66 -4.318,5.66 h -0.589 v -6.455 h 4.661 c 0,0.058 0.083,0.192 0.138,0.357 C -0.041,-0.272 0,-0.138 0,0 M -12.852,-0.795 V 5.66 c -1.434,-0.74 -2.569,-1.423 -3.199,-2.079 -1.227,-1.365 -1.845,-2.845 -1.775,-4.376 z m 39.744,-8.283 h -62.057 v 8.063 h 8.97 c 2.311,4.759 3.842,7.576 4.458,8.424 1.669,2.133 4.376,4.129 8.216,6.099 l 0.669,0.407 v 0.877 c 0,2.326 0.808,4.267 2.394,5.798 0.259,0.219 2.104,1.614 5.551,4.103 V 14.109 l 0.75,-0.274 C 4.786,12.249 8.982,7.274 8.342,-1.015 h 18.55 z"
             style="fill:#ffffff;fill-opacity:1;fill-rule:nonzero;stroke:none"
             id="path554" />
        </g>
        <g
           id="g556"
           transform="translate(1227.0117,247.0693)">
          <path
             d="m 0,0 h -67.61 v 8.063 h 41.032 c -1.723,3.284 -2.585,5.583 -2.585,6.894 0,2.789 0.958,4.759 2.788,5.823 1.518,0.904 3.885,1.397 7.152,1.397 h 2.803 2.678 c 2.751,0 4.487,0.189 5.224,0.576 0.301,0.298 1.339,1.393 3.049,3.254 V 14.11 h -14.125 l -0.657,-0.96 c 0,-0.817 0.535,-1.855 1.547,-3.169 1.176,-1.313 2.063,-1.918 2.969,-1.918 L 0,8.063 Z"
             style="fill:#ffffff;fill-opacity:1;fill-rule:nonzero;stroke:none"
             id="path558" />
        </g>
        <g
           id="g560"
           transform="translate(1286.542,255.2178)">
          <path
             d="m 0,0 v 5.99 c -0.849,0.244 -1.464,0.353 -1.957,0.353 -1.204,0 -2.61,-0.519 -4.101,-1.477 -1.531,-1.012 -2.27,-2.021 -2.27,-3.062 V 0 Z m 22.98,-9.244 c 0,-2.432 -1.214,-4.563 -3.607,-6.315 -2.393,-1.78 -5.045,-2.654 -7.822,-2.654 -3.472,0 -6.124,0.96 -7.928,2.901 -1.451,1.474 -2.56,3.854 -3.363,7.164 h -61.8 V 0 h 45.46 c 0.177,0.93 0.272,1.669 0.272,2.217 0,3.607 1.547,6.262 4.511,7.957 1.547,0.846 4.785,1.774 9.683,2.895 4.539,0.958 7.669,2.079 9.338,3.393 V -7.982 c 0,-0.932 0.383,-1.724 1.091,-2.38 0.766,-0.631 1.641,-0.958 2.684,-0.958 0.766,0 1.529,0.244 2.336,0.792 0.808,0.547 1.204,1.149 1.204,1.805 v 38.721 c 0,1.695 0.983,3.2 2.884,4.431 l 5.057,3.088 z"
             style="fill:#ffffff;fill-opacity:1;fill-rule:nonzero;stroke:none"
             id="path562" />
        </g>
        <g
           id="g564"
           transform="translate(1323.1279,247.0693)">
          <path
             d="m 0,0 h -8.055 v 37.488 c 0,1.887 0.903,3.501 2.697,4.866 0.438,0.359 2.254,1.397 5.358,3.174 z"
             style="fill:#ffffff;fill-opacity:1;fill-rule:nonzero;stroke:none"
             id="path566" />
        </g>
        <g
           id="g568"
           transform="translate(718.6074,227.8467)">
          <path
             d="m 0,0 c 0,-2.3 -1.394,-3.446 -3.992,-3.446 -2.611,0 -3.952,1.146 -3.952,3.446 0,1.012 0.397,1.858 1.108,2.54 0.727,0.657 1.708,1.013 2.844,1.013 C -1.394,3.553 0,2.351 0,0"
             style="fill:#ffffff;fill-opacity:1;fill-rule:nonzero;stroke:none"
             id="path570" />
        </g>
        <g
           id="g572"
           transform="translate(731.6514,227.8467)">
          <path
             d="m 0,0 c 0,-2.3 -1.284,-3.446 -3.939,-3.446 -2.623,0 -3.909,1.146 -3.909,3.446 0,1.012 0.34,1.858 1.08,2.54 0.74,0.657 1.695,1.013 2.829,1.013 C -1.284,3.553 0,2.351 0,0"
             style="fill:#ffffff;fill-opacity:1;fill-rule:nonzero;stroke:none"
             id="path574" />
        </g>
        <g
           id="g576">
          <g
             id="g578" />
          <g
             id="g598">
            <g
               clip-path="url(#clipPath582)"
               opacity="0.75"
               id="g596">
              <g
                 id="g594">
                <g
                   clip-path="url(#clipPath586)"
                   id="g592">
                  <g
                     transform="translate(925.5957,694.4219)"
                     id="g590">
                    <path
                       d="M 0,0 H 400.715 V -357.133"
                       style="fill:#ffffff;fill-opacity:1;fill-rule:nonzero;stroke:none"
                       id="path588" />
                  </g>
                </g>
              </g>
            </g>
          </g>
        </g>
        <g
           id="g600">
          <g
             id="g602" />
          <g
             id="g622">
            <g
               clip-path="url(#clipPath606)"
               opacity="0.75"
               id="g620">
              <g
                 id="g618">
                <g
                   clip-path="url(#clipPath610)"
                   id="g616">
                  <g
                     transform="translate(924.833,605.5537)"
                     id="g614">
                    <path
                       d="M 0,0 H 301.721 V -268.906"
                       style="fill:#ffffff;fill-opacity:1;fill-rule:nonzero;stroke:none"
                       id="path612" />
                  </g>
                </g>
              </g>
            </g>
          </g>
        </g>
        <g
           id="g624">
          <g
             id="g626" />
          <g
             id="g646">
            <g
               clip-path="url(#clipPath630)"
               opacity="0.75"
               id="g644">
              <g
                 id="g642">
                <g
                   clip-path="url(#clipPath634)"
                   id="g640">
                  <g
                     transform="translate(924.8691,516.0693)"
                     id="g638">
                    <path
                       d="M 0,0 H 201.072 V -179.203"
                       style="fill:#ffffff;fill-opacity:1;fill-rule:nonzero;stroke:none"
                       id="path636" />
                  </g>
                </g>
              </g>
            </g>
          </g>
        </g>
        <path
           d="M 55.306,692.755 H 117.74 V 335.809 H 55.306 Z"
           style="fill:#ffffff;fill-opacity:1;fill-rule:nonzero;stroke:none"
           id="path648" />
        <g
           id="g650"
           transform="translate(145.3184,335.8096)">
          <path
             d="M 0,0 V 356.946 H 60.555 L 189.27,116.515 v 240.431 h 57.808 V 0 H 184.564 L 57.783,235.479 V 0 Z"
             style="fill:#ffffff;fill-opacity:1;fill-rule:nonzero;stroke:none"
             id="path652" />
        </g>
        <g
           id="g654"
           transform="translate(488.502,632.5674)">
          <path
             d="m 0,0 v -102.021 h 34.418 c 24.789,0 41.396,1.851 49.719,5.629 8.375,3.756 14.876,9.603 19.664,17.653 4.76,8.025 7.127,17.354 7.127,27.961 0,13.08 -3.346,23.907 -9.985,32.42 C 94.24,-9.875 85.85,-4.57 75.679,-2.421 68.143,-0.789 53.049,0 30.366,0 Z M -62.395,-296.758 V 60.188 h 100.54 c 38.105,0 62.949,-1.795 74.521,-5.359 17.816,-5.356 32.705,-16.996 44.7,-34.947 11.953,-17.951 17.978,-41.153 17.978,-69.547 0,-21.919 -3.481,-40.36 -10.376,-55.319 -6.961,-14.933 -15.72,-26.682 -26.394,-35.194 -10.689,-8.515 -21.527,-14.17 -32.57,-16.918 -14.987,-3.428 -36.691,-5.141 -65.085,-5.141 H 0 v -134.521 z"
             style="fill:#ffffff;fill-opacity:1;fill-rule:nonzero;stroke:none"
             id="path656" />
        </g>
        <g
           id="g658"
           transform="translate(752.5127,335.8096)">
          <path
             d="m 0,0 v 296.758 h -86.338 c 0,0 -11.131,48.133 -51.222,60.188 h 297.555 l 68.492,-60.188 H 62.433 V 0 Z"
             style="fill:#ffffff;fill-opacity:1;fill-rule:nonzero;stroke:none"
             id="path660" />
        </g>
      </g>
    </g>
  </g>
</svg>
