<?xml version="1.0" encoding="UTF-8" standalone="no"?>
<!-- Created with Inkscape (http://www.inkscape.org/) -->

<svg
   version="1.1"
   id="svg2"
   width="710.81445"
   height="83.497223"
   viewBox="0 0 710.81446 83.497224"
   xml:space="preserve"
   sodipodi:docname="logo_entreprises_vectorized.svg"
   inkscape:version="1.4-rc1 (61ec3f243c, 2024-09-26)"
   xmlns:inkscape="http://www.inkscape.org/namespaces/inkscape"
   xmlns:sodipodi="http://sodipodi.sourceforge.net/DTD/sodipodi-0.dtd"
   xmlns="http://www.w3.org/2000/svg"
   xmlns:svg="http://www.w3.org/2000/svg"><sodipodi:namedview
     id="namedview1"
     pagecolor="#ffffff"
     bordercolor="#000000"
     borderopacity="0.25"
     inkscape:showpageshadow="2"
     inkscape:pageopacity="0.0"
     inkscape:pagecheckerboard="0"
     inkscape:deskcolor="#d1d1d1"
     inkscape:zoom="1.2513814"
     inkscape:cx="385.17433"
     inkscape:cy="34.761584"
     inkscape:window-width="1920"
     inkscape:window-height="1011"
     inkscape:window-x="0"
     inkscape:window-y="800"
     inkscape:window-maximized="1"
     inkscape:current-layer="g10" /><defs
     id="defs6"><clipPath
       clipPathUnits="userSpaceOnUse"
       id="clipPath570"><path
         d="M 0,244.235 H 496.713 V 0 H 0 Z"
         id="path568" /></clipPath></defs><g
     id="g10"
     transform="matrix(1.3333333,0,0,-1.3333333,-8.3773334,324.79093)"><path
       d="M 6.283,243.59311 H 17.236302 V 180.97029 H 6.283 Z"
       style="fill:#007ac1;fill-opacity:1;fill-rule:nonzero;stroke:none;stroke-width:0.455306"
       id="path558" /><g
       id="g560"
       transform="matrix(0.45530624,0,0,0.45530624,22.074842,180.97038)"><path
         d="M 0,0 V 137.54 H 23.334 L 72.93,44.896 V 137.54 H 95.205 V 0 H 71.117 L 22.265,90.736 V 0 Z"
         style="fill:#007ac1;fill-opacity:1;fill-rule:nonzero;stroke:none"
         id="path562" /></g><g
       id="g564"
       transform="matrix(0.45530624,0,0,0.45530624,3.4223109,132.68369)"><g
         id="g566"
         clip-path="url(#clipPath570)"><g
           id="g572"
           transform="translate(173.2038,220.401)"><path
             d="m 0,0 v -39.311 h 13.263 c 9.552,0 15.95,0.713 19.157,2.17 3.228,1.446 5.732,3.699 7.577,6.801 1.834,3.092 2.746,6.687 2.746,10.774 0,5.04 -1.289,9.212 -3.847,12.492 -2.583,3.27 -5.816,5.313 -9.735,6.141 C 26.257,-0.304 20.441,0 11.701,0 Z m -24.041,-114.348 v 137.54 h 38.739 c 14.683,0 24.256,-0.692 28.715,-2.064 6.865,-2.065 12.602,-6.55 17.225,-13.467 4.605,-6.917 6.927,-15.857 6.927,-26.797 0,-8.447 -1.342,-15.553 -3.998,-21.317 -2.683,-5.754 -6.058,-10.281 -10.171,-13.561 -4.119,-3.281 -8.295,-5.46 -12.55,-6.519 -5.775,-1.32 -14.138,-1.98 -25.079,-1.98 H 0 v -51.835 z"
             style="fill:#007ac1;fill-opacity:1;fill-rule:nonzero;stroke:none"
             id="path574" /></g><g
           id="g576"
           transform="translate(274.9334,106.0532)"><path
             d="m 0,0 v 114.348 h -33.268 c 0,0 -4.289,18.546 -19.737,23.192 H 61.651 L 88.042,114.348 H 24.057 V 0 Z"
             style="fill:#007ac1;fill-opacity:1;fill-rule:nonzero;stroke:none"
             id="path578" /></g></g></g><path
       style="font-weight:bold;font-size:63.5989px;font-family:'DejaVu Sans', 'Open Sans', 'Segoe UI', Helvetica;-inkscape-font-specification:'DejaVu Sans Bold';letter-spacing:-7.92519px;fill:#0e1730;stroke-width:2.38495"
       d="m 142.36826,-229.75641 h 32.26526 v 9.03676 H 154.3241 v 8.63305 h 19.09831 v 9.03676 H 154.3241 v 10.62052 h 20.99261 v 9.03676 h -32.94845 z m 35.51956,0 h 13.35329 l 16.8624,31.79945 v -31.79945 h 11.33476 v 46.36385 h -13.35328 l -16.8624,-31.79945 v 31.79945 h -11.33477 z m 39.77399,0 h 42.73051 v 9.03676 h -15.37181 v 37.32709 h -11.95584 v -37.32709 h -15.40286 z m 57.97171,20.55785 c 2.50504,0 4.29583,-0.46581 5.37237,-1.39744 1.09725,-0.93163 1.64587,-2.46363 1.64587,-4.59601 0,-2.11169 -0.54862,-3.62299 -1.64587,-4.53391 -1.07654,-0.91092 -2.86733,-1.36638 -5.37237,-1.36638 h -5.03077 v 11.89374 z m -5.03077,8.2604 v 17.5456 H 258.6469 v -46.36385 h 18.25984 c 6.10732,0 10.57912,1.02479 13.4154,3.07436 2.85698,2.04957 4.28547,5.28956 4.28547,9.71995 0,3.06401 -0.7453,5.57939 -2.2359,7.54616 -1.46989,1.96676 -3.69544,3.41595 -6.67664,4.34758 1.63552,0.37265 3.09506,1.22146 4.37863,2.54644 1.30428,1.30427 2.61891,3.29174 3.94388,5.9624 l 6.49032,13.16696 h -12.7322 l -5.65186,-11.52109 c -1.13865,-2.31871 -2.29801,-3.90248 -3.47806,-4.75129 -1.15936,-0.84881 -2.71207,-1.27322 -4.65813,-1.27322 z m 29.09136,-28.81825 h 32.26526 v 9.03676 h -20.30942 v 8.63305 h 19.09831 v 9.03676 h -19.09831 v 10.62052 h 20.99261 v 9.03676 h -32.94845 z m 35.51957,0 h 19.84361 c 5.90029,0 10.42384,1.31463 13.57066,3.94388 3.16752,2.60855 4.75128,6.33504 4.75128,11.17949 0,4.86515 -1.58376,8.61235 -4.75128,11.2416 -3.14682,2.60855 -7.67037,3.91283 -13.57066,3.91283 h -7.88776 v 16.08605 h -11.95585 z m 11.95585,8.66411 v 12.94958 h 6.61454 c 2.31871,0 4.10949,-0.55897 5.37236,-1.67692 1.26287,-1.13865 1.89431,-2.74312 1.89431,-4.8134 0,-2.07027 -0.63144,-3.66439 -1.89431,-4.78234 -1.26287,-1.11795 -3.05365,-1.67692 -5.37236,-1.67692 z m 43.71785,11.89374 c 2.50503,0 4.29582,-0.46581 5.37236,-1.39744 1.09725,-0.93163 1.64587,-2.46363 1.64587,-4.59601 0,-2.11169 -0.54862,-3.62299 -1.64587,-4.53391 -1.07654,-0.91092 -2.86733,-1.36638 -5.37236,-1.36638 h -5.03078 v 11.89374 z m -5.03078,8.2604 v 17.5456 h -11.95584 v -46.36385 h 18.25984 c 6.10731,0 10.57911,1.02479 13.41539,3.07436 2.85698,2.04957 4.28547,5.28956 4.28547,9.71995 0,3.06401 -0.7453,5.57939 -2.2359,7.54616 -1.46989,1.96676 -3.69544,3.41595 -6.67664,4.34758 1.63552,0.37265 3.09507,1.22146 4.37864,2.54644 1.30427,1.30427 2.6189,3.29174 3.94387,5.9624 l 6.49032,13.16696 h -12.7322 l -5.65186,-11.52109 c -1.13865,-2.31871 -2.298,-3.90248 -3.47806,-4.75129 -1.15935,-0.84881 -2.71206,-1.27322 -4.65812,-1.27322 z m 29.09137,-28.81825 h 11.95585 v 46.36385 h -11.95585 z m 48.00333,1.45955 v 9.81311 c -2.54644,-1.13865 -5.03077,-1.99782 -7.453,-2.5775 -2.42222,-0.57967 -4.70988,-0.86951 -6.86297,-0.86951 -2.85698,0 -4.96866,0.39335 -6.33504,1.18005 -1.36639,0.78671 -2.04958,2.00817 -2.04958,3.66439 0,1.24217 0.45546,2.2152 1.36639,2.91909 0.93162,0.68319 2.60854,1.27322 5.03077,1.77009 l 5.09288,1.02479 c 5.15499,1.03514 8.81938,2.60855 10.99317,4.72023 2.17379,2.11168 3.26068,5.11358 3.26068,9.0057 0,5.11359 -1.52165,8.9229 -4.56496,11.42793 -3.0226,2.48433 -7.64967,3.7265 -13.8812,3.7265 -2.93979,0 -5.88994,-0.27949 -8.85043,-0.83846 -2.9605,-0.55898 -5.921,-1.38709 -8.88149,-2.48434 v -10.0926 c 2.96049,1.57341 5.81747,2.76382 8.57094,3.57123 2.77417,0.78671 5.44483,1.18006 8.01197,1.18006 2.60855,0 4.60637,-0.43476 5.99346,-1.30427 1.38708,-0.86952 2.08062,-2.11169 2.08062,-3.7265 0,-1.44919 -0.47616,-2.56714 -1.42849,-3.35385 -0.93162,-0.78671 -2.80522,-1.4906 -5.6208,-2.11168 l -4.62707,-1.02479 c -4.63742,-0.99373 -8.03267,-2.5775 -10.18576,-4.75129 -2.13239,-2.17379 -3.19858,-5.10323 -3.19858,-8.78832 0,-4.61672 1.4906,-8.16724 4.4718,-10.65157 2.9812,-2.48433 7.26667,-3.7265 12.85642,-3.7265 2.54644,0 5.16534,0.19668 7.8567,0.59003 2.69136,0.37265 5.47588,0.94197 8.35357,1.70798 z m 5.61443,-1.45955 H 500.831 v 9.03676 h -20.30942 v 8.63305 h 19.0983 v 9.03676 h -19.0983 v 10.62052 h 20.99261 v 9.03676 h -32.94846 z m 67.78483,1.45955 v 9.81311 c -2.54644,-1.13865 -5.03077,-1.99782 -7.453,-2.5775 -2.42222,-0.57967 -4.70987,-0.86951 -6.86296,-0.86951 -2.85699,0 -4.96867,0.39335 -6.33505,1.18005 -1.36639,0.78671 -2.04958,2.00817 -2.04958,3.66439 0,1.24217 0.45546,2.2152 1.36639,2.91909 0.93162,0.68319 2.60854,1.27322 5.03077,1.77009 l 5.09288,1.02479 c 5.15499,1.03514 8.81938,2.60855 10.99317,4.72023 2.17379,2.11168 3.26069,5.11358 3.26069,9.0057 0,5.11359 -1.52165,8.9229 -4.56496,11.42793 -3.02261,2.48433 -7.64968,3.7265 -13.88121,3.7265 -2.93979,0 -5.88994,-0.27949 -8.85043,-0.83846 -2.9605,-0.55898 -5.921,-1.38709 -8.88149,-2.48434 v -10.0926 c 2.96049,1.57341 5.81748,2.76382 8.57095,3.57123 2.77417,0.78671 5.44482,1.18006 8.01197,1.18006 2.60855,0 4.60636,-0.43476 5.99345,-1.30427 1.38709,-0.86952 2.08063,-2.11169 2.08063,-3.7265 0,-1.44919 -0.47617,-2.56714 -1.4285,-3.35385 -0.93162,-0.78671 -2.80522,-1.4906 -5.6208,-2.11168 l -4.62707,-1.02479 c -4.63741,-0.99373 -8.03267,-2.5775 -10.18576,-4.75129 -2.13238,-2.17379 -3.19857,-5.10323 -3.19857,-8.78832 0,-4.61672 1.4906,-8.16724 4.47179,-10.65157 2.9812,-2.48433 7.26667,-3.7265 12.85642,-3.7265 2.54644,0 5.16534,0.19668 7.8567,0.59003 2.69136,0.37265 5.47588,0.94197 8.35357,1.70798 z"
       id="text3193"
       transform="scale(1,-1)"
       aria-label="ENTREPRISES"
       sodipodi:nodetypes="cccccccccccccccccccccccccccccccccscscsccsccccscsccccccccscccccccccccccccscscsccccccscssscscscsccsccccscsccccccccsccccccccsssscccsscsscccsssccccssscccccccccccccccccsssscccsscsscccsssccccssscc" /></g></svg>
