<?xml version="1.0" encoding="UTF-8" standalone="no"?>
<!-- Created with Inkscape (http://www.inkscape.org/) -->

<svg
   version="1.1"
   id="svg2"
   width="710.81445"
   height="117.06013"
   viewBox="0 0 710.81446 117.06013"
   xml:space="preserve"
   sodipodi:docname="logo_espace_etudiant_white_vectorized.svg"
   inkscape:version="1.4-rc1 (61ec3f243c, 2024-09-26)"
   xmlns:inkscape="http://www.inkscape.org/namespaces/inkscape"
   xmlns:sodipodi="http://sodipodi.sourceforge.net/DTD/sodipodi-0.dtd"
   xmlns="http://www.w3.org/2000/svg"
   xmlns:svg="http://www.w3.org/2000/svg"><sodipodi:namedview
     id="namedview1"
     pagecolor="#ffffff"
     bordercolor="#000000"
     borderopacity="0.25"
     inkscape:showpageshadow="2"
     inkscape:pageopacity="0.0"
     inkscape:pagecheckerboard="0"
     inkscape:deskcolor="#d1d1d1"
     inkscape:zoom="0.62569071"
     inkscape:cx="360.40171"
     inkscape:cy="-181.39953"
     inkscape:window-width="1366"
     inkscape:window-height="731"
     inkscape:window-x="301"
     inkscape:window-y="0"
     inkscape:window-maximized="1"
     inkscape:current-layer="g10"><inkscape:page
       x="0"
       y="0"
       width="710.81445"
       height="117.06013"
       id="page11"
       margin="0"
       bleed="0" /></sodipodi:namedview><defs
     id="defs6"><clipPath
       clipPathUnits="userSpaceOnUse"
       id="clipPath570"><path
         d="M 0,244.235 H 496.713 V 0 H 0 Z"
         id="path568" /></clipPath></defs><g
     id="g10"
     transform="matrix(1.3333333,0,0,-1.3333333,-8.3773334,324.79093)"><path
       d="M 6.283,243.59311 H 17.236302 V 180.97029 H 6.283 Z"
       style="fill:#ffffff;fill-opacity:1;fill-rule:nonzero;stroke:none;stroke-width:0.455306"
       id="path558" /><g
       id="g560"
       transform="matrix(0.45530624,0,0,0.45530624,22.074842,180.97038)"
       style="fill:#ffffff"><path
         d="M 0,0 V 137.54 H 23.334 L 72.93,44.896 V 137.54 H 95.205 V 0 H 71.117 L 22.265,90.736 V 0 Z"
         style="fill:#ffffff;fill-opacity:1;fill-rule:nonzero;stroke:none"
         id="path562" /></g><g
       id="g564"
       transform="matrix(0.45530624,0,0,0.45530624,3.4223109,132.68369)"
       style="fill:#ffffff"><g
         id="g566"
         clip-path="url(#clipPath570)"
         style="fill:#ffffff"><g
           id="g572"
           transform="translate(173.2038,220.401)"
           style="fill:#ffffff"><path
             d="m 0,0 v -39.311 h 13.263 c 9.552,0 15.95,0.713 19.157,2.17 3.228,1.446 5.732,3.699 7.577,6.801 1.834,3.092 2.746,6.687 2.746,10.774 0,5.04 -1.289,9.212 -3.847,12.492 -2.583,3.27 -5.816,5.313 -9.735,6.141 C 26.257,-0.304 20.441,0 11.701,0 Z m -24.041,-114.348 v 137.54 h 38.739 c 14.683,0 24.256,-0.692 28.715,-2.064 6.865,-2.065 12.602,-6.55 17.225,-13.467 4.605,-6.917 6.927,-15.857 6.927,-26.797 0,-8.447 -1.342,-15.553 -3.998,-21.317 -2.683,-5.754 -6.058,-10.281 -10.171,-13.561 -4.119,-3.281 -8.295,-5.46 -12.55,-6.519 -5.775,-1.32 -14.138,-1.98 -25.079,-1.98 H 0 v -51.835 z"
             style="fill:#ffffff;fill-opacity:1;fill-rule:nonzero;stroke:none"
             id="path574" /></g><g
           id="g576"
           transform="translate(274.9334,106.0532)"
           style="fill:#ffffff"><path
             d="m 0,0 v 114.348 h -33.268 c 0,0 -4.289,18.546 -19.737,23.192 H 61.651 L 88.042,114.348 H 24.057 V 0 Z"
             style="fill:#ffffff;fill-opacity:1;fill-rule:nonzero;stroke:none"
             id="path578" /></g></g></g><path
       style="font-weight:bold;font-size:63.5989px;font-family:'DejaVu Sans', 'Open Sans', 'Segoe UI', Helvetica;-inkscape-font-specification:'DejaVu Sans Bold';letter-spacing:-7.92519px;fill:#ffffff;stroke-width:2.38495"
       d="m 142.36826,-229.75641 h 32.26526 v 9.03676 H 154.3241 v 8.63305 h 19.09831 v 9.03676 H 154.3241 v 10.62052 h 20.99261 v 9.03676 h -32.94845 z m 35.51956,0 h 13.35329 l 16.8624,31.79945 v -31.79945 h 11.33476 v 46.36385 h -13.35328 l -16.8624,-31.79945 v 31.79945 h -11.33477 z m 39.77399,0 h 42.73051 v 9.03676 h -15.37181 v 37.32709 h -11.95584 v -37.32709 h -15.40286 z m 57.97171,20.55785 c 2.50504,0 4.29583,-0.46581 5.37237,-1.39744 1.09725,-0.93163 1.64587,-2.46363 1.64587,-4.59601 0,-2.11169 -0.54862,-3.62299 -1.64587,-4.53391 -1.07654,-0.91092 -2.86733,-1.36638 -5.37237,-1.36638 h -5.03077 v 11.89374 z m -5.03077,8.2604 v 17.5456 H 258.6469 v -46.36385 h 18.25984 c 6.10732,0 10.57912,1.02479 13.4154,3.07436 2.85698,2.04957 4.28547,5.28956 4.28547,9.71995 0,3.06401 -0.7453,5.57939 -2.2359,7.54616 -1.46989,1.96676 -3.69544,3.41595 -6.67664,4.34758 1.63552,0.37265 3.09506,1.22146 4.37863,2.54644 1.30428,1.30427 2.61891,3.29174 3.94388,5.9624 l 6.49032,13.16696 h -12.7322 l -5.65186,-11.52109 c -1.13865,-2.31871 -2.29801,-3.90248 -3.47806,-4.75129 -1.15936,-0.84881 -2.71207,-1.27322 -4.65813,-1.27322 z m 29.09136,-28.81825 h 32.26526 v 9.03676 h -20.30942 v 8.63305 h 19.09831 v 9.03676 h -19.09831 v 10.62052 h 20.99261 v 9.03676 h -32.94845 z m 35.51957,0 h 19.84361 c 5.90029,0 10.42384,1.31463 13.57066,3.94388 3.16752,2.60855 4.75128,6.33504 4.75128,11.17949 0,4.86515 -1.58376,8.61235 -4.75128,11.2416 -3.14682,2.60855 -7.67037,3.91283 -13.57066,3.91283 h -7.88776 v 16.08605 h -11.95585 z m 11.95585,8.66411 v 12.94958 h 6.61454 c 2.31871,0 4.10949,-0.55897 5.37236,-1.67692 1.26287,-1.13865 1.89431,-2.74312 1.89431,-4.8134 0,-2.07027 -0.63144,-3.66439 -1.89431,-4.78234 -1.26287,-1.11795 -3.05365,-1.67692 -5.37236,-1.67692 z m 43.71785,11.89374 c 2.50503,0 4.29582,-0.46581 5.37236,-1.39744 1.09725,-0.93163 1.64587,-2.46363 1.64587,-4.59601 0,-2.11169 -0.54862,-3.62299 -1.64587,-4.53391 -1.07654,-0.91092 -2.86733,-1.36638 -5.37236,-1.36638 h -5.03078 v 11.89374 z m -5.03078,8.2604 v 17.5456 h -11.95584 v -46.36385 h 18.25984 c 6.10731,0 10.57911,1.02479 13.41539,3.07436 2.85698,2.04957 4.28547,5.28956 4.28547,9.71995 0,3.06401 -0.7453,5.57939 -2.2359,7.54616 -1.46989,1.96676 -3.69544,3.41595 -6.67664,4.34758 1.63552,0.37265 3.09507,1.22146 4.37864,2.54644 1.30427,1.30427 2.6189,3.29174 3.94387,5.9624 l 6.49032,13.16696 h -12.7322 l -5.65186,-11.52109 c -1.13865,-2.31871 -2.298,-3.90248 -3.47806,-4.75129 -1.15935,-0.84881 -2.71206,-1.27322 -4.65812,-1.27322 z m 29.09137,-28.81825 h 11.95585 v 46.36385 h -11.95585 z m 48.00333,1.45955 v 9.81311 c -2.54644,-1.13865 -5.03077,-1.99782 -7.453,-2.5775 -2.42222,-0.57967 -4.70988,-0.86951 -6.86297,-0.86951 -2.85698,0 -4.96866,0.39335 -6.33504,1.18005 -1.36639,0.78671 -2.04958,2.00817 -2.04958,3.66439 0,1.24217 0.45546,2.2152 1.36639,2.91909 0.93162,0.68319 2.60854,1.27322 5.03077,1.77009 l 5.09288,1.02479 c 5.15499,1.03514 8.81938,2.60855 10.99317,4.72023 2.17379,2.11168 3.26068,5.11358 3.26068,9.0057 0,5.11359 -1.52165,8.9229 -4.56496,11.42793 -3.0226,2.48433 -7.64967,3.7265 -13.8812,3.7265 -2.93979,0 -5.88994,-0.27949 -8.85043,-0.83846 -2.9605,-0.55898 -5.921,-1.38709 -8.88149,-2.48434 v -10.0926 c 2.96049,1.57341 5.81747,2.76382 8.57094,3.57123 2.77417,0.78671 5.44483,1.18006 8.01197,1.18006 2.60855,0 4.60637,-0.43476 5.99346,-1.30427 1.38708,-0.86952 2.08062,-2.11169 2.08062,-3.7265 0,-1.44919 -0.47616,-2.56714 -1.42849,-3.35385 -0.93162,-0.78671 -2.80522,-1.4906 -5.6208,-2.11168 l -4.62707,-1.02479 c -4.63742,-0.99373 -8.03267,-2.5775 -10.18576,-4.75129 -2.13239,-2.17379 -3.19858,-5.10323 -3.19858,-8.78832 0,-4.61672 1.4906,-8.16724 4.4718,-10.65157 2.9812,-2.48433 7.26667,-3.7265 12.85642,-3.7265 2.54644,0 5.16534,0.19668 7.8567,0.59003 2.69136,0.37265 5.47588,0.94197 8.35357,1.70798 z m 5.61443,-1.45955 H 500.831 v 9.03676 h -20.30942 v 8.63305 h 19.0983 v 9.03676 h -19.0983 v 10.62052 h 20.99261 v 9.03676 h -32.94846 z m 67.78483,1.45955 v 9.81311 c -2.54644,-1.13865 -5.03077,-1.99782 -7.453,-2.5775 -2.42222,-0.57967 -4.70987,-0.86951 -6.86296,-0.86951 -2.85699,0 -4.96867,0.39335 -6.33505,1.18005 -1.36639,0.78671 -2.04958,2.00817 -2.04958,3.66439 0,1.24217 0.45546,2.2152 1.36639,2.91909 0.93162,0.68319 2.60854,1.27322 5.03077,1.77009 l 5.09288,1.02479 c 5.15499,1.03514 8.81938,2.60855 10.99317,4.72023 2.17379,2.11168 3.26069,5.11358 3.26069,9.0057 0,5.11359 -1.52165,8.9229 -4.56496,11.42793 -3.02261,2.48433 -7.64968,3.7265 -13.88121,3.7265 -2.93979,0 -5.88994,-0.27949 -8.85043,-0.83846 -2.9605,-0.55898 -5.921,-1.38709 -8.88149,-2.48434 v -10.0926 c 2.96049,1.57341 5.81748,2.76382 8.57095,3.57123 2.77417,0.78671 5.44482,1.18006 8.01197,1.18006 2.60855,0 4.60636,-0.43476 5.99345,-1.30427 1.38709,-0.86952 2.08063,-2.11169 2.08063,-3.7265 0,-1.44919 -0.47617,-2.56714 -1.4285,-3.35385 -0.93162,-0.78671 -2.80522,-1.4906 -5.6208,-2.11168 l -4.62707,-1.02479 c -4.63741,-0.99373 -8.03267,-2.5775 -10.18576,-4.75129 -2.13238,-2.17379 -3.19857,-5.10323 -3.19857,-8.78832 0,-4.61672 1.4906,-8.16724 4.47179,-10.65157 2.9812,-2.48433 7.26667,-3.7265 12.85642,-3.7265 2.54644,0 5.16534,0.19668 7.8567,0.59003 2.69136,0.37265 5.47588,0.94197 8.35357,1.70798 z"
       id="text3193"
       transform="scale(1,-1)"
       aria-label="ENTREPRISES"
       sodipodi:nodetypes="cccccccccccccccccccccccccccccccccscscsccsccccscsccccccccscccccccccccccccscscsccccccscssscscscsccsccccscsccccccccsccccccccsssscccsscsscccsssccccssscccccccccccccccccsssscccsscsscccsssccccssscc" /><path
       d="m 328.72651,-180.61674 h 12.20885 v 2.19862 h -9.59637 v 5.71644 h 9.19544 v 2.19862 h -9.19544 v 6.99681 h 9.82916 v 2.19863 h -12.44164 z m 25.86621,5.25084 v 2.25036 q -1.00879,-0.51733 -2.09517,-0.77599 -1.08638,-0.25866 -2.25036,-0.25866 -1.77183,0 -2.66422,0.54319 -0.87945,0.54319 -0.87945,1.62957 0,0.82772 0.63372,1.30624 0.63373,0.4656 2.54783,0.89239 l 0.81478,0.18106 q 2.53489,0.54319 3.59541,1.53904 1.07344,0.98292 1.07344,2.75475 0,2.01757 -1.6037,3.19448 -1.59077,1.17691 -4.38432,1.17691 -1.16398,0 -2.43143,-0.23279 -1.25451,-0.21987 -2.65128,-0.67252 v -2.45729 q 1.31917,0.68545 2.59955,1.03464 1.28038,0.33626 2.53489,0.33626 1.6813,0 2.58662,-0.56905 0.90532,-0.58199 0.90532,-1.62957 0,-0.96999 -0.65959,-1.48731 -0.64666,-0.51732 -2.85822,-0.99585 l -0.82772,-0.194 q -2.21156,-0.46559 -3.19447,-1.42264 -0.98292,-0.96998 -0.98292,-2.65128 0,-2.04343 1.44851,-3.15568 1.44851,-1.11225 4.11273,-1.11225 1.31917,0 2.48315,0.194 1.16398,0.19399 2.1469,0.58199 z m 6.86748,11.88552 v 7.68227 h -2.39263 v -19.99459 h 2.39263 v 2.19863 q 0.75012,-1.29331 1.88823,-1.9141 1.15105,-0.63372 2.74182,-0.63372 2.63835,0 4.28086,2.09516 1.65543,2.09517 1.65543,5.50951 0,3.41434 -1.65543,5.5095 -1.64251,2.09516 -4.28086,2.09516 -1.59077,0 -2.74182,-0.62079 -1.13811,-0.63372 -1.88823,-1.92703 z m 8.09612,-5.05684 q 0,-2.62542 -1.08638,-4.11273 -1.07345,-1.50024 -2.96168,-1.50024 -1.88824,0 -2.97462,1.50024 -1.07344,1.48731 -1.07344,4.11273 0,2.62542 1.07344,4.12566 1.08638,1.4873 2.97462,1.4873 1.88823,0 2.96168,-1.4873 1.08638,-1.50024 1.08638,-4.12566 z m 12.99777,-0.0517 q -2.88408,0 -3.99633,0.65959 -1.11224,0.65959 -1.11224,2.25036 0,1.26745 0.82771,2.01757 0.84066,0.73718 2.27623,0.73718 1.97877,0 3.16861,-1.39677 1.20278,-1.40971 1.20278,-3.73767 v -0.53026 z m 4.74645,-0.98291 v 8.26425 h -2.37969 v -2.19863 q -0.81479,1.31918 -2.0305,1.9529 -1.21571,0.62079 -2.97461,0.62079 -2.2245,0 -3.54367,-1.24158 -1.30625,-1.25451 -1.30625,-3.34967 0,-2.44436 1.62958,-3.68593 1.6425,-1.24158 4.88871,-1.24158 h 3.33674 v -0.2328 q 0,-1.6425 -1.08638,-2.53489 -1.07345,-0.90531 -3.02635,-0.90531 -1.24158,0 -2.41849,0.29746 -1.17691,0.29746 -2.26329,0.89238 v -2.19863 q 1.30624,-0.50439 2.53489,-0.75012 1.22864,-0.25866 2.39262,-0.25866 3.14275,0 4.69472,1.62957 1.55197,1.62957 1.55197,4.94045 z m 15.32573,-5.6647 v 2.22449 q -1.00878,-0.55612 -2.0305,-0.82772 -1.00878,-0.28452 -2.04343,-0.28452 -2.31503,0 -3.5954,1.47437 -1.28038,1.46144 -1.28038,4.11273 0,2.65128 1.28038,4.12566 1.28037,1.46144 3.5954,1.46144 1.03465,0 2.04343,-0.2716 1.02172,-0.28453 2.0305,-0.84065 v 2.19863 q -0.99585,0.46559 -2.0693,0.69839 -1.06051,0.23279 -2.26329,0.23279 -3.27208,0 -5.19911,-2.05636 -1.92703,-2.05636 -1.92703,-5.5483 0,-3.54367 1.93996,-5.57417 1.9529,-2.0305 5.34138,-2.0305 1.09931,0 2.14689,0.2328 1.04758,0.21986 2.0305,0.67252 z m 16.52851,6.09149 v 1.16398 h -10.94141 q 0.1552,2.45729 1.47438,3.7506 1.33211,1.28038 3.69887,1.28038 1.3709,0 2.65128,-0.33626 1.29331,-0.33626 2.56076,-1.00878 v 2.25036 q -1.28038,0.54319 -2.62542,0.82771 -1.34505,0.28453 -2.72889,0.28453 -3.46607,0 -5.49657,-2.01756 -2.01756,-2.01757 -2.01756,-5.45777 0,-3.55661 1.9141,-5.63884 1.92703,-2.09516 5.18617,-2.09516 2.92288,0 4.61712,1.88823 1.70717,1.8753 1.70717,5.10858 z m -2.37969,-0.69839 q -0.0259,-1.9529 -1.09932,-3.11688 -1.06051,-1.16397 -2.81941,-1.16397 -1.9917,0 -3.19448,1.12518 -1.18984,1.12518 -1.37091,3.16861 z m 27.09485,0.69839 v 1.16398 h -10.9414 q 0.15519,2.45729 1.47437,3.7506 1.33211,1.28038 3.69887,1.28038 1.37091,0 2.65129,-0.33626 1.29331,-0.33626 2.56075,-1.00878 v 2.25036 q -1.28038,0.54319 -2.62542,0.82771 -1.34504,0.28453 -2.72888,0.28453 -3.46608,0 -5.49657,-2.01756 -2.01757,-2.01757 -2.01757,-5.45777 0,-3.55661 1.9141,-5.63884 1.92703,-2.09516 5.18618,-2.09516 2.92288,0 4.61711,1.88823 1.70717,1.8753 1.70717,5.10858 z m -2.37969,-0.69839 q -0.0259,-1.9529 -1.09931,-3.11688 -1.06052,-1.16397 -2.81942,-1.16397 -1.9917,0 -3.19447,1.12518 -1.18985,1.12518 -1.37091,3.16861 z m -2.28916,-12.64857 h 2.57369 l -4.21619,4.86284 h -1.97877 z m 10.92847,2.58662 v 4.11272 h 4.90165 v 1.84944 h -4.90165 v 7.86333 q 0,1.77183 0.47853,2.27622 0.49146,0.50439 1.97876,0.50439 h 2.44436 v 1.9917 h -2.44436 q -2.75475,0 -3.80233,-1.02171 -1.04758,-1.03465 -1.04758,-3.7506 v -7.86333 h -1.74597 v -1.84944 h 1.74597 v -4.11272 z m 7.78573,12.88137 v -8.76865 h 2.37969 v 8.67812 q 0,2.05636 0.80186,3.09101 0.80185,1.02172 2.40555,1.02172 1.92704,0 3.03928,-1.22865 1.12518,-1.22864 1.12518,-3.34967 v -8.21253 h 2.3797 v 14.48508 h -2.3797 v -2.22449 q -0.86651,1.31918 -2.01756,1.96583 -1.13811,0.63372 -2.65129,0.63372 -2.49609,0 -3.7894,-1.55197 -1.29331,-1.55197 -1.29331,-4.53952 z m 5.98803,-9.11784 z m 20.57657,2.54782 v -7.83746 h 2.37969 v 20.12391 h -2.37969 v -2.17276 q -0.75012,1.29331 -1.90117,1.92703 -1.13811,0.62079 -2.74181,0.62079 -2.62542,0 -4.28086,-2.09516 -1.64251,-2.09516 -1.64251,-5.5095 0,-3.41434 1.64251,-5.50951 1.65544,-2.09516 4.28086,-2.09516 1.6037,0 2.74181,0.63372 1.15105,0.62079 1.90117,1.9141 z m -8.10906,5.05685 q 0,2.62542 1.07345,4.12566 1.08638,1.4873 2.97462,1.4873 1.88823,0 2.97461,-1.4873 1.08638,-1.50024 1.08638,-4.12566 0,-2.62542 -1.08638,-4.11273 -1.08638,-1.50024 -2.97461,-1.50024 -1.88824,0 -2.97462,1.50024 -1.07345,1.48731 -1.07345,4.11273 z m 15.3904,-7.25548 h 2.37969 v 14.48508 h -2.37969 z m 0,-5.63883 h 2.37969 v 3.01341 h -2.37969 z m 13.94189,12.84257 q -2.88408,0 -3.99633,0.65959 -1.11224,0.65959 -1.11224,2.25036 0,1.26745 0.82772,2.01757 0.84065,0.73718 2.27622,0.73718 1.97877,0 3.16861,-1.39677 1.20278,-1.40971 1.20278,-3.73767 v -0.53026 z m 4.74645,-0.98291 v 8.26425 h -2.37969 v -2.19863 q -0.81478,1.31918 -2.03049,1.9529 -1.21572,0.62079 -2.97462,0.62079 -2.22449,0 -3.54367,-1.24158 -1.30624,-1.25451 -1.30624,-3.34967 0,-2.44436 1.62957,-3.68593 1.6425,-1.24158 4.88871,-1.24158 h 3.33674 v -0.2328 q 0,-1.6425 -1.08638,-2.53489 -1.07345,-0.90531 -3.02634,-0.90531 -1.24158,0 -2.4185,0.29746 -1.17691,0.29746 -2.26329,0.89238 v -2.19863 q 1.30624,-0.50439 2.53489,-0.75012 1.22864,-0.25866 2.39262,-0.25866 3.14275,0 4.69472,1.62957 1.55197,1.62957 1.55197,4.94045 z m 16.94236,-0.47853 v 8.74278 h -2.37969 v -8.66518 q 0,-2.05636 -0.80186,-3.07808 -0.80185,-1.02171 -2.40555,-1.02171 -1.92704,0 -3.03928,1.22864 -1.11225,1.22865 -1.11225,3.34968 v 8.18665 h -2.39262 v -14.48508 h 2.39262 v 2.25037 q 0.85358,-1.30625 2.00463,-1.9529 1.16398,-0.64666 2.67715,-0.64666 2.49609,0 3.77647,1.55197 1.28038,1.53904 1.28038,4.53952 z m 7.10027,-9.85502 v 4.11272 h 4.90165 v 1.84944 h -4.90165 v 7.86333 q 0,1.77183 0.47853,2.27622 0.49146,0.50439 1.97876,0.50439 h 2.44436 v 1.9917 h -2.44436 q -2.75475,0 -3.80233,-1.02171 -1.04758,-1.03465 -1.04758,-3.7506 v -7.86333 h -1.74597 v -1.84944 h 1.74597 v -4.11272 z"
       id="text11"
       style="font-size:26.487px;font-family:'DejaVu Sans';-inkscape-font-specification:'DejaVu Sans';text-align:justify;fill:#ffffff;stroke-width:11.3386"
       transform="scale(1,-1)"
       aria-label="Espace étudiant" /></g></svg>
